<mxfile host="app.diagrams.net" modified="2024-01-08T00:06:27.282Z" agent="Mozilla/5.0 (Windows NT 10.0; Win64; x64) AppleWebKit/537.36 (KHTML, like Gecko) Chrome/120.0.0.0 Safari/537.36" etag="zvhNg8bpD3cOSdNtmzuz" version="22.1.17" type="device" pages="4">
  <diagram name="InputLFSR" id="hZ79UqqvmVXaj_bsT8XA">
    <mxGraphModel dx="1115" dy="600" grid="1" gridSize="2" guides="1" tooltips="1" connect="1" arrows="1" fold="1" page="1" pageScale="1" pageWidth="1169" pageHeight="827" math="1" shadow="0">
      <root>
        <mxCell id="0" />
        <mxCell id="1" parent="0" />
        <mxCell id="aB9cYZjxwSpwkbv5Gkb8-180" value="$$x[4]$$" style="text;strokeColor=none;fillColor=none;html=1;fontSize=14;fontStyle=0;verticalAlign=middle;align=center;fontColor=#000000;" parent="1" vertex="1">
          <mxGeometry x="380" y="365" width="40" height="21.5" as="geometry" />
        </mxCell>
        <mxCell id="aB9cYZjxwSpwkbv5Gkb8-181" style="edgeStyle=orthogonalEdgeStyle;rounded=0;orthogonalLoop=1;jettySize=auto;html=1;exitX=1;exitY=0.5;exitDx=0;exitDy=0;entryX=0;entryY=0.5;entryDx=0;entryDy=0;endArrow=block;endFill=1;" parent="1" source="aB9cYZjxwSpwkbv5Gkb8-308" target="aB9cYZjxwSpwkbv5Gkb8-302" edge="1">
          <mxGeometry relative="1" as="geometry">
            <mxPoint x="414" y="390" as="sourcePoint" />
          </mxGeometry>
        </mxCell>
        <mxCell id="aB9cYZjxwSpwkbv5Gkb8-185" style="edgeStyle=orthogonalEdgeStyle;rounded=0;orthogonalLoop=1;jettySize=auto;html=1;exitX=1;exitY=0.5;exitDx=0;exitDy=0;entryX=0;entryY=0.5;entryDx=0;entryDy=0;endArrow=none;endFill=0;strokeColor=#7D7D7D;" parent="1" source="aB9cYZjxwSpwkbv5Gkb8-186" target="aB9cYZjxwSpwkbv5Gkb8-279" edge="1">
          <mxGeometry relative="1" as="geometry" />
        </mxCell>
        <mxCell id="aB9cYZjxwSpwkbv5Gkb8-186" value="" style="ellipse;whiteSpace=wrap;html=1;aspect=fixed;fillColor=#7D7D7D;strokeColor=none;" parent="1" vertex="1">
          <mxGeometry x="298" y="434.94" width="7" height="7" as="geometry" />
        </mxCell>
        <mxCell id="aB9cYZjxwSpwkbv5Gkb8-187" style="edgeStyle=orthogonalEdgeStyle;rounded=0;orthogonalLoop=1;jettySize=auto;html=1;exitX=0.5;exitY=0;exitDx=0;exitDy=0;entryX=0;entryY=0.5;entryDx=0;entryDy=0;endArrow=none;endFill=0;strokeColor=#7D7D7D;" parent="1" source="aB9cYZjxwSpwkbv5Gkb8-188" target="aB9cYZjxwSpwkbv5Gkb8-186" edge="1">
          <mxGeometry relative="1" as="geometry">
            <Array as="points">
              <mxPoint x="276" y="438" />
              <mxPoint x="282" y="438" />
            </Array>
          </mxGeometry>
        </mxCell>
        <mxCell id="aB9cYZjxwSpwkbv5Gkb8-188" value="" style="verticalLabelPosition=bottom;verticalAlign=top;html=1;shape=offPageConnector;rounded=0;size=0.2857142857142857;fillColor=#7D7D7D;strokeColor=none;rotation=-90;" parent="1" vertex="1">
          <mxGeometry x="255" y="434.44" width="6" height="8" as="geometry" />
        </mxCell>
        <mxCell id="aB9cYZjxwSpwkbv5Gkb8-189" value="$$clock$$" style="text;strokeColor=none;fillColor=none;html=1;fontSize=16;fontStyle=0;verticalAlign=middle;align=center;fontColor=#7D7D7D;" parent="1" vertex="1">
          <mxGeometry x="210" y="429" width="40" height="15.88" as="geometry" />
        </mxCell>
        <mxCell id="aB9cYZjxwSpwkbv5Gkb8-198" value="$$x[3]$$" style="text;strokeColor=none;fillColor=none;html=1;fontSize=14;fontStyle=0;verticalAlign=middle;align=center;fontColor=#990000;labelBackgroundColor=none;" parent="1" vertex="1">
          <mxGeometry x="500" y="345" width="40" height="25" as="geometry" />
        </mxCell>
        <mxCell id="aB9cYZjxwSpwkbv5Gkb8-199" style="edgeStyle=orthogonalEdgeStyle;rounded=0;orthogonalLoop=1;jettySize=auto;html=1;exitX=1;exitY=0.5;exitDx=0;exitDy=0;entryX=0;entryY=0.5;entryDx=0;entryDy=0;endArrow=block;endFill=1;" parent="1" source="aB9cYZjxwSpwkbv5Gkb8-200" target="aB9cYZjxwSpwkbv5Gkb8-297" edge="1">
          <mxGeometry relative="1" as="geometry" />
        </mxCell>
        <mxCell id="aB9cYZjxwSpwkbv5Gkb8-352" style="edgeStyle=orthogonalEdgeStyle;rounded=0;orthogonalLoop=1;jettySize=auto;html=1;exitX=0;exitY=0.5;exitDx=0;exitDy=0;entryX=1;entryY=0.5;entryDx=0;entryDy=0;endArrow=none;endFill=0;" parent="1" source="aB9cYZjxwSpwkbv5Gkb8-200" target="aB9cYZjxwSpwkbv5Gkb8-303" edge="1">
          <mxGeometry relative="1" as="geometry" />
        </mxCell>
        <mxCell id="aB9cYZjxwSpwkbv5Gkb8-200" value="" style="ellipse;whiteSpace=wrap;html=1;aspect=fixed;fillColor=#000000;strokeColor=none;" parent="1" vertex="1">
          <mxGeometry x="516.5" y="386.5" width="7" height="7" as="geometry" />
        </mxCell>
        <mxCell id="aB9cYZjxwSpwkbv5Gkb8-201" style="edgeStyle=orthogonalEdgeStyle;rounded=0;orthogonalLoop=1;jettySize=auto;html=1;exitX=0.5;exitY=0;exitDx=0;exitDy=0;entryX=0.5;entryY=0;entryDx=0;entryDy=0;endArrow=none;endFill=0;" parent="1" source="aB9cYZjxwSpwkbv5Gkb8-202" target="aB9cYZjxwSpwkbv5Gkb8-200" edge="1">
          <mxGeometry relative="1" as="geometry" />
        </mxCell>
        <mxCell id="aB9cYZjxwSpwkbv5Gkb8-202" value="" style="verticalLabelPosition=bottom;verticalAlign=top;html=1;shape=offPageConnector;rounded=0;size=0.2857142857142857;fillColor=#000000;strokeColor=none;rotation=-180;" parent="1" vertex="1">
          <mxGeometry x="517" y="370" width="6" height="8" as="geometry" />
        </mxCell>
        <mxCell id="aB9cYZjxwSpwkbv5Gkb8-211" value="$$x[2]$$" style="text;strokeColor=none;fillColor=none;html=1;fontSize=14;fontStyle=0;verticalAlign=middle;align=center;fontColor=#990000;" parent="1" vertex="1">
          <mxGeometry x="620" y="345" width="40" height="25" as="geometry" />
        </mxCell>
        <mxCell id="aB9cYZjxwSpwkbv5Gkb8-212" style="edgeStyle=orthogonalEdgeStyle;rounded=0;orthogonalLoop=1;jettySize=auto;html=1;exitX=1;exitY=0.5;exitDx=0;exitDy=0;entryX=0;entryY=0.5;entryDx=0;entryDy=0;endArrow=block;endFill=1;" parent="1" source="aB9cYZjxwSpwkbv5Gkb8-213" target="aB9cYZjxwSpwkbv5Gkb8-312" edge="1">
          <mxGeometry relative="1" as="geometry" />
        </mxCell>
        <mxCell id="aB9cYZjxwSpwkbv5Gkb8-355" style="edgeStyle=orthogonalEdgeStyle;rounded=0;orthogonalLoop=1;jettySize=auto;html=1;entryX=1;entryY=0.5;entryDx=0;entryDy=0;endArrow=none;endFill=0;" parent="1" source="aB9cYZjxwSpwkbv5Gkb8-213" target="aB9cYZjxwSpwkbv5Gkb8-298" edge="1">
          <mxGeometry relative="1" as="geometry" />
        </mxCell>
        <mxCell id="aB9cYZjxwSpwkbv5Gkb8-213" value="" style="ellipse;whiteSpace=wrap;html=1;aspect=fixed;fillColor=#000000;strokeColor=none;" parent="1" vertex="1">
          <mxGeometry x="636.5" y="386.5" width="7" height="7" as="geometry" />
        </mxCell>
        <mxCell id="aB9cYZjxwSpwkbv5Gkb8-214" style="edgeStyle=orthogonalEdgeStyle;rounded=0;orthogonalLoop=1;jettySize=auto;html=1;exitX=0.5;exitY=0;exitDx=0;exitDy=0;entryX=0.5;entryY=0;entryDx=0;entryDy=0;endArrow=none;endFill=0;" parent="1" source="aB9cYZjxwSpwkbv5Gkb8-215" target="aB9cYZjxwSpwkbv5Gkb8-213" edge="1">
          <mxGeometry relative="1" as="geometry" />
        </mxCell>
        <mxCell id="aB9cYZjxwSpwkbv5Gkb8-215" value="" style="verticalLabelPosition=bottom;verticalAlign=top;html=1;shape=offPageConnector;rounded=0;size=0.2857142857142857;fillColor=#000000;strokeColor=none;rotation=-180;" parent="1" vertex="1">
          <mxGeometry x="637" y="370" width="6" height="8" as="geometry" />
        </mxCell>
        <mxCell id="aB9cYZjxwSpwkbv5Gkb8-224" value="$$x[1]$$" style="text;strokeColor=none;fillColor=none;html=1;fontSize=14;fontStyle=0;verticalAlign=middle;align=center;fontColor=#990000;" parent="1" vertex="1">
          <mxGeometry x="740" y="345" width="40" height="25" as="geometry" />
        </mxCell>
        <mxCell id="aB9cYZjxwSpwkbv5Gkb8-225" style="edgeStyle=orthogonalEdgeStyle;rounded=0;orthogonalLoop=1;jettySize=auto;html=1;exitX=1;exitY=0.5;exitDx=0;exitDy=0;entryX=0;entryY=0.5;entryDx=0;entryDy=0;endArrow=block;endFill=1;" parent="1" source="aB9cYZjxwSpwkbv5Gkb8-226" target="aB9cYZjxwSpwkbv5Gkb8-317" edge="1">
          <mxGeometry relative="1" as="geometry" />
        </mxCell>
        <mxCell id="aB9cYZjxwSpwkbv5Gkb8-356" style="edgeStyle=orthogonalEdgeStyle;rounded=0;orthogonalLoop=1;jettySize=auto;html=1;exitX=0;exitY=0.5;exitDx=0;exitDy=0;entryX=1;entryY=0.5;entryDx=0;entryDy=0;endArrow=none;endFill=0;" parent="1" source="aB9cYZjxwSpwkbv5Gkb8-226" target="aB9cYZjxwSpwkbv5Gkb8-313" edge="1">
          <mxGeometry relative="1" as="geometry" />
        </mxCell>
        <mxCell id="aB9cYZjxwSpwkbv5Gkb8-226" value="" style="ellipse;whiteSpace=wrap;html=1;aspect=fixed;fillColor=#000000;strokeColor=none;" parent="1" vertex="1">
          <mxGeometry x="755" y="386.5" width="7" height="7" as="geometry" />
        </mxCell>
        <mxCell id="aB9cYZjxwSpwkbv5Gkb8-227" style="edgeStyle=orthogonalEdgeStyle;rounded=0;orthogonalLoop=1;jettySize=auto;html=1;exitX=0.5;exitY=0;exitDx=0;exitDy=0;entryX=0.5;entryY=0;entryDx=0;entryDy=0;endArrow=none;endFill=0;" parent="1" source="aB9cYZjxwSpwkbv5Gkb8-228" target="aB9cYZjxwSpwkbv5Gkb8-226" edge="1">
          <mxGeometry relative="1" as="geometry" />
        </mxCell>
        <mxCell id="aB9cYZjxwSpwkbv5Gkb8-228" value="" style="verticalLabelPosition=bottom;verticalAlign=top;html=1;shape=offPageConnector;rounded=0;size=0.2857142857142857;fillColor=#000000;strokeColor=none;rotation=-180;" parent="1" vertex="1">
          <mxGeometry x="755.5" y="370" width="6" height="8" as="geometry" />
        </mxCell>
        <mxCell id="aB9cYZjxwSpwkbv5Gkb8-231" value="" style="endArrow=none;html=1;rounded=0;entryX=1;entryY=0.5;entryDx=0;entryDy=0;exitX=0;exitY=0.5;exitDx=0;exitDy=0;" parent="1" source="aB9cYZjxwSpwkbv5Gkb8-232" target="aB9cYZjxwSpwkbv5Gkb8-318" edge="1">
          <mxGeometry width="50" height="50" relative="1" as="geometry">
            <mxPoint x="860" y="390" as="sourcePoint" />
            <mxPoint x="849.9999999999909" y="389.92" as="targetPoint" />
          </mxGeometry>
        </mxCell>
        <mxCell id="aB9cYZjxwSpwkbv5Gkb8-232" value="" style="ellipse;whiteSpace=wrap;html=1;aspect=fixed;fillColor=#000000;strokeColor=none;" parent="1" vertex="1">
          <mxGeometry x="858.5" y="386.5" width="7" height="7" as="geometry" />
        </mxCell>
        <mxCell id="aB9cYZjxwSpwkbv5Gkb8-233" style="edgeStyle=orthogonalEdgeStyle;rounded=0;orthogonalLoop=1;jettySize=auto;html=1;exitX=0.5;exitY=0;exitDx=0;exitDy=0;entryX=0.5;entryY=0;entryDx=0;entryDy=0;endArrow=none;endFill=0;" parent="1" source="aB9cYZjxwSpwkbv5Gkb8-234" target="aB9cYZjxwSpwkbv5Gkb8-232" edge="1">
          <mxGeometry relative="1" as="geometry" />
        </mxCell>
        <mxCell id="aB9cYZjxwSpwkbv5Gkb8-234" value="" style="verticalLabelPosition=bottom;verticalAlign=top;html=1;shape=offPageConnector;rounded=0;size=0.2857142857142857;fillColor=#000000;strokeColor=none;rotation=-180;" parent="1" vertex="1">
          <mxGeometry x="859" y="370" width="6" height="8" as="geometry" />
        </mxCell>
        <mxCell id="aB9cYZjxwSpwkbv5Gkb8-236" value="$$x[0]$$" style="text;strokeColor=none;fillColor=none;html=1;fontSize=14;fontStyle=0;verticalAlign=middle;align=center;fontColor=#990000;" parent="1" vertex="1">
          <mxGeometry x="847" y="345" width="30" height="25" as="geometry" />
        </mxCell>
        <mxCell id="aB9cYZjxwSpwkbv5Gkb8-277" style="edgeStyle=orthogonalEdgeStyle;rounded=0;orthogonalLoop=1;jettySize=auto;html=1;exitX=0.5;exitY=0;exitDx=0;exitDy=0;entryX=0;entryY=0.5;entryDx=0;entryDy=0;strokeColor=#7D7D7D;endArrow=none;endFill=0;" parent="1" source="aB9cYZjxwSpwkbv5Gkb8-279" target="aB9cYZjxwSpwkbv5Gkb8-304" edge="1">
          <mxGeometry relative="1" as="geometry">
            <Array as="points">
              <mxPoint x="422" y="415" />
            </Array>
          </mxGeometry>
        </mxCell>
        <mxCell id="aB9cYZjxwSpwkbv5Gkb8-278" style="edgeStyle=orthogonalEdgeStyle;rounded=0;orthogonalLoop=1;jettySize=auto;html=1;exitX=1;exitY=0.5;exitDx=0;exitDy=0;entryX=0;entryY=0.5;entryDx=0;entryDy=0;endArrow=none;endFill=0;strokeColor=#7D7D7D;" parent="1" source="aB9cYZjxwSpwkbv5Gkb8-279" target="aB9cYZjxwSpwkbv5Gkb8-291" edge="1">
          <mxGeometry relative="1" as="geometry" />
        </mxCell>
        <mxCell id="aB9cYZjxwSpwkbv5Gkb8-279" value="" style="ellipse;whiteSpace=wrap;html=1;aspect=fixed;fillColor=#7D7D7D;strokeColor=none;" parent="1" vertex="1">
          <mxGeometry x="418" y="434.94" width="7" height="7" as="geometry" />
        </mxCell>
        <mxCell id="aB9cYZjxwSpwkbv5Gkb8-286" style="edgeStyle=orthogonalEdgeStyle;rounded=0;orthogonalLoop=1;jettySize=auto;html=1;exitX=0.5;exitY=0;exitDx=0;exitDy=0;entryX=0;entryY=0.5;entryDx=0;entryDy=0;endArrow=none;endFill=0;strokeColor=#7D7D7D;" parent="1" source="aB9cYZjxwSpwkbv5Gkb8-288" target="aB9cYZjxwSpwkbv5Gkb8-314" edge="1">
          <mxGeometry relative="1" as="geometry">
            <Array as="points">
              <mxPoint x="662" y="415" />
            </Array>
          </mxGeometry>
        </mxCell>
        <mxCell id="aB9cYZjxwSpwkbv5Gkb8-287" style="edgeStyle=orthogonalEdgeStyle;rounded=0;orthogonalLoop=1;jettySize=auto;html=1;exitX=1;exitY=0.5;exitDx=0;exitDy=0;entryX=0;entryY=0.5;entryDx=0;entryDy=0;endArrow=none;endFill=0;strokeColor=#7D7D7D;" parent="1" source="aB9cYZjxwSpwkbv5Gkb8-288" target="aB9cYZjxwSpwkbv5Gkb8-319" edge="1">
          <mxGeometry relative="1" as="geometry">
            <mxPoint x="780.0000000000013" y="437.94000000000005" as="targetPoint" />
            <Array as="points">
              <mxPoint x="782" y="438" />
              <mxPoint x="782" y="415" />
            </Array>
          </mxGeometry>
        </mxCell>
        <mxCell id="aB9cYZjxwSpwkbv5Gkb8-288" value="" style="ellipse;whiteSpace=wrap;html=1;aspect=fixed;fillColor=#7D7D7D;strokeColor=none;" parent="1" vertex="1">
          <mxGeometry x="658" y="434.44" width="7" height="7" as="geometry" />
        </mxCell>
        <mxCell id="aB9cYZjxwSpwkbv5Gkb8-289" style="edgeStyle=orthogonalEdgeStyle;rounded=0;orthogonalLoop=1;jettySize=auto;html=1;exitX=0.5;exitY=0;exitDx=0;exitDy=0;entryX=0;entryY=0.5;entryDx=0;entryDy=0;endArrow=none;endFill=0;strokeColor=#7D7D7D;" parent="1" source="aB9cYZjxwSpwkbv5Gkb8-291" target="aB9cYZjxwSpwkbv5Gkb8-299" edge="1">
          <mxGeometry relative="1" as="geometry">
            <Array as="points">
              <mxPoint x="542" y="415" />
            </Array>
          </mxGeometry>
        </mxCell>
        <mxCell id="aB9cYZjxwSpwkbv5Gkb8-290" style="edgeStyle=orthogonalEdgeStyle;rounded=0;orthogonalLoop=1;jettySize=auto;html=1;exitX=1;exitY=0.5;exitDx=0;exitDy=0;entryX=0;entryY=0.5;entryDx=0;entryDy=0;strokeColor=#7D7D7D;endArrow=none;endFill=0;" parent="1" source="aB9cYZjxwSpwkbv5Gkb8-291" target="aB9cYZjxwSpwkbv5Gkb8-288" edge="1">
          <mxGeometry relative="1" as="geometry" />
        </mxCell>
        <mxCell id="aB9cYZjxwSpwkbv5Gkb8-291" value="" style="ellipse;whiteSpace=wrap;html=1;aspect=fixed;fillColor=#7D7D7D;strokeColor=none;" parent="1" vertex="1">
          <mxGeometry x="538" y="434.44" width="7" height="7" as="geometry" />
        </mxCell>
        <mxCell id="aB9cYZjxwSpwkbv5Gkb8-292" style="edgeStyle=orthogonalEdgeStyle;rounded=0;orthogonalLoop=1;jettySize=auto;html=1;exitX=0;exitY=0.5;exitDx=0;exitDy=0;entryX=0.5;entryY=0;entryDx=0;entryDy=0;endArrow=none;endFill=0;strokeColor=#7d7d7d;" parent="1" source="aB9cYZjxwSpwkbv5Gkb8-309" target="aB9cYZjxwSpwkbv5Gkb8-186" edge="1">
          <mxGeometry relative="1" as="geometry" />
        </mxCell>
        <mxCell id="aB9cYZjxwSpwkbv5Gkb8-293" style="edgeStyle=orthogonalEdgeStyle;rounded=0;orthogonalLoop=1;jettySize=auto;html=1;exitX=1;exitY=0.5;exitDx=0;exitDy=0;endArrow=block;endFill=1;jumpStyle=none;entryX=1;entryY=0.5;entryDx=0;entryDy=0;" parent="1" source="aB9cYZjxwSpwkbv5Gkb8-232" target="aB9cYZjxwSpwkbv5Gkb8-349" edge="1">
          <mxGeometry relative="1" as="geometry">
            <mxPoint x="748.5" y="470.94000000000005" as="sourcePoint" />
            <mxPoint x="555.7471264367816" y="475" as="targetPoint" />
            <Array as="points">
              <mxPoint x="875" y="390" />
              <mxPoint x="875" y="465" />
            </Array>
          </mxGeometry>
        </mxCell>
        <mxCell id="aB9cYZjxwSpwkbv5Gkb8-295" value="" style="group" parent="1" vertex="1" connectable="0">
          <mxGeometry x="550" y="370" width="60" height="60" as="geometry" />
        </mxCell>
        <mxCell id="aB9cYZjxwSpwkbv5Gkb8-296" value="" style="group;fillColor=#fff2cc;strokeColor=#000000;container=0;" parent="aB9cYZjxwSpwkbv5Gkb8-295" vertex="1" connectable="0">
          <mxGeometry width="60" height="60" as="geometry" />
        </mxCell>
        <mxCell id="aB9cYZjxwSpwkbv5Gkb8-297" value="D" style="text;html=1;strokeColor=none;fillColor=none;align=center;verticalAlign=middle;whiteSpace=wrap;rounded=0;" parent="aB9cYZjxwSpwkbv5Gkb8-295" vertex="1">
          <mxGeometry y="10" width="17.142857142857142" height="20" as="geometry" />
        </mxCell>
        <mxCell id="aB9cYZjxwSpwkbv5Gkb8-298" value="Q" style="text;html=1;strokeColor=none;fillColor=none;align=center;verticalAlign=middle;whiteSpace=wrap;rounded=0;" parent="aB9cYZjxwSpwkbv5Gkb8-295" vertex="1">
          <mxGeometry x="42.85714285714283" y="10" width="17.142857142857142" height="20" as="geometry" />
        </mxCell>
        <mxCell id="aB9cYZjxwSpwkbv5Gkb8-299" value="" style="triangle;whiteSpace=wrap;html=1;fillColor=#FFF2CC;" parent="aB9cYZjxwSpwkbv5Gkb8-295" vertex="1">
          <mxGeometry y="40" width="8.571428571428571" height="10" as="geometry" />
        </mxCell>
        <mxCell id="aB9cYZjxwSpwkbv5Gkb8-300" value="" style="group" parent="1" vertex="1" connectable="0">
          <mxGeometry x="430" y="370" width="60" height="60" as="geometry" />
        </mxCell>
        <mxCell id="aB9cYZjxwSpwkbv5Gkb8-301" value="" style="group;fillColor=#fff2cc;strokeColor=#000000;container=0;" parent="aB9cYZjxwSpwkbv5Gkb8-300" vertex="1" connectable="0">
          <mxGeometry width="60" height="60" as="geometry" />
        </mxCell>
        <mxCell id="aB9cYZjxwSpwkbv5Gkb8-302" value="D" style="text;html=1;strokeColor=none;fillColor=none;align=center;verticalAlign=middle;whiteSpace=wrap;rounded=0;" parent="aB9cYZjxwSpwkbv5Gkb8-300" vertex="1">
          <mxGeometry y="10" width="17.142857142857142" height="20" as="geometry" />
        </mxCell>
        <mxCell id="aB9cYZjxwSpwkbv5Gkb8-303" value="Q" style="text;html=1;strokeColor=none;fillColor=none;align=center;verticalAlign=middle;whiteSpace=wrap;rounded=0;" parent="aB9cYZjxwSpwkbv5Gkb8-300" vertex="1">
          <mxGeometry x="42.85714285714283" y="10" width="17.142857142857142" height="20" as="geometry" />
        </mxCell>
        <mxCell id="aB9cYZjxwSpwkbv5Gkb8-304" value="" style="triangle;whiteSpace=wrap;html=1;fillColor=#FFF2CC;" parent="aB9cYZjxwSpwkbv5Gkb8-300" vertex="1">
          <mxGeometry y="40" width="8.571428571428571" height="10" as="geometry" />
        </mxCell>
        <mxCell id="aB9cYZjxwSpwkbv5Gkb8-305" value="" style="group" parent="1" vertex="1" connectable="0">
          <mxGeometry x="310" y="370" width="60" height="60" as="geometry" />
        </mxCell>
        <mxCell id="aB9cYZjxwSpwkbv5Gkb8-306" value="" style="group;fillColor=#fff2cc;strokeColor=#000000;container=0;" parent="aB9cYZjxwSpwkbv5Gkb8-305" vertex="1" connectable="0">
          <mxGeometry width="60" height="60" as="geometry" />
        </mxCell>
        <mxCell id="aB9cYZjxwSpwkbv5Gkb8-307" value="D" style="text;html=1;strokeColor=none;fillColor=none;align=center;verticalAlign=middle;whiteSpace=wrap;rounded=0;" parent="aB9cYZjxwSpwkbv5Gkb8-305" vertex="1">
          <mxGeometry y="10" width="17.142857142857142" height="20" as="geometry" />
        </mxCell>
        <mxCell id="aB9cYZjxwSpwkbv5Gkb8-308" value="Q" style="text;html=1;strokeColor=none;fillColor=none;align=center;verticalAlign=middle;whiteSpace=wrap;rounded=0;" parent="aB9cYZjxwSpwkbv5Gkb8-305" vertex="1">
          <mxGeometry x="42.85714285714283" y="10" width="17.142857142857142" height="20" as="geometry" />
        </mxCell>
        <mxCell id="aB9cYZjxwSpwkbv5Gkb8-309" value="" style="triangle;whiteSpace=wrap;html=1;fillColor=#FFF2CC;" parent="aB9cYZjxwSpwkbv5Gkb8-305" vertex="1">
          <mxGeometry y="40" width="8.571428571428571" height="10" as="geometry" />
        </mxCell>
        <mxCell id="aB9cYZjxwSpwkbv5Gkb8-310" value="" style="group" parent="1" vertex="1" connectable="0">
          <mxGeometry x="670" y="370" width="60" height="60" as="geometry" />
        </mxCell>
        <mxCell id="aB9cYZjxwSpwkbv5Gkb8-311" value="" style="group;fillColor=#fff2cc;strokeColor=#000000;container=0;" parent="aB9cYZjxwSpwkbv5Gkb8-310" vertex="1" connectable="0">
          <mxGeometry width="60" height="60" as="geometry" />
        </mxCell>
        <mxCell id="aB9cYZjxwSpwkbv5Gkb8-312" value="D" style="text;html=1;strokeColor=none;fillColor=none;align=center;verticalAlign=middle;whiteSpace=wrap;rounded=0;" parent="aB9cYZjxwSpwkbv5Gkb8-310" vertex="1">
          <mxGeometry y="10" width="17.142857142857142" height="20" as="geometry" />
        </mxCell>
        <mxCell id="aB9cYZjxwSpwkbv5Gkb8-313" value="Q" style="text;html=1;strokeColor=none;fillColor=none;align=center;verticalAlign=middle;whiteSpace=wrap;rounded=0;" parent="aB9cYZjxwSpwkbv5Gkb8-310" vertex="1">
          <mxGeometry x="42.85714285714283" y="10" width="17.142857142857142" height="20" as="geometry" />
        </mxCell>
        <mxCell id="aB9cYZjxwSpwkbv5Gkb8-314" value="" style="triangle;whiteSpace=wrap;html=1;fillColor=#FFF2CC;" parent="aB9cYZjxwSpwkbv5Gkb8-310" vertex="1">
          <mxGeometry y="40" width="8.571428571428571" height="10" as="geometry" />
        </mxCell>
        <mxCell id="aB9cYZjxwSpwkbv5Gkb8-315" value="" style="group" parent="1" vertex="1" connectable="0">
          <mxGeometry x="790" y="370" width="60" height="60" as="geometry" />
        </mxCell>
        <mxCell id="aB9cYZjxwSpwkbv5Gkb8-316" value="" style="group;fillColor=#fff2cc;strokeColor=#000000;container=0;" parent="aB9cYZjxwSpwkbv5Gkb8-315" vertex="1" connectable="0">
          <mxGeometry width="60" height="60" as="geometry" />
        </mxCell>
        <mxCell id="aB9cYZjxwSpwkbv5Gkb8-317" value="D" style="text;html=1;strokeColor=none;fillColor=none;align=center;verticalAlign=middle;whiteSpace=wrap;rounded=0;" parent="aB9cYZjxwSpwkbv5Gkb8-315" vertex="1">
          <mxGeometry y="10" width="17.142857142857142" height="20" as="geometry" />
        </mxCell>
        <mxCell id="aB9cYZjxwSpwkbv5Gkb8-318" value="Q" style="text;html=1;strokeColor=none;fillColor=none;align=center;verticalAlign=middle;whiteSpace=wrap;rounded=0;" parent="aB9cYZjxwSpwkbv5Gkb8-315" vertex="1">
          <mxGeometry x="42.85714285714283" y="10" width="17.142857142857142" height="20" as="geometry" />
        </mxCell>
        <mxCell id="aB9cYZjxwSpwkbv5Gkb8-319" value="" style="triangle;whiteSpace=wrap;html=1;fillColor=#FFF2CC;" parent="aB9cYZjxwSpwkbv5Gkb8-315" vertex="1">
          <mxGeometry y="40" width="8.571428571428571" height="10" as="geometry" />
        </mxCell>
        <mxCell id="aB9cYZjxwSpwkbv5Gkb8-348" value="" style="group" parent="1" vertex="1" connectable="0">
          <mxGeometry x="510" y="455" width="20" height="20" as="geometry" />
        </mxCell>
        <mxCell id="aB9cYZjxwSpwkbv5Gkb8-349" value="" style="ellipse;whiteSpace=wrap;html=1;aspect=fixed;" parent="aB9cYZjxwSpwkbv5Gkb8-348" vertex="1">
          <mxGeometry width="20" height="20" as="geometry" />
        </mxCell>
        <mxCell id="aB9cYZjxwSpwkbv5Gkb8-350" value="" style="endArrow=none;html=1;rounded=0;" parent="aB9cYZjxwSpwkbv5Gkb8-348" edge="1">
          <mxGeometry width="50" height="50" relative="1" as="geometry">
            <mxPoint y="10" as="sourcePoint" />
            <mxPoint x="20" y="10" as="targetPoint" />
          </mxGeometry>
        </mxCell>
        <mxCell id="aB9cYZjxwSpwkbv5Gkb8-351" value="" style="endArrow=none;html=1;rounded=0;" parent="aB9cYZjxwSpwkbv5Gkb8-348" edge="1">
          <mxGeometry width="50" height="50" relative="1" as="geometry">
            <mxPoint x="9.889999999999986" y="20" as="sourcePoint" />
            <mxPoint x="9.889999999999986" as="targetPoint" />
          </mxGeometry>
        </mxCell>
        <mxCell id="aB9cYZjxwSpwkbv5Gkb8-357" style="edgeStyle=orthogonalEdgeStyle;rounded=0;orthogonalLoop=1;jettySize=auto;html=1;exitX=0.5;exitY=1;exitDx=0;exitDy=0;endArrow=block;endFill=1;" parent="1" source="aB9cYZjxwSpwkbv5Gkb8-200" edge="1">
          <mxGeometry relative="1" as="geometry">
            <mxPoint x="520.0384615384615" y="455" as="targetPoint" />
          </mxGeometry>
        </mxCell>
        <mxCell id="aB9cYZjxwSpwkbv5Gkb8-358" style="edgeStyle=orthogonalEdgeStyle;rounded=0;orthogonalLoop=1;jettySize=auto;html=1;exitX=0;exitY=0.5;exitDx=0;exitDy=0;entryX=0;entryY=0.5;entryDx=0;entryDy=0;endArrow=block;endFill=1;" parent="1" source="aB9cYZjxwSpwkbv5Gkb8-349" target="aB9cYZjxwSpwkbv5Gkb8-307" edge="1">
          <mxGeometry relative="1" as="geometry">
            <mxPoint x="300" y="465" as="targetPoint" />
            <Array as="points">
              <mxPoint x="270" y="465" />
              <mxPoint x="270" y="390" />
            </Array>
          </mxGeometry>
        </mxCell>
      </root>
    </mxGraphModel>
  </diagram>
  <diagram id="_mYCsiNR5144is5mp0-k" name="StateLFSR">
    <mxGraphModel dx="1115" dy="600" grid="1" gridSize="1" guides="1" tooltips="1" connect="1" arrows="1" fold="1" page="1" pageScale="1" pageWidth="1169" pageHeight="827" math="1" shadow="0">
      <root>
        <mxCell id="0" />
        <mxCell id="1" parent="0" />
        <mxCell id="wqs6D4nd72lRVymGC39_-14" style="edgeStyle=orthogonalEdgeStyle;rounded=0;orthogonalLoop=1;jettySize=auto;html=1;exitX=1;exitY=0.5;exitDx=0;exitDy=0;entryX=0;entryY=0.5;entryDx=0;entryDy=0;strokeColor=#7D7D7D;endArrow=none;endFill=0;" parent="1" source="gICgKKz3k0GT-fjwzHGg-4" target="gICgKKz3k0GT-fjwzHGg-33" edge="1">
          <mxGeometry relative="1" as="geometry" />
        </mxCell>
        <mxCell id="wqs6D4nd72lRVymGC39_-15" style="edgeStyle=orthogonalEdgeStyle;rounded=0;orthogonalLoop=1;jettySize=auto;html=1;exitX=0.5;exitY=0;exitDx=0;exitDy=0;entryX=0;entryY=0.5;entryDx=0;entryDy=0;endArrow=none;endFill=0;strokeColor=#7D7D7D;" parent="1" source="gICgKKz3k0GT-fjwzHGg-4" target="gICgKKz3k0GT-fjwzHGg-95" edge="1">
          <mxGeometry relative="1" as="geometry">
            <Array as="points">
              <mxPoint x="439" y="555" />
              <mxPoint x="439" y="535" />
            </Array>
          </mxGeometry>
        </mxCell>
        <mxCell id="wqs6D4nd72lRVymGC39_-17" style="edgeStyle=orthogonalEdgeStyle;rounded=0;orthogonalLoop=1;jettySize=auto;html=1;exitX=0;exitY=0.5;exitDx=0;exitDy=0;entryX=1;entryY=0.5;entryDx=0;entryDy=0;endArrow=none;endFill=0;strokeColor=#7D7D7D;" parent="1" source="gICgKKz3k0GT-fjwzHGg-4" target="wqs6D4nd72lRVymGC39_-16" edge="1">
          <mxGeometry relative="1" as="geometry" />
        </mxCell>
        <mxCell id="gICgKKz3k0GT-fjwzHGg-4" value="" style="ellipse;whiteSpace=wrap;html=1;aspect=fixed;fillColor=#7D7D7D;strokeColor=none;" parent="1" vertex="1">
          <mxGeometry x="436" y="555" width="7" height="7" as="geometry" />
        </mxCell>
        <mxCell id="YGGX7V-3ty3n0Z4byzEc-1" style="edgeStyle=orthogonalEdgeStyle;rounded=0;orthogonalLoop=1;jettySize=auto;html=1;exitX=0.5;exitY=0;exitDx=0;exitDy=0;entryX=0;entryY=0.5;entryDx=0;entryDy=0;strokeColor=#7D7D7D;endArrow=none;endFill=0;" parent="1" source="gICgKKz3k0GT-fjwzHGg-6" target="moyA_e1KCzPaDLxjJW3S-28" edge="1">
          <mxGeometry relative="1" as="geometry">
            <Array as="points">
              <mxPoint x="189" y="559" />
            </Array>
          </mxGeometry>
        </mxCell>
        <mxCell id="gICgKKz3k0GT-fjwzHGg-6" value="" style="verticalLabelPosition=bottom;verticalAlign=top;html=1;shape=offPageConnector;rounded=0;size=0.2857142857142857;fillColor=#7D7D7D;strokeColor=none;rotation=-90;" parent="1" vertex="1">
          <mxGeometry x="175" y="554.5" width="6" height="8" as="geometry" />
        </mxCell>
        <mxCell id="gICgKKz3k0GT-fjwzHGg-7" value="$$clock$$" style="text;strokeColor=none;fillColor=none;html=1;fontSize=16;fontStyle=0;verticalAlign=middle;align=center;fontColor=#7D7D7D;" parent="1" vertex="1">
          <mxGeometry x="129" y="550.4999999999998" width="40" height="15.88" as="geometry" />
        </mxCell>
        <mxCell id="gICgKKz3k0GT-fjwzHGg-20" value="$$y[1]$$" style="text;strokeColor=none;fillColor=none;html=1;fontSize=14;fontStyle=0;verticalAlign=middle;align=center;fontColor=#990000;" parent="1" vertex="1">
          <mxGeometry x="1005" y="465" width="40" height="25" as="geometry" />
        </mxCell>
        <mxCell id="gICgKKz3k0GT-fjwzHGg-21" style="edgeStyle=orthogonalEdgeStyle;rounded=0;orthogonalLoop=1;jettySize=auto;html=1;exitX=1;exitY=0.5;exitDx=0;exitDy=0;entryX=0;entryY=0.5;entryDx=0;entryDy=0;endArrow=block;endFill=1;" parent="1" source="gICgKKz3k0GT-fjwzHGg-23" target="gICgKKz3k0GT-fjwzHGg-64" edge="1">
          <mxGeometry relative="1" as="geometry" />
        </mxCell>
        <mxCell id="gICgKKz3k0GT-fjwzHGg-22" style="edgeStyle=orthogonalEdgeStyle;rounded=0;orthogonalLoop=1;jettySize=auto;html=1;exitX=0;exitY=0.5;exitDx=0;exitDy=0;entryX=1;entryY=0.5;entryDx=0;entryDy=0;endArrow=none;endFill=0;" parent="1" source="gICgKKz3k0GT-fjwzHGg-23" target="gICgKKz3k0GT-fjwzHGg-60" edge="1">
          <mxGeometry relative="1" as="geometry" />
        </mxCell>
        <mxCell id="gICgKKz3k0GT-fjwzHGg-23" value="" style="ellipse;whiteSpace=wrap;html=1;aspect=fixed;fillColor=#000000;strokeColor=none;" parent="1" vertex="1">
          <mxGeometry x="1021.5" y="506.5" width="7" height="7" as="geometry" />
        </mxCell>
        <mxCell id="gICgKKz3k0GT-fjwzHGg-24" style="edgeStyle=orthogonalEdgeStyle;rounded=0;orthogonalLoop=1;jettySize=auto;html=1;exitX=0.5;exitY=0;exitDx=0;exitDy=0;entryX=0.5;entryY=0;entryDx=0;entryDy=0;endArrow=none;endFill=0;" parent="1" source="gICgKKz3k0GT-fjwzHGg-25" target="gICgKKz3k0GT-fjwzHGg-23" edge="1">
          <mxGeometry relative="1" as="geometry" />
        </mxCell>
        <mxCell id="gICgKKz3k0GT-fjwzHGg-25" value="" style="verticalLabelPosition=bottom;verticalAlign=top;html=1;shape=offPageConnector;rounded=0;size=0.2857142857142857;fillColor=#000000;strokeColor=none;rotation=-180;" parent="1" vertex="1">
          <mxGeometry x="1022" y="490" width="6" height="8" as="geometry" />
        </mxCell>
        <mxCell id="wqs6D4nd72lRVymGC39_-12" style="edgeStyle=orthogonalEdgeStyle;rounded=0;orthogonalLoop=1;jettySize=auto;html=1;exitX=1;exitY=0.5;exitDx=0;exitDy=0;entryX=0;entryY=0.5;entryDx=0;entryDy=0;endArrow=none;endFill=0;strokeColor=#7D7D7D;" parent="1" source="gICgKKz3k0GT-fjwzHGg-33" target="gICgKKz3k0GT-fjwzHGg-39" edge="1">
          <mxGeometry relative="1" as="geometry" />
        </mxCell>
        <mxCell id="wqs6D4nd72lRVymGC39_-13" style="edgeStyle=orthogonalEdgeStyle;rounded=0;orthogonalLoop=1;jettySize=auto;html=1;exitX=0.5;exitY=0;exitDx=0;exitDy=0;entryX=0;entryY=0.5;entryDx=0;entryDy=0;endArrow=none;endFill=0;strokeColor=#7D7D7D;" parent="1" source="gICgKKz3k0GT-fjwzHGg-33" target="gICgKKz3k0GT-fjwzHGg-89" edge="1">
          <mxGeometry relative="1" as="geometry">
            <Array as="points">
              <mxPoint x="540" y="535" />
            </Array>
          </mxGeometry>
        </mxCell>
        <mxCell id="gICgKKz3k0GT-fjwzHGg-33" value="" style="ellipse;whiteSpace=wrap;html=1;aspect=fixed;fillColor=#7D7D7D;strokeColor=none;" parent="1" vertex="1">
          <mxGeometry x="536" y="554.94" width="7" height="7" as="geometry" />
        </mxCell>
        <mxCell id="gICgKKz3k0GT-fjwzHGg-35" style="edgeStyle=orthogonalEdgeStyle;rounded=0;orthogonalLoop=1;jettySize=auto;html=1;exitX=1;exitY=0.5;exitDx=0;exitDy=0;entryX=0;entryY=0.5;entryDx=0;entryDy=0;endArrow=none;endFill=0;strokeColor=#7D7D7D;" parent="1" source="gICgKKz3k0GT-fjwzHGg-36" target="gICgKKz3k0GT-fjwzHGg-66" edge="1">
          <mxGeometry relative="1" as="geometry">
            <mxPoint x="1035.0000000000014" y="557.94" as="targetPoint" />
            <Array as="points">
              <mxPoint x="1040" y="558" />
              <mxPoint x="1040" y="535" />
            </Array>
          </mxGeometry>
        </mxCell>
        <mxCell id="wqs6D4nd72lRVymGC39_-3" style="edgeStyle=orthogonalEdgeStyle;rounded=0;orthogonalLoop=1;jettySize=auto;html=1;exitX=0.5;exitY=0;exitDx=0;exitDy=0;entryX=0;entryY=0.5;entryDx=0;entryDy=0;endArrow=none;endFill=0;strokeColor=#7D7D7D;" parent="1" source="gICgKKz3k0GT-fjwzHGg-36" target="gICgKKz3k0GT-fjwzHGg-61" edge="1">
          <mxGeometry relative="1" as="geometry">
            <Array as="points">
              <mxPoint x="940" y="555" />
              <mxPoint x="940" y="535" />
            </Array>
          </mxGeometry>
        </mxCell>
        <mxCell id="gICgKKz3k0GT-fjwzHGg-36" value="" style="ellipse;whiteSpace=wrap;html=1;aspect=fixed;fillColor=#7D7D7D;strokeColor=none;" parent="1" vertex="1">
          <mxGeometry x="936" y="554.94" width="7" height="7" as="geometry" />
        </mxCell>
        <mxCell id="wqs6D4nd72lRVymGC39_-10" style="edgeStyle=orthogonalEdgeStyle;rounded=0;orthogonalLoop=1;jettySize=auto;html=1;exitX=1;exitY=0.5;exitDx=0;exitDy=0;entryX=0;entryY=0.5;entryDx=0;entryDy=0;endArrow=none;endFill=0;strokeColor=#7D7D7D;" parent="1" source="gICgKKz3k0GT-fjwzHGg-39" target="moyA_e1KCzPaDLxjJW3S-26" edge="1">
          <mxGeometry relative="1" as="geometry" />
        </mxCell>
        <mxCell id="wqs6D4nd72lRVymGC39_-11" style="edgeStyle=orthogonalEdgeStyle;rounded=0;orthogonalLoop=1;jettySize=auto;html=1;exitX=0.5;exitY=0;exitDx=0;exitDy=0;entryX=0;entryY=0.5;entryDx=0;entryDy=0;endArrow=none;endFill=0;strokeColor=#7D7D7D;" parent="1" source="gICgKKz3k0GT-fjwzHGg-39" target="gICgKKz3k0GT-fjwzHGg-56" edge="1">
          <mxGeometry relative="1" as="geometry">
            <Array as="points">
              <mxPoint x="640" y="535" />
            </Array>
          </mxGeometry>
        </mxCell>
        <mxCell id="gICgKKz3k0GT-fjwzHGg-39" value="" style="ellipse;whiteSpace=wrap;html=1;aspect=fixed;fillColor=#7D7D7D;strokeColor=none;" parent="1" vertex="1">
          <mxGeometry x="636" y="554.94" width="7" height="7" as="geometry" />
        </mxCell>
        <mxCell id="gICgKKz3k0GT-fjwzHGg-41" style="edgeStyle=orthogonalEdgeStyle;rounded=0;orthogonalLoop=1;jettySize=auto;html=1;exitX=1;exitY=0.5;exitDx=0;exitDy=0;endArrow=block;endFill=1;jumpStyle=none;entryX=1;entryY=0.5;entryDx=0;entryDy=0;" parent="1" source="gICgKKz3k0GT-fjwzHGg-65" target="gICgKKz3k0GT-fjwzHGg-68" edge="1">
          <mxGeometry relative="1" as="geometry">
            <mxPoint x="1120.5" y="510" as="sourcePoint" />
            <mxPoint x="810.7471264367816" y="595" as="targetPoint" />
            <Array as="points">
              <mxPoint x="1145" y="510" />
              <mxPoint x="1145" y="585" />
            </Array>
          </mxGeometry>
        </mxCell>
        <mxCell id="gICgKKz3k0GT-fjwzHGg-57" value="" style="group" parent="1" vertex="1" connectable="0">
          <mxGeometry x="945" y="490" width="75" height="60" as="geometry" />
        </mxCell>
        <mxCell id="gICgKKz3k0GT-fjwzHGg-58" value="" style="group;fillColor=#fff2cc;strokeColor=#000000;container=0;" parent="gICgKKz3k0GT-fjwzHGg-57" vertex="1" connectable="0">
          <mxGeometry width="60" height="60" as="geometry" />
        </mxCell>
        <mxCell id="gICgKKz3k0GT-fjwzHGg-59" value="D" style="text;html=1;strokeColor=none;fillColor=none;align=center;verticalAlign=middle;whiteSpace=wrap;rounded=0;" parent="gICgKKz3k0GT-fjwzHGg-57" vertex="1">
          <mxGeometry y="10" width="17.142857142857142" height="20" as="geometry" />
        </mxCell>
        <mxCell id="gICgKKz3k0GT-fjwzHGg-60" value="Q" style="text;html=1;strokeColor=none;fillColor=none;align=center;verticalAlign=middle;whiteSpace=wrap;rounded=0;" parent="gICgKKz3k0GT-fjwzHGg-57" vertex="1">
          <mxGeometry x="42.85714285714283" y="10" width="17.142857142857142" height="20" as="geometry" />
        </mxCell>
        <mxCell id="gICgKKz3k0GT-fjwzHGg-61" value="" style="triangle;whiteSpace=wrap;html=1;fillColor=#FFF2CC;" parent="gICgKKz3k0GT-fjwzHGg-57" vertex="1">
          <mxGeometry y="40" width="8.571428571428571" height="10" as="geometry" />
        </mxCell>
        <mxCell id="gICgKKz3k0GT-fjwzHGg-62" value="" style="group" parent="1" vertex="1" connectable="0">
          <mxGeometry x="1045" y="490" width="60" height="60" as="geometry" />
        </mxCell>
        <mxCell id="gICgKKz3k0GT-fjwzHGg-63" value="" style="group;fillColor=#fff2cc;strokeColor=#000000;container=0;" parent="gICgKKz3k0GT-fjwzHGg-62" vertex="1" connectable="0">
          <mxGeometry width="60" height="60" as="geometry" />
        </mxCell>
        <mxCell id="gICgKKz3k0GT-fjwzHGg-64" value="D" style="text;html=1;strokeColor=none;fillColor=none;align=center;verticalAlign=middle;whiteSpace=wrap;rounded=0;" parent="gICgKKz3k0GT-fjwzHGg-62" vertex="1">
          <mxGeometry y="10" width="17.142857142857142" height="20" as="geometry" />
        </mxCell>
        <mxCell id="gICgKKz3k0GT-fjwzHGg-65" value="Q" style="text;html=1;strokeColor=none;fillColor=none;align=center;verticalAlign=middle;whiteSpace=wrap;rounded=0;" parent="gICgKKz3k0GT-fjwzHGg-62" vertex="1">
          <mxGeometry x="42.85714285714283" y="10" width="17.142857142857142" height="20" as="geometry" />
        </mxCell>
        <mxCell id="gICgKKz3k0GT-fjwzHGg-66" value="" style="triangle;whiteSpace=wrap;html=1;fillColor=#FFF2CC;" parent="gICgKKz3k0GT-fjwzHGg-62" vertex="1">
          <mxGeometry y="40" width="8.571428571428571" height="10" as="geometry" />
        </mxCell>
        <mxCell id="gICgKKz3k0GT-fjwzHGg-67" value="" style="group" parent="1" vertex="1" connectable="0">
          <mxGeometry x="1015" y="575" width="20" height="20" as="geometry" />
        </mxCell>
        <mxCell id="gICgKKz3k0GT-fjwzHGg-68" value="" style="ellipse;whiteSpace=wrap;html=1;aspect=fixed;" parent="gICgKKz3k0GT-fjwzHGg-67" vertex="1">
          <mxGeometry width="20" height="20" as="geometry" />
        </mxCell>
        <mxCell id="gICgKKz3k0GT-fjwzHGg-69" value="" style="endArrow=none;html=1;rounded=0;" parent="gICgKKz3k0GT-fjwzHGg-67" edge="1">
          <mxGeometry width="50" height="50" relative="1" as="geometry">
            <mxPoint y="10" as="sourcePoint" />
            <mxPoint x="20" y="10" as="targetPoint" />
          </mxGeometry>
        </mxCell>
        <mxCell id="gICgKKz3k0GT-fjwzHGg-70" value="" style="endArrow=none;html=1;rounded=0;" parent="gICgKKz3k0GT-fjwzHGg-67" edge="1">
          <mxGeometry width="50" height="50" relative="1" as="geometry">
            <mxPoint x="9.889999999999986" y="20" as="sourcePoint" />
            <mxPoint x="9.889999999999986" as="targetPoint" />
          </mxGeometry>
        </mxCell>
        <mxCell id="gICgKKz3k0GT-fjwzHGg-75" value="$$y[0]$$" style="text;strokeColor=none;fillColor=none;html=1;fontSize=14;fontStyle=0;verticalAlign=middle;align=center;fontColor=#000000;" parent="1" vertex="1">
          <mxGeometry x="1105" y="485" width="40" height="25" as="geometry" />
        </mxCell>
        <mxCell id="gICgKKz3k0GT-fjwzHGg-79" value="$$y[2]$$" style="text;strokeColor=none;fillColor=none;html=1;fontSize=14;fontStyle=0;verticalAlign=middle;align=center;fontColor=#000000;" parent="1" vertex="1">
          <mxGeometry x="905" y="477.5" width="40" height="25" as="geometry" />
        </mxCell>
        <mxCell id="gICgKKz3k0GT-fjwzHGg-80" style="edgeStyle=orthogonalEdgeStyle;rounded=0;orthogonalLoop=1;jettySize=auto;html=1;exitX=0;exitY=0.5;exitDx=0;exitDy=0;entryX=1;entryY=0.5;entryDx=0;entryDy=0;endArrow=none;endFill=0;startArrow=block;startFill=1;" parent="1" source="gICgKKz3k0GT-fjwzHGg-44" target="gICgKKz3k0GT-fjwzHGg-50" edge="1">
          <mxGeometry relative="1" as="geometry" />
        </mxCell>
        <mxCell id="gICgKKz3k0GT-fjwzHGg-81" value="$$y[3]$$" style="text;strokeColor=none;fillColor=none;html=1;fontSize=14;fontStyle=0;verticalAlign=middle;align=center;fontColor=#000000;" parent="1" vertex="1">
          <mxGeometry x="805" y="477.5" width="40" height="25" as="geometry" />
        </mxCell>
        <mxCell id="gICgKKz3k0GT-fjwzHGg-82" style="edgeStyle=orthogonalEdgeStyle;rounded=0;orthogonalLoop=1;jettySize=auto;html=1;exitX=1;exitY=0.5;exitDx=0;exitDy=0;entryX=0;entryY=0.5;entryDx=0;entryDy=0;endArrow=block;endFill=1;startArrow=none;startFill=0;" parent="1" source="gICgKKz3k0GT-fjwzHGg-55" target="gICgKKz3k0GT-fjwzHGg-49" edge="1">
          <mxGeometry relative="1" as="geometry" />
        </mxCell>
        <mxCell id="gICgKKz3k0GT-fjwzHGg-83" value="$$y[4]$$" style="text;strokeColor=none;fillColor=none;html=1;fontSize=14;fontStyle=0;verticalAlign=middle;align=center;fontColor=#000000;" parent="1" vertex="1">
          <mxGeometry x="705" y="477.5" width="40" height="25" as="geometry" />
        </mxCell>
        <mxCell id="gICgKKz3k0GT-fjwzHGg-85" value="" style="group" parent="1" vertex="1" connectable="0">
          <mxGeometry x="545" y="490" width="60" height="60" as="geometry" />
        </mxCell>
        <mxCell id="gICgKKz3k0GT-fjwzHGg-86" value="" style="group;fillColor=#fff2cc;strokeColor=#000000;container=0;" parent="gICgKKz3k0GT-fjwzHGg-85" vertex="1" connectable="0">
          <mxGeometry width="60" height="60" as="geometry" />
        </mxCell>
        <mxCell id="gICgKKz3k0GT-fjwzHGg-87" value="D" style="text;html=1;strokeColor=none;fillColor=none;align=center;verticalAlign=middle;whiteSpace=wrap;rounded=0;" parent="gICgKKz3k0GT-fjwzHGg-85" vertex="1">
          <mxGeometry y="10" width="17.142857142857142" height="20" as="geometry" />
        </mxCell>
        <mxCell id="gICgKKz3k0GT-fjwzHGg-88" value="Q" style="text;html=1;strokeColor=none;fillColor=none;align=center;verticalAlign=middle;whiteSpace=wrap;rounded=0;" parent="gICgKKz3k0GT-fjwzHGg-85" vertex="1">
          <mxGeometry x="42.85714285714283" y="10" width="17.142857142857142" height="20" as="geometry" />
        </mxCell>
        <mxCell id="gICgKKz3k0GT-fjwzHGg-89" value="" style="triangle;whiteSpace=wrap;html=1;fillColor=#FFF2CC;" parent="gICgKKz3k0GT-fjwzHGg-85" vertex="1">
          <mxGeometry y="40" width="8.571428571428571" height="10" as="geometry" />
        </mxCell>
        <mxCell id="gICgKKz3k0GT-fjwzHGg-91" value="" style="group" parent="1" vertex="1" connectable="0">
          <mxGeometry x="445" y="490" width="60" height="60" as="geometry" />
        </mxCell>
        <mxCell id="gICgKKz3k0GT-fjwzHGg-92" value="" style="group;fillColor=#fff2cc;strokeColor=#000000;container=0;" parent="gICgKKz3k0GT-fjwzHGg-91" vertex="1" connectable="0">
          <mxGeometry width="60" height="60" as="geometry" />
        </mxCell>
        <mxCell id="gICgKKz3k0GT-fjwzHGg-93" value="D" style="text;html=1;strokeColor=none;fillColor=none;align=center;verticalAlign=middle;whiteSpace=wrap;rounded=0;" parent="gICgKKz3k0GT-fjwzHGg-91" vertex="1">
          <mxGeometry y="10" width="17.142857142857142" height="20" as="geometry" />
        </mxCell>
        <mxCell id="gICgKKz3k0GT-fjwzHGg-94" value="Q" style="text;html=1;strokeColor=none;fillColor=none;align=center;verticalAlign=middle;whiteSpace=wrap;rounded=0;" parent="gICgKKz3k0GT-fjwzHGg-91" vertex="1">
          <mxGeometry x="42.85714285714283" y="10" width="17.142857142857142" height="20" as="geometry" />
        </mxCell>
        <mxCell id="gICgKKz3k0GT-fjwzHGg-95" value="" style="triangle;whiteSpace=wrap;html=1;fillColor=#FFF2CC;" parent="gICgKKz3k0GT-fjwzHGg-91" vertex="1">
          <mxGeometry y="40" width="8.571428571428571" height="10" as="geometry" />
        </mxCell>
        <mxCell id="gICgKKz3k0GT-fjwzHGg-96" style="edgeStyle=orthogonalEdgeStyle;rounded=0;orthogonalLoop=1;jettySize=auto;html=1;exitX=0;exitY=0.5;exitDx=0;exitDy=0;endArrow=none;endFill=0;startArrow=block;startFill=1;" parent="1" source="gICgKKz3k0GT-fjwzHGg-54" target="gICgKKz3k0GT-fjwzHGg-88" edge="1">
          <mxGeometry relative="1" as="geometry" />
        </mxCell>
        <mxCell id="gICgKKz3k0GT-fjwzHGg-97" value="$$y[5]$$" style="text;strokeColor=none;fillColor=none;html=1;fontSize=14;fontStyle=0;verticalAlign=middle;align=center;fontColor=#000000;" parent="1" vertex="1">
          <mxGeometry x="605" y="477.5" width="40" height="25" as="geometry" />
        </mxCell>
        <mxCell id="gICgKKz3k0GT-fjwzHGg-98" style="edgeStyle=orthogonalEdgeStyle;rounded=0;orthogonalLoop=1;jettySize=auto;html=1;exitX=0;exitY=0.5;exitDx=0;exitDy=0;entryX=1;entryY=0.5;entryDx=0;entryDy=0;endArrow=none;endFill=0;" parent="1" source="moyA_e1KCzPaDLxjJW3S-9" target="gICgKKz3k0GT-fjwzHGg-94" edge="1">
          <mxGeometry relative="1" as="geometry" />
        </mxCell>
        <mxCell id="gICgKKz3k0GT-fjwzHGg-99" value="$$y[6]$$" style="text;strokeColor=none;fillColor=none;html=1;fontSize=14;fontStyle=0;verticalAlign=middle;align=center;fontColor=#000000;" parent="1" vertex="1">
          <mxGeometry x="505" y="477.5" width="40" height="25" as="geometry" />
        </mxCell>
        <mxCell id="oyDpr8vzRDp8f3kbOQW7-12" style="edgeStyle=orthogonalEdgeStyle;rounded=0;orthogonalLoop=1;jettySize=auto;html=1;exitX=0;exitY=0.5;exitDx=0;exitDy=0;entryX=1;entryY=0.5;entryDx=0;entryDy=0;endArrow=none;endFill=0;" parent="1" source="oyDpr8vzRDp8f3kbOQW7-8" target="gICgKKz3k0GT-fjwzHGg-106" edge="1">
          <mxGeometry relative="1" as="geometry" />
        </mxCell>
        <mxCell id="oyDpr8vzRDp8f3kbOQW7-8" value="..." style="text;strokeColor=none;fillColor=none;html=1;fontSize=21;fontStyle=0;verticalAlign=bottom;align=center;fontColor=#000000;" parent="1" vertex="1">
          <mxGeometry x="390" y="502.5" width="30" height="15" as="geometry" />
        </mxCell>
        <mxCell id="oyDpr8vzRDp8f3kbOQW7-11" style="edgeStyle=orthogonalEdgeStyle;rounded=0;orthogonalLoop=1;jettySize=auto;html=1;exitX=0;exitY=0.5;exitDx=0;exitDy=0;entryX=1;entryY=0.5;entryDx=0;entryDy=0;endArrow=none;endFill=0;" parent="1" source="gICgKKz3k0GT-fjwzHGg-93" target="oyDpr8vzRDp8f3kbOQW7-8" edge="1">
          <mxGeometry relative="1" as="geometry" />
        </mxCell>
        <mxCell id="oyDpr8vzRDp8f3kbOQW7-14" style="edgeStyle=orthogonalEdgeStyle;rounded=0;orthogonalLoop=1;jettySize=auto;html=1;exitX=1;exitY=0.5;exitDx=0;exitDy=0;entryX=0;entryY=0.5;entryDx=0;entryDy=0;endArrow=none;endFill=0;" parent="1" source="oyDpr8vzRDp8f3kbOQW7-5" target="gICgKKz3k0GT-fjwzHGg-105" edge="1">
          <mxGeometry relative="1" as="geometry" />
        </mxCell>
        <mxCell id="5qrmrm0be3CwfcKIugQn-1" value="$$y[24\mbox{ - }7]$$" style="text;strokeColor=none;fillColor=none;html=1;fontSize=14;fontStyle=0;verticalAlign=middle;align=center;fontColor=#000000;" parent="1" vertex="1">
          <mxGeometry x="365" y="477.5" width="80" height="25" as="geometry" />
        </mxCell>
        <mxCell id="5qrmrm0be3CwfcKIugQn-2" value="$$y[25]$$" style="text;strokeColor=none;fillColor=none;html=1;fontSize=14;fontStyle=0;verticalAlign=middle;align=center;fontColor=#000000;" parent="1" vertex="1">
          <mxGeometry x="265" y="477.5" width="40" height="25" as="geometry" />
        </mxCell>
        <mxCell id="moyA_e1KCzPaDLxjJW3S-2" style="edgeStyle=orthogonalEdgeStyle;rounded=0;orthogonalLoop=1;jettySize=auto;html=1;exitX=1;exitY=0.5;exitDx=0;exitDy=0;entryX=0;entryY=0.5;entryDx=0;entryDy=0;endArrow=block;endFill=1;" parent="1" source="6RjIjHugmdgfeSleBndC-3" target="gICgKKz3k0GT-fjwzHGg-59" edge="1">
          <mxGeometry relative="1" as="geometry" />
        </mxCell>
        <mxCell id="6RjIjHugmdgfeSleBndC-3" value="" style="ellipse;whiteSpace=wrap;html=1;aspect=fixed;fillColor=#000000;strokeColor=none;" parent="1" vertex="1">
          <mxGeometry x="921.5" y="506.5" width="7" height="7" as="geometry" />
        </mxCell>
        <mxCell id="moyA_e1KCzPaDLxjJW3S-1" style="edgeStyle=orthogonalEdgeStyle;rounded=0;orthogonalLoop=1;jettySize=auto;html=1;exitX=1;exitY=0.5;exitDx=0;exitDy=0;entryX=0;entryY=0.5;entryDx=0;entryDy=0;endArrow=none;endFill=0;" parent="1" source="gICgKKz3k0GT-fjwzHGg-45" target="6RjIjHugmdgfeSleBndC-3" edge="1">
          <mxGeometry relative="1" as="geometry" />
        </mxCell>
        <mxCell id="moyA_e1KCzPaDLxjJW3S-3" value="" style="group" parent="1" vertex="1" connectable="0">
          <mxGeometry x="915" y="575" width="20" height="20" as="geometry" />
        </mxCell>
        <mxCell id="moyA_e1KCzPaDLxjJW3S-4" value="" style="ellipse;whiteSpace=wrap;html=1;aspect=fixed;" parent="moyA_e1KCzPaDLxjJW3S-3" vertex="1">
          <mxGeometry width="20" height="20" as="geometry" />
        </mxCell>
        <mxCell id="moyA_e1KCzPaDLxjJW3S-5" value="" style="endArrow=none;html=1;rounded=0;" parent="moyA_e1KCzPaDLxjJW3S-3" edge="1">
          <mxGeometry width="50" height="50" relative="1" as="geometry">
            <mxPoint y="10" as="sourcePoint" />
            <mxPoint x="20" y="10" as="targetPoint" />
          </mxGeometry>
        </mxCell>
        <mxCell id="moyA_e1KCzPaDLxjJW3S-6" value="" style="endArrow=none;html=1;rounded=0;" parent="moyA_e1KCzPaDLxjJW3S-3" edge="1">
          <mxGeometry width="50" height="50" relative="1" as="geometry">
            <mxPoint x="9.889999999999986" y="20" as="sourcePoint" />
            <mxPoint x="9.889999999999986" as="targetPoint" />
          </mxGeometry>
        </mxCell>
        <mxCell id="moyA_e1KCzPaDLxjJW3S-11" style="edgeStyle=orthogonalEdgeStyle;rounded=0;orthogonalLoop=1;jettySize=auto;html=1;exitX=1;exitY=0.5;exitDx=0;exitDy=0;entryX=0;entryY=0.5;entryDx=0;entryDy=0;endArrow=block;endFill=1;" parent="1" source="moyA_e1KCzPaDLxjJW3S-9" target="gICgKKz3k0GT-fjwzHGg-87" edge="1">
          <mxGeometry relative="1" as="geometry" />
        </mxCell>
        <mxCell id="moyA_e1KCzPaDLxjJW3S-20" style="edgeStyle=orthogonalEdgeStyle;rounded=0;orthogonalLoop=1;jettySize=auto;html=1;exitX=0.5;exitY=1;exitDx=0;exitDy=0;entryX=0.5;entryY=0;entryDx=0;entryDy=0;endArrow=block;endFill=1;" parent="1" source="moyA_e1KCzPaDLxjJW3S-9" target="moyA_e1KCzPaDLxjJW3S-17" edge="1">
          <mxGeometry relative="1" as="geometry" />
        </mxCell>
        <mxCell id="moyA_e1KCzPaDLxjJW3S-9" value="" style="ellipse;whiteSpace=wrap;html=1;aspect=fixed;fillColor=#000000;strokeColor=none;" parent="1" vertex="1">
          <mxGeometry x="521.5" y="506.5" width="7" height="7" as="geometry" />
        </mxCell>
        <mxCell id="moyA_e1KCzPaDLxjJW3S-16" value="" style="group" parent="1" vertex="1" connectable="0">
          <mxGeometry x="515" y="575" width="20" height="20" as="geometry" />
        </mxCell>
        <mxCell id="moyA_e1KCzPaDLxjJW3S-17" value="" style="ellipse;whiteSpace=wrap;html=1;aspect=fixed;" parent="moyA_e1KCzPaDLxjJW3S-16" vertex="1">
          <mxGeometry width="20" height="20" as="geometry" />
        </mxCell>
        <mxCell id="moyA_e1KCzPaDLxjJW3S-18" value="" style="endArrow=none;html=1;rounded=0;" parent="moyA_e1KCzPaDLxjJW3S-16" edge="1">
          <mxGeometry width="50" height="50" relative="1" as="geometry">
            <mxPoint y="10" as="sourcePoint" />
            <mxPoint x="20" y="10" as="targetPoint" />
          </mxGeometry>
        </mxCell>
        <mxCell id="moyA_e1KCzPaDLxjJW3S-19" value="" style="endArrow=none;html=1;rounded=0;" parent="moyA_e1KCzPaDLxjJW3S-16" edge="1">
          <mxGeometry width="50" height="50" relative="1" as="geometry">
            <mxPoint x="9.889999999999986" y="20" as="sourcePoint" />
            <mxPoint x="9.889999999999986" as="targetPoint" />
          </mxGeometry>
        </mxCell>
        <mxCell id="moyA_e1KCzPaDLxjJW3S-21" style="edgeStyle=orthogonalEdgeStyle;rounded=0;orthogonalLoop=1;jettySize=auto;html=1;exitX=0;exitY=0.5;exitDx=0;exitDy=0;entryX=1;entryY=0.5;entryDx=0;entryDy=0;endArrow=block;endFill=1;" parent="1" source="moyA_e1KCzPaDLxjJW3S-4" target="moyA_e1KCzPaDLxjJW3S-17" edge="1">
          <mxGeometry relative="1" as="geometry">
            <mxPoint x="527.3372395833334" y="584.9885057471265" as="targetPoint" />
          </mxGeometry>
        </mxCell>
        <mxCell id="moyA_e1KCzPaDLxjJW3S-22" style="edgeStyle=orthogonalEdgeStyle;rounded=0;orthogonalLoop=1;jettySize=auto;html=1;exitX=0;exitY=0.5;exitDx=0;exitDy=0;entryX=1;entryY=0.5;entryDx=0;entryDy=0;endArrow=block;endFill=1;" parent="1" source="gICgKKz3k0GT-fjwzHGg-68" target="moyA_e1KCzPaDLxjJW3S-4" edge="1">
          <mxGeometry relative="1" as="geometry" />
        </mxCell>
        <mxCell id="6RjIjHugmdgfeSleBndC-2" style="edgeStyle=orthogonalEdgeStyle;rounded=0;orthogonalLoop=1;jettySize=auto;html=1;exitX=0.5;exitY=1;exitDx=0;exitDy=0;entryX=0.5;entryY=0;entryDx=0;entryDy=0;endArrow=block;endFill=1;" parent="1" source="gICgKKz3k0GT-fjwzHGg-23" target="gICgKKz3k0GT-fjwzHGg-68" edge="1">
          <mxGeometry relative="1" as="geometry" />
        </mxCell>
        <mxCell id="moyA_e1KCzPaDLxjJW3S-23" style="edgeStyle=orthogonalEdgeStyle;rounded=0;orthogonalLoop=1;jettySize=auto;html=1;exitX=0;exitY=0.5;exitDx=0;exitDy=0;entryX=0;entryY=0.5;entryDx=0;entryDy=0;endArrow=block;endFill=1;" parent="1" source="moyA_e1KCzPaDLxjJW3S-17" target="oyDpr8vzRDp8f3kbOQW7-4" edge="1">
          <mxGeometry relative="1" as="geometry" />
        </mxCell>
        <mxCell id="wqs6D4nd72lRVymGC39_-6" style="edgeStyle=orthogonalEdgeStyle;rounded=0;orthogonalLoop=1;jettySize=auto;html=1;exitX=0.5;exitY=0;exitDx=0;exitDy=0;entryX=0;entryY=0.5;entryDx=0;entryDy=0;endArrow=none;endFill=0;strokeColor=#7D7D7D;" parent="1" source="moyA_e1KCzPaDLxjJW3S-24" target="gICgKKz3k0GT-fjwzHGg-46" edge="1">
          <mxGeometry relative="1" as="geometry">
            <Array as="points">
              <mxPoint x="840" y="535" />
            </Array>
          </mxGeometry>
        </mxCell>
        <mxCell id="wqs6D4nd72lRVymGC39_-7" style="edgeStyle=orthogonalEdgeStyle;rounded=0;orthogonalLoop=1;jettySize=auto;html=1;exitX=1;exitY=0.5;exitDx=0;exitDy=0;entryX=0;entryY=0.5;entryDx=0;entryDy=0;endArrow=none;endFill=0;strokeColor=#7D7D7D;" parent="1" source="moyA_e1KCzPaDLxjJW3S-24" target="gICgKKz3k0GT-fjwzHGg-36" edge="1">
          <mxGeometry relative="1" as="geometry" />
        </mxCell>
        <mxCell id="moyA_e1KCzPaDLxjJW3S-24" value="" style="ellipse;whiteSpace=wrap;html=1;aspect=fixed;fillColor=#7D7D7D;strokeColor=none;" parent="1" vertex="1">
          <mxGeometry x="836" y="555" width="7" height="7" as="geometry" />
        </mxCell>
        <mxCell id="wqs6D4nd72lRVymGC39_-8" style="edgeStyle=orthogonalEdgeStyle;rounded=0;orthogonalLoop=1;jettySize=auto;html=1;exitX=1;exitY=0.5;exitDx=0;exitDy=0;entryX=0;entryY=0.5;entryDx=0;entryDy=0;endArrow=none;endFill=0;strokeColor=#7D7D7D;" parent="1" source="moyA_e1KCzPaDLxjJW3S-26" target="moyA_e1KCzPaDLxjJW3S-24" edge="1">
          <mxGeometry relative="1" as="geometry" />
        </mxCell>
        <mxCell id="wqs6D4nd72lRVymGC39_-9" style="edgeStyle=orthogonalEdgeStyle;rounded=0;orthogonalLoop=1;jettySize=auto;html=1;exitX=0.5;exitY=0;exitDx=0;exitDy=0;entryX=0;entryY=0.5;entryDx=0;entryDy=0;endArrow=none;endFill=0;strokeColor=#7D7D7D;" parent="1" source="moyA_e1KCzPaDLxjJW3S-26" target="gICgKKz3k0GT-fjwzHGg-51" edge="1">
          <mxGeometry relative="1" as="geometry">
            <Array as="points">
              <mxPoint x="740" y="535" />
            </Array>
          </mxGeometry>
        </mxCell>
        <mxCell id="moyA_e1KCzPaDLxjJW3S-26" value="" style="ellipse;whiteSpace=wrap;html=1;aspect=fixed;fillColor=#7D7D7D;strokeColor=none;" parent="1" vertex="1">
          <mxGeometry x="736" y="554.94" width="7" height="7" as="geometry" />
        </mxCell>
        <mxCell id="wqs6D4nd72lRVymGC39_-19" style="edgeStyle=orthogonalEdgeStyle;rounded=0;orthogonalLoop=1;jettySize=auto;html=1;exitX=0.5;exitY=0;exitDx=0;exitDy=0;entryX=0;entryY=0.5;entryDx=0;entryDy=0;endArrow=none;endFill=0;strokeColor=#7D7D7D;" parent="1" source="moyA_e1KCzPaDLxjJW3S-27" target="gICgKKz3k0GT-fjwzHGg-107" edge="1">
          <mxGeometry relative="1" as="geometry">
            <Array as="points">
              <mxPoint x="299" y="555" />
              <mxPoint x="299" y="535" />
            </Array>
          </mxGeometry>
        </mxCell>
        <mxCell id="moyA_e1KCzPaDLxjJW3S-27" value="" style="ellipse;whiteSpace=wrap;html=1;aspect=fixed;fillColor=#7D7D7D;strokeColor=none;" parent="1" vertex="1">
          <mxGeometry x="296" y="554.94" width="7" height="7" as="geometry" />
        </mxCell>
        <mxCell id="wqs6D4nd72lRVymGC39_-21" style="edgeStyle=orthogonalEdgeStyle;rounded=0;orthogonalLoop=1;jettySize=auto;html=1;exitX=1;exitY=0.5;exitDx=0;exitDy=0;entryX=0;entryY=0.5;entryDx=0;entryDy=0;endArrow=none;endFill=0;strokeColor=#7D7D7D;" parent="1" source="moyA_e1KCzPaDLxjJW3S-28" target="moyA_e1KCzPaDLxjJW3S-27" edge="1">
          <mxGeometry relative="1" as="geometry" />
        </mxCell>
        <mxCell id="wqs6D4nd72lRVymGC39_-22" style="edgeStyle=orthogonalEdgeStyle;rounded=0;orthogonalLoop=1;jettySize=auto;html=1;exitX=0.5;exitY=0;exitDx=0;exitDy=0;entryX=0;entryY=0.5;entryDx=0;entryDy=0;endArrow=none;endFill=0;strokeColor=#7D7D7D;" parent="1" source="moyA_e1KCzPaDLxjJW3S-28" target="oyDpr8vzRDp8f3kbOQW7-6" edge="1">
          <mxGeometry relative="1" as="geometry">
            <Array as="points">
              <mxPoint x="199" y="555" />
              <mxPoint x="199" y="535" />
            </Array>
          </mxGeometry>
        </mxCell>
        <mxCell id="moyA_e1KCzPaDLxjJW3S-28" value="" style="ellipse;whiteSpace=wrap;html=1;aspect=fixed;fillColor=#7D7D7D;strokeColor=none;" parent="1" vertex="1">
          <mxGeometry x="196" y="555.0000000000001" width="7" height="7" as="geometry" />
        </mxCell>
        <mxCell id="moyA_e1KCzPaDLxjJW3S-7" style="edgeStyle=orthogonalEdgeStyle;rounded=0;orthogonalLoop=1;jettySize=auto;html=1;exitX=0.5;exitY=1;exitDx=0;exitDy=0;endArrow=block;endFill=1;" parent="1" source="6RjIjHugmdgfeSleBndC-3" edge="1">
          <mxGeometry relative="1" as="geometry">
            <mxPoint x="924.9677419354839" y="575.0000000000001" as="targetPoint" />
          </mxGeometry>
        </mxCell>
        <mxCell id="gICgKKz3k0GT-fjwzHGg-42" value="" style="group" parent="1" vertex="1" connectable="0">
          <mxGeometry x="845" y="490" width="60" height="60" as="geometry" />
        </mxCell>
        <mxCell id="gICgKKz3k0GT-fjwzHGg-43" value="" style="group;fillColor=#fff2cc;strokeColor=#000000;container=0;" parent="gICgKKz3k0GT-fjwzHGg-42" vertex="1" connectable="0">
          <mxGeometry width="60" height="60" as="geometry" />
        </mxCell>
        <mxCell id="gICgKKz3k0GT-fjwzHGg-44" value="D" style="text;html=1;strokeColor=none;fillColor=none;align=center;verticalAlign=middle;whiteSpace=wrap;rounded=0;" parent="gICgKKz3k0GT-fjwzHGg-42" vertex="1">
          <mxGeometry y="10" width="17.142857142857142" height="20" as="geometry" />
        </mxCell>
        <mxCell id="gICgKKz3k0GT-fjwzHGg-45" value="Q" style="text;html=1;strokeColor=none;fillColor=none;align=center;verticalAlign=middle;whiteSpace=wrap;rounded=0;" parent="gICgKKz3k0GT-fjwzHGg-42" vertex="1">
          <mxGeometry x="42.85714285714283" y="10" width="17.142857142857142" height="20" as="geometry" />
        </mxCell>
        <mxCell id="gICgKKz3k0GT-fjwzHGg-46" value="" style="triangle;whiteSpace=wrap;html=1;fillColor=#FFF2CC;" parent="gICgKKz3k0GT-fjwzHGg-42" vertex="1">
          <mxGeometry y="40" width="8.571428571428571" height="10" as="geometry" />
        </mxCell>
        <mxCell id="gICgKKz3k0GT-fjwzHGg-47" value="" style="group" parent="1" vertex="1" connectable="0">
          <mxGeometry x="745" y="490" width="60" height="62" as="geometry" />
        </mxCell>
        <mxCell id="gICgKKz3k0GT-fjwzHGg-48" value="" style="group;fillColor=#fff2cc;strokeColor=#000000;container=0;" parent="gICgKKz3k0GT-fjwzHGg-47" vertex="1" connectable="0">
          <mxGeometry width="60" height="60" as="geometry" />
        </mxCell>
        <mxCell id="gICgKKz3k0GT-fjwzHGg-49" value="D" style="text;html=1;strokeColor=none;fillColor=none;align=center;verticalAlign=middle;whiteSpace=wrap;rounded=0;" parent="gICgKKz3k0GT-fjwzHGg-47" vertex="1">
          <mxGeometry y="10" width="17.142857142857142" height="20" as="geometry" />
        </mxCell>
        <mxCell id="gICgKKz3k0GT-fjwzHGg-50" value="Q" style="text;html=1;strokeColor=none;fillColor=none;align=center;verticalAlign=middle;whiteSpace=wrap;rounded=0;" parent="gICgKKz3k0GT-fjwzHGg-47" vertex="1">
          <mxGeometry x="42.85714285714283" y="10" width="17.142857142857142" height="20" as="geometry" />
        </mxCell>
        <mxCell id="gICgKKz3k0GT-fjwzHGg-51" value="" style="triangle;whiteSpace=wrap;html=1;fillColor=#FFF2CC;" parent="gICgKKz3k0GT-fjwzHGg-47" vertex="1">
          <mxGeometry y="40" width="8.571428571428571" height="10" as="geometry" />
        </mxCell>
        <mxCell id="gICgKKz3k0GT-fjwzHGg-52" value="" style="group" parent="1" vertex="1" connectable="0">
          <mxGeometry x="645" y="490" width="60" height="60" as="geometry" />
        </mxCell>
        <mxCell id="gICgKKz3k0GT-fjwzHGg-53" value="" style="group;fillColor=#fff2cc;strokeColor=#000000;container=0;" parent="gICgKKz3k0GT-fjwzHGg-52" vertex="1" connectable="0">
          <mxGeometry width="60" height="60" as="geometry" />
        </mxCell>
        <mxCell id="gICgKKz3k0GT-fjwzHGg-54" value="D" style="text;html=1;strokeColor=none;fillColor=none;align=center;verticalAlign=middle;whiteSpace=wrap;rounded=0;" parent="gICgKKz3k0GT-fjwzHGg-52" vertex="1">
          <mxGeometry y="10" width="17.142857142857142" height="20" as="geometry" />
        </mxCell>
        <mxCell id="gICgKKz3k0GT-fjwzHGg-55" value="Q" style="text;html=1;strokeColor=none;fillColor=none;align=center;verticalAlign=middle;whiteSpace=wrap;rounded=0;" parent="gICgKKz3k0GT-fjwzHGg-52" vertex="1">
          <mxGeometry x="42.85714285714283" y="10" width="17.142857142857142" height="20" as="geometry" />
        </mxCell>
        <mxCell id="gICgKKz3k0GT-fjwzHGg-56" value="" style="triangle;whiteSpace=wrap;html=1;fillColor=#FFF2CC;" parent="gICgKKz3k0GT-fjwzHGg-52" vertex="1">
          <mxGeometry y="40" width="8.571428571428571" height="10" as="geometry" />
        </mxCell>
        <mxCell id="wqs6D4nd72lRVymGC39_-16" value="..." style="text;strokeColor=none;fillColor=none;html=1;fontSize=21;fontStyle=0;verticalAlign=bottom;align=center;fontColor=#7D7D7D;" parent="1" vertex="1">
          <mxGeometry x="390" y="551" width="30" height="15" as="geometry" />
        </mxCell>
        <mxCell id="wqs6D4nd72lRVymGC39_-18" style="edgeStyle=orthogonalEdgeStyle;rounded=0;orthogonalLoop=1;jettySize=auto;html=1;exitX=1;exitY=0.5;exitDx=0;exitDy=0;entryX=-0.027;entryY=0.511;entryDx=0;entryDy=0;entryPerimeter=0;endArrow=none;endFill=0;strokeColor=#7D7D7D;" parent="1" source="moyA_e1KCzPaDLxjJW3S-27" target="wqs6D4nd72lRVymGC39_-16" edge="1">
          <mxGeometry relative="1" as="geometry" />
        </mxCell>
        <mxCell id="oyDpr8vzRDp8f3kbOQW7-2" value="" style="group" parent="1" vertex="1" connectable="0">
          <mxGeometry x="205" y="490" width="60" height="60" as="geometry" />
        </mxCell>
        <mxCell id="oyDpr8vzRDp8f3kbOQW7-3" value="" style="group;fillColor=#fff2cc;strokeColor=#000000;container=0;" parent="oyDpr8vzRDp8f3kbOQW7-2" vertex="1" connectable="0">
          <mxGeometry width="60" height="60" as="geometry" />
        </mxCell>
        <mxCell id="oyDpr8vzRDp8f3kbOQW7-4" value="D" style="text;html=1;strokeColor=none;fillColor=none;align=center;verticalAlign=middle;whiteSpace=wrap;rounded=0;" parent="oyDpr8vzRDp8f3kbOQW7-2" vertex="1">
          <mxGeometry y="10" width="17.142857142857142" height="20" as="geometry" />
        </mxCell>
        <mxCell id="oyDpr8vzRDp8f3kbOQW7-5" value="Q" style="text;html=1;strokeColor=none;fillColor=none;align=center;verticalAlign=middle;whiteSpace=wrap;rounded=0;" parent="oyDpr8vzRDp8f3kbOQW7-2" vertex="1">
          <mxGeometry x="42.85714285714283" y="10" width="17.142857142857142" height="20" as="geometry" />
        </mxCell>
        <mxCell id="oyDpr8vzRDp8f3kbOQW7-6" value="" style="triangle;whiteSpace=wrap;html=1;fillColor=#FFF2CC;" parent="oyDpr8vzRDp8f3kbOQW7-2" vertex="1">
          <mxGeometry y="40" width="8.571428571428571" height="10" as="geometry" />
        </mxCell>
        <mxCell id="gICgKKz3k0GT-fjwzHGg-103" value="" style="group" parent="1" vertex="1" connectable="0">
          <mxGeometry x="305" y="490" width="60" height="60" as="geometry" />
        </mxCell>
        <mxCell id="gICgKKz3k0GT-fjwzHGg-104" value="" style="group;fillColor=#fff2cc;strokeColor=#000000;container=0;" parent="gICgKKz3k0GT-fjwzHGg-103" vertex="1" connectable="0">
          <mxGeometry width="60" height="60" as="geometry" />
        </mxCell>
        <mxCell id="gICgKKz3k0GT-fjwzHGg-105" value="D" style="text;html=1;strokeColor=none;fillColor=none;align=center;verticalAlign=middle;whiteSpace=wrap;rounded=0;" parent="gICgKKz3k0GT-fjwzHGg-103" vertex="1">
          <mxGeometry y="10" width="17.142857142857142" height="20" as="geometry" />
        </mxCell>
        <mxCell id="gICgKKz3k0GT-fjwzHGg-106" value="Q" style="text;html=1;strokeColor=none;fillColor=none;align=center;verticalAlign=middle;whiteSpace=wrap;rounded=0;" parent="gICgKKz3k0GT-fjwzHGg-103" vertex="1">
          <mxGeometry x="42.85714285714283" y="10" width="17.142857142857142" height="20" as="geometry" />
        </mxCell>
        <mxCell id="gICgKKz3k0GT-fjwzHGg-107" value="" style="triangle;whiteSpace=wrap;html=1;fillColor=#FFF2CC;" parent="gICgKKz3k0GT-fjwzHGg-103" vertex="1">
          <mxGeometry y="40" width="8.571428571428571" height="10" as="geometry" />
        </mxCell>
      </root>
    </mxGraphModel>
  </diagram>
  <diagram id="jfvo6RK6s2qgSnzQy4lf" name="MISR">
    <mxGraphModel dx="769" dy="414" grid="1" gridSize="1" guides="1" tooltips="1" connect="1" arrows="1" fold="1" page="1" pageScale="1" pageWidth="1169" pageHeight="827" math="1" shadow="0">
      <root>
        <mxCell id="0" />
        <mxCell id="1" parent="0" />
        <mxCell id="scfv_BOi3TZG097ObJ1T-1" value="" style="group" parent="1" vertex="1" connectable="0">
          <mxGeometry x="290" y="260" width="20" height="20" as="geometry" />
        </mxCell>
        <mxCell id="scfv_BOi3TZG097ObJ1T-2" value="" style="ellipse;whiteSpace=wrap;html=1;aspect=fixed;" parent="scfv_BOi3TZG097ObJ1T-1" vertex="1">
          <mxGeometry width="20" height="20" as="geometry" />
        </mxCell>
        <mxCell id="scfv_BOi3TZG097ObJ1T-3" value="" style="endArrow=none;html=1;rounded=0;" parent="scfv_BOi3TZG097ObJ1T-1" edge="1">
          <mxGeometry width="50" height="50" relative="1" as="geometry">
            <mxPoint y="10" as="sourcePoint" />
            <mxPoint x="20" y="10" as="targetPoint" />
          </mxGeometry>
        </mxCell>
        <mxCell id="scfv_BOi3TZG097ObJ1T-4" value="" style="endArrow=none;html=1;rounded=0;" parent="scfv_BOi3TZG097ObJ1T-1" edge="1">
          <mxGeometry width="50" height="50" relative="1" as="geometry">
            <mxPoint x="9.889999999999986" y="20" as="sourcePoint" />
            <mxPoint x="9.889999999999986" as="targetPoint" />
          </mxGeometry>
        </mxCell>
        <mxCell id="scfv_BOi3TZG097ObJ1T-74" value="" style="endArrow=block;html=1;rounded=0;endFill=1;exitX=0.5;exitY=1;exitDx=0;exitDy=0;entryX=0.5;entryY=0;entryDx=0;entryDy=0;" parent="1" source="scfv_BOi3TZG097ObJ1T-80" target="scfv_BOi3TZG097ObJ1T-2" edge="1">
          <mxGeometry width="50" height="50" relative="1" as="geometry">
            <mxPoint x="330" y="230" as="sourcePoint" />
            <mxPoint x="329.9" y="260" as="targetPoint" />
          </mxGeometry>
        </mxCell>
        <mxCell id="scfv_BOi3TZG097ObJ1T-80" value="$$grant\_o[0]$$" style="text;strokeColor=none;fillColor=none;html=1;fontSize=16;fontStyle=0;verticalAlign=middle;align=center;" parent="1" vertex="1">
          <mxGeometry x="250" y="195" width="100" height="20" as="geometry" />
        </mxCell>
        <mxCell id="scfv_BOi3TZG097ObJ1T-98" value="$$z[8]$$" style="text;strokeColor=none;fillColor=none;html=1;fontSize=14;fontStyle=0;verticalAlign=middle;align=center;fontColor=#990000;" parent="1" vertex="1">
          <mxGeometry x="305.5" y="225" width="30" height="25" as="geometry" />
        </mxCell>
        <mxCell id="_ySltDEQZnsAi1axNjof-11" style="edgeStyle=orthogonalEdgeStyle;rounded=0;orthogonalLoop=1;jettySize=auto;html=1;exitX=1;exitY=0.5;exitDx=0;exitDy=0;entryX=0;entryY=0.5;entryDx=0;entryDy=0;endArrow=block;endFill=1;" parent="1" source="6m1p2IhzdpcR1qGZet4V-5" target="_ySltDEQZnsAi1axNjof-6" edge="1">
          <mxGeometry relative="1" as="geometry" />
        </mxCell>
        <mxCell id="6m1p2IhzdpcR1qGZet4V-5" value="" style="ellipse;whiteSpace=wrap;html=1;aspect=fixed;fillColor=#000000;strokeColor=none;" parent="1" vertex="1">
          <mxGeometry x="317" y="266.5" width="7" height="7" as="geometry" />
        </mxCell>
        <mxCell id="_ySltDEQZnsAi1axNjof-13" style="edgeStyle=orthogonalEdgeStyle;rounded=0;orthogonalLoop=1;jettySize=auto;html=1;exitX=0.5;exitY=0;exitDx=0;exitDy=0;entryX=0.5;entryY=0;entryDx=0;entryDy=0;endArrow=none;endFill=0;" parent="1" source="PdoN9kWBCjx4llhJjdFu-2" target="6m1p2IhzdpcR1qGZet4V-5" edge="1">
          <mxGeometry relative="1" as="geometry" />
        </mxCell>
        <mxCell id="PdoN9kWBCjx4llhJjdFu-2" value="" style="verticalLabelPosition=bottom;verticalAlign=top;html=1;shape=offPageConnector;rounded=0;size=0.2857142857142857;fillColor=#000000;strokeColor=none;rotation=-180;" parent="1" vertex="1">
          <mxGeometry x="317.5" y="250" width="6" height="8" as="geometry" />
        </mxCell>
        <mxCell id="7emA51480ugqHGCs2wyN-14" style="edgeStyle=orthogonalEdgeStyle;rounded=0;orthogonalLoop=1;jettySize=auto;html=1;exitX=1;exitY=0.5;exitDx=0;exitDy=0;entryX=0;entryY=0.5;entryDx=0;entryDy=0;endArrow=none;endFill=0;strokeColor=#7D7D7D;" parent="1" source="V9JGBw6v58sDr1h8HY5V-1" target="7emA51480ugqHGCs2wyN-1" edge="1">
          <mxGeometry relative="1" as="geometry" />
        </mxCell>
        <mxCell id="V9JGBw6v58sDr1h8HY5V-1" value="" style="ellipse;whiteSpace=wrap;html=1;aspect=fixed;fillColor=#7D7D7D;strokeColor=none;" parent="1" vertex="1">
          <mxGeometry x="208" y="314.94" width="7" height="7" as="geometry" />
        </mxCell>
        <mxCell id="7emA51480ugqHGCs2wyN-31" style="edgeStyle=orthogonalEdgeStyle;rounded=0;orthogonalLoop=1;jettySize=auto;html=1;exitX=0.5;exitY=0;exitDx=0;exitDy=0;entryX=0;entryY=0.5;entryDx=0;entryDy=0;endArrow=none;endFill=0;strokeColor=#7D7D7D;" parent="1" source="Kmlh2yxJ0vN-TvVQ4uzt-1" target="V9JGBw6v58sDr1h8HY5V-1" edge="1">
          <mxGeometry relative="1" as="geometry">
            <Array as="points">
              <mxPoint x="188" y="318" />
              <mxPoint x="192" y="318" />
            </Array>
          </mxGeometry>
        </mxCell>
        <mxCell id="Kmlh2yxJ0vN-TvVQ4uzt-1" value="" style="verticalLabelPosition=bottom;verticalAlign=top;html=1;shape=offPageConnector;rounded=0;size=0.2857142857142857;fillColor=#7D7D7D;strokeColor=none;rotation=-90;" parent="1" vertex="1">
          <mxGeometry x="166" y="314.44" width="6" height="8" as="geometry" />
        </mxCell>
        <mxCell id="Kmlh2yxJ0vN-TvVQ4uzt-3" value="$$clock$$" style="text;strokeColor=none;fillColor=none;html=1;fontSize=16;fontStyle=0;verticalAlign=middle;align=center;fontColor=#7D7D7D;" parent="1" vertex="1">
          <mxGeometry x="120" y="309" width="40" height="15.88" as="geometry" />
        </mxCell>
        <mxCell id="_ySltDEQZnsAi1axNjof-9" style="edgeStyle=orthogonalEdgeStyle;rounded=0;orthogonalLoop=1;jettySize=auto;html=1;exitX=1;exitY=0.5;exitDx=0;exitDy=0;entryX=0;entryY=0.5;entryDx=0;entryDy=0;endArrow=none;endFill=0;" parent="1" source="u56SzxZeArUy4DGVQt2y-5" target="scfv_BOi3TZG097ObJ1T-2" edge="1">
          <mxGeometry relative="1" as="geometry" />
        </mxCell>
        <mxCell id="_ySltDEQZnsAi1axNjof-10" style="edgeStyle=orthogonalEdgeStyle;rounded=0;orthogonalLoop=1;jettySize=auto;html=1;exitX=1;exitY=0.5;exitDx=0;exitDy=0;entryX=0;entryY=0.5;entryDx=0;entryDy=0;endArrow=none;endFill=0;" parent="1" source="scfv_BOi3TZG097ObJ1T-2" target="6m1p2IhzdpcR1qGZet4V-5" edge="1">
          <mxGeometry relative="1" as="geometry" />
        </mxCell>
        <mxCell id="_ySltDEQZnsAi1axNjof-44" value="" style="group" parent="1" vertex="1" connectable="0">
          <mxGeometry x="410" y="260" width="20" height="20" as="geometry" />
        </mxCell>
        <mxCell id="_ySltDEQZnsAi1axNjof-45" value="" style="ellipse;whiteSpace=wrap;html=1;aspect=fixed;" parent="_ySltDEQZnsAi1axNjof-44" vertex="1">
          <mxGeometry width="20" height="20" as="geometry" />
        </mxCell>
        <mxCell id="_ySltDEQZnsAi1axNjof-46" value="" style="endArrow=none;html=1;rounded=0;" parent="_ySltDEQZnsAi1axNjof-44" edge="1">
          <mxGeometry width="50" height="50" relative="1" as="geometry">
            <mxPoint y="10" as="sourcePoint" />
            <mxPoint x="20" y="10" as="targetPoint" />
          </mxGeometry>
        </mxCell>
        <mxCell id="_ySltDEQZnsAi1axNjof-47" value="" style="endArrow=none;html=1;rounded=0;" parent="_ySltDEQZnsAi1axNjof-44" edge="1">
          <mxGeometry width="50" height="50" relative="1" as="geometry">
            <mxPoint x="9.889999999999986" y="20" as="sourcePoint" />
            <mxPoint x="9.889999999999986" as="targetPoint" />
          </mxGeometry>
        </mxCell>
        <mxCell id="_ySltDEQZnsAi1axNjof-48" value="" style="endArrow=block;html=1;rounded=0;endFill=1;exitX=0.5;exitY=1;exitDx=0;exitDy=0;entryX=0.5;entryY=0;entryDx=0;entryDy=0;" parent="1" source="_ySltDEQZnsAi1axNjof-49" target="_ySltDEQZnsAi1axNjof-45" edge="1">
          <mxGeometry width="50" height="50" relative="1" as="geometry">
            <mxPoint x="450" y="230" as="sourcePoint" />
            <mxPoint x="449.9" y="260" as="targetPoint" />
          </mxGeometry>
        </mxCell>
        <mxCell id="_ySltDEQZnsAi1axNjof-49" value="$$grant\_o[1]$$" style="text;strokeColor=none;fillColor=none;html=1;fontSize=16;fontStyle=0;verticalAlign=middle;align=center;" parent="1" vertex="1">
          <mxGeometry x="370" y="195" width="100" height="20" as="geometry" />
        </mxCell>
        <mxCell id="_ySltDEQZnsAi1axNjof-50" value="$$z[7]$$" style="text;strokeColor=none;fillColor=none;html=1;fontSize=14;fontStyle=0;verticalAlign=middle;align=center;fontColor=#990000;labelBackgroundColor=none;" parent="1" vertex="1">
          <mxGeometry x="425" y="225" width="30" height="25" as="geometry" />
        </mxCell>
        <mxCell id="_ySltDEQZnsAi1axNjof-51" style="edgeStyle=orthogonalEdgeStyle;rounded=0;orthogonalLoop=1;jettySize=auto;html=1;exitX=1;exitY=0.5;exitDx=0;exitDy=0;entryX=0;entryY=0.5;entryDx=0;entryDy=0;endArrow=block;endFill=1;" parent="1" source="_ySltDEQZnsAi1axNjof-52" target="_ySltDEQZnsAi1axNjof-57" edge="1">
          <mxGeometry relative="1" as="geometry" />
        </mxCell>
        <mxCell id="_ySltDEQZnsAi1axNjof-52" value="" style="ellipse;whiteSpace=wrap;html=1;aspect=fixed;fillColor=#000000;strokeColor=none;" parent="1" vertex="1">
          <mxGeometry x="436.5" y="266.5" width="7" height="7" as="geometry" />
        </mxCell>
        <mxCell id="_ySltDEQZnsAi1axNjof-53" style="edgeStyle=orthogonalEdgeStyle;rounded=0;orthogonalLoop=1;jettySize=auto;html=1;exitX=0.5;exitY=0;exitDx=0;exitDy=0;entryX=0.5;entryY=0;entryDx=0;entryDy=0;endArrow=none;endFill=0;" parent="1" source="_ySltDEQZnsAi1axNjof-54" target="_ySltDEQZnsAi1axNjof-52" edge="1">
          <mxGeometry relative="1" as="geometry" />
        </mxCell>
        <mxCell id="_ySltDEQZnsAi1axNjof-54" value="" style="verticalLabelPosition=bottom;verticalAlign=top;html=1;shape=offPageConnector;rounded=0;size=0.2857142857142857;fillColor=#000000;strokeColor=none;rotation=-180;" parent="1" vertex="1">
          <mxGeometry x="437" y="250" width="6" height="8" as="geometry" />
        </mxCell>
        <mxCell id="_ySltDEQZnsAi1axNjof-60" style="edgeStyle=orthogonalEdgeStyle;rounded=0;orthogonalLoop=1;jettySize=auto;html=1;exitX=1;exitY=0.5;exitDx=0;exitDy=0;entryX=0;entryY=0.5;entryDx=0;entryDy=0;endArrow=none;endFill=0;" parent="1" target="_ySltDEQZnsAi1axNjof-45" edge="1">
          <mxGeometry relative="1" as="geometry">
            <mxPoint x="400" y="270" as="sourcePoint" />
          </mxGeometry>
        </mxCell>
        <mxCell id="_ySltDEQZnsAi1axNjof-61" style="edgeStyle=orthogonalEdgeStyle;rounded=0;orthogonalLoop=1;jettySize=auto;html=1;exitX=1;exitY=0.5;exitDx=0;exitDy=0;entryX=0;entryY=0.5;entryDx=0;entryDy=0;endArrow=none;endFill=0;" parent="1" source="_ySltDEQZnsAi1axNjof-45" target="_ySltDEQZnsAi1axNjof-52" edge="1">
          <mxGeometry relative="1" as="geometry" />
        </mxCell>
        <mxCell id="_ySltDEQZnsAi1axNjof-62" value="" style="group" parent="1" vertex="1" connectable="0">
          <mxGeometry x="530" y="260" width="20" height="20" as="geometry" />
        </mxCell>
        <mxCell id="_ySltDEQZnsAi1axNjof-63" value="" style="ellipse;whiteSpace=wrap;html=1;aspect=fixed;" parent="_ySltDEQZnsAi1axNjof-62" vertex="1">
          <mxGeometry width="20" height="20" as="geometry" />
        </mxCell>
        <mxCell id="_ySltDEQZnsAi1axNjof-64" value="" style="endArrow=none;html=1;rounded=0;" parent="_ySltDEQZnsAi1axNjof-62" edge="1">
          <mxGeometry width="50" height="50" relative="1" as="geometry">
            <mxPoint y="10" as="sourcePoint" />
            <mxPoint x="20" y="10" as="targetPoint" />
          </mxGeometry>
        </mxCell>
        <mxCell id="_ySltDEQZnsAi1axNjof-65" value="" style="endArrow=none;html=1;rounded=0;" parent="_ySltDEQZnsAi1axNjof-62" edge="1">
          <mxGeometry width="50" height="50" relative="1" as="geometry">
            <mxPoint x="9.889999999999986" y="20" as="sourcePoint" />
            <mxPoint x="9.889999999999986" as="targetPoint" />
          </mxGeometry>
        </mxCell>
        <mxCell id="_ySltDEQZnsAi1axNjof-66" value="" style="endArrow=block;html=1;rounded=0;endFill=1;exitX=0.5;exitY=1;exitDx=0;exitDy=0;entryX=0.5;entryY=0;entryDx=0;entryDy=0;" parent="1" source="_ySltDEQZnsAi1axNjof-67" target="_ySltDEQZnsAi1axNjof-63" edge="1">
          <mxGeometry width="50" height="50" relative="1" as="geometry">
            <mxPoint x="570" y="230" as="sourcePoint" />
            <mxPoint x="569.9" y="260" as="targetPoint" />
          </mxGeometry>
        </mxCell>
        <mxCell id="_ySltDEQZnsAi1axNjof-67" value="$$grant\_o[2]$$" style="text;strokeColor=none;fillColor=none;html=1;fontSize=16;fontStyle=0;verticalAlign=middle;align=center;" parent="1" vertex="1">
          <mxGeometry x="490" y="195" width="100" height="20" as="geometry" />
        </mxCell>
        <mxCell id="_ySltDEQZnsAi1axNjof-68" value="$$z[6]$$" style="text;strokeColor=none;fillColor=none;html=1;fontSize=14;fontStyle=0;verticalAlign=middle;align=center;fontColor=#990000;" parent="1" vertex="1">
          <mxGeometry x="545" y="225" width="30" height="25" as="geometry" />
        </mxCell>
        <mxCell id="_ySltDEQZnsAi1axNjof-69" style="edgeStyle=orthogonalEdgeStyle;rounded=0;orthogonalLoop=1;jettySize=auto;html=1;exitX=1;exitY=0.5;exitDx=0;exitDy=0;entryX=0;entryY=0.5;entryDx=0;entryDy=0;endArrow=block;endFill=1;" parent="1" source="_ySltDEQZnsAi1axNjof-70" target="_ySltDEQZnsAi1axNjof-75" edge="1">
          <mxGeometry relative="1" as="geometry" />
        </mxCell>
        <mxCell id="_ySltDEQZnsAi1axNjof-70" value="" style="ellipse;whiteSpace=wrap;html=1;aspect=fixed;fillColor=#000000;strokeColor=none;" parent="1" vertex="1">
          <mxGeometry x="556.5" y="266.5" width="7" height="7" as="geometry" />
        </mxCell>
        <mxCell id="_ySltDEQZnsAi1axNjof-71" style="edgeStyle=orthogonalEdgeStyle;rounded=0;orthogonalLoop=1;jettySize=auto;html=1;exitX=0.5;exitY=0;exitDx=0;exitDy=0;entryX=0.5;entryY=0;entryDx=0;entryDy=0;endArrow=none;endFill=0;" parent="1" source="_ySltDEQZnsAi1axNjof-72" target="_ySltDEQZnsAi1axNjof-70" edge="1">
          <mxGeometry relative="1" as="geometry" />
        </mxCell>
        <mxCell id="_ySltDEQZnsAi1axNjof-72" value="" style="verticalLabelPosition=bottom;verticalAlign=top;html=1;shape=offPageConnector;rounded=0;size=0.2857142857142857;fillColor=#000000;strokeColor=none;rotation=-180;" parent="1" vertex="1">
          <mxGeometry x="557" y="250" width="6" height="8" as="geometry" />
        </mxCell>
        <mxCell id="_ySltDEQZnsAi1axNjof-78" style="edgeStyle=orthogonalEdgeStyle;rounded=0;orthogonalLoop=1;jettySize=auto;html=1;exitX=1;exitY=0.5;exitDx=0;exitDy=0;entryX=0;entryY=0.5;entryDx=0;entryDy=0;endArrow=none;endFill=0;" parent="1" target="_ySltDEQZnsAi1axNjof-63" edge="1">
          <mxGeometry relative="1" as="geometry">
            <mxPoint x="520" y="270" as="sourcePoint" />
          </mxGeometry>
        </mxCell>
        <mxCell id="_ySltDEQZnsAi1axNjof-79" style="edgeStyle=orthogonalEdgeStyle;rounded=0;orthogonalLoop=1;jettySize=auto;html=1;exitX=1;exitY=0.5;exitDx=0;exitDy=0;entryX=0;entryY=0.5;entryDx=0;entryDy=0;endArrow=none;endFill=0;" parent="1" source="_ySltDEQZnsAi1axNjof-63" target="_ySltDEQZnsAi1axNjof-70" edge="1">
          <mxGeometry relative="1" as="geometry" />
        </mxCell>
        <mxCell id="_ySltDEQZnsAi1axNjof-80" value="" style="group" parent="1" vertex="1" connectable="0">
          <mxGeometry x="650" y="260" width="20" height="20" as="geometry" />
        </mxCell>
        <mxCell id="_ySltDEQZnsAi1axNjof-81" value="" style="ellipse;whiteSpace=wrap;html=1;aspect=fixed;" parent="_ySltDEQZnsAi1axNjof-80" vertex="1">
          <mxGeometry width="20" height="20" as="geometry" />
        </mxCell>
        <mxCell id="_ySltDEQZnsAi1axNjof-82" value="" style="endArrow=none;html=1;rounded=0;" parent="_ySltDEQZnsAi1axNjof-80" edge="1">
          <mxGeometry width="50" height="50" relative="1" as="geometry">
            <mxPoint y="10" as="sourcePoint" />
            <mxPoint x="20" y="10" as="targetPoint" />
          </mxGeometry>
        </mxCell>
        <mxCell id="_ySltDEQZnsAi1axNjof-83" value="" style="endArrow=none;html=1;rounded=0;" parent="_ySltDEQZnsAi1axNjof-80" edge="1">
          <mxGeometry width="50" height="50" relative="1" as="geometry">
            <mxPoint x="9.889999999999986" y="20" as="sourcePoint" />
            <mxPoint x="9.889999999999986" as="targetPoint" />
          </mxGeometry>
        </mxCell>
        <mxCell id="_ySltDEQZnsAi1axNjof-84" value="" style="endArrow=block;html=1;rounded=0;endFill=1;exitX=0.5;exitY=1;exitDx=0;exitDy=0;entryX=0.5;entryY=0;entryDx=0;entryDy=0;" parent="1" source="_ySltDEQZnsAi1axNjof-85" target="_ySltDEQZnsAi1axNjof-81" edge="1">
          <mxGeometry width="50" height="50" relative="1" as="geometry">
            <mxPoint x="690" y="230" as="sourcePoint" />
            <mxPoint x="689.9" y="260" as="targetPoint" />
          </mxGeometry>
        </mxCell>
        <mxCell id="_ySltDEQZnsAi1axNjof-85" value="$$grant\_o[3]$$" style="text;strokeColor=none;fillColor=none;html=1;fontSize=16;fontStyle=0;verticalAlign=middle;align=center;" parent="1" vertex="1">
          <mxGeometry x="610" y="195" width="100" height="20" as="geometry" />
        </mxCell>
        <mxCell id="_ySltDEQZnsAi1axNjof-86" value="$$z[5]$$" style="text;strokeColor=none;fillColor=none;html=1;fontSize=14;fontStyle=0;verticalAlign=middle;align=center;fontColor=#990000;" parent="1" vertex="1">
          <mxGeometry x="665" y="225" width="30" height="25" as="geometry" />
        </mxCell>
        <mxCell id="_ySltDEQZnsAi1axNjof-87" style="edgeStyle=orthogonalEdgeStyle;rounded=0;orthogonalLoop=1;jettySize=auto;html=1;exitX=1;exitY=0.5;exitDx=0;exitDy=0;entryX=0;entryY=0.5;entryDx=0;entryDy=0;endArrow=block;endFill=1;" parent="1" source="_ySltDEQZnsAi1axNjof-88" target="_ySltDEQZnsAi1axNjof-93" edge="1">
          <mxGeometry relative="1" as="geometry" />
        </mxCell>
        <mxCell id="_ySltDEQZnsAi1axNjof-88" value="" style="ellipse;whiteSpace=wrap;html=1;aspect=fixed;fillColor=#000000;strokeColor=none;" parent="1" vertex="1">
          <mxGeometry x="676.5" y="266.5" width="7" height="7" as="geometry" />
        </mxCell>
        <mxCell id="_ySltDEQZnsAi1axNjof-89" style="edgeStyle=orthogonalEdgeStyle;rounded=0;orthogonalLoop=1;jettySize=auto;html=1;exitX=0.5;exitY=0;exitDx=0;exitDy=0;entryX=0.5;entryY=0;entryDx=0;entryDy=0;endArrow=none;endFill=0;" parent="1" source="_ySltDEQZnsAi1axNjof-90" target="_ySltDEQZnsAi1axNjof-88" edge="1">
          <mxGeometry relative="1" as="geometry" />
        </mxCell>
        <mxCell id="_ySltDEQZnsAi1axNjof-90" value="" style="verticalLabelPosition=bottom;verticalAlign=top;html=1;shape=offPageConnector;rounded=0;size=0.2857142857142857;fillColor=#000000;strokeColor=none;rotation=-180;" parent="1" vertex="1">
          <mxGeometry x="677" y="250" width="6" height="8" as="geometry" />
        </mxCell>
        <mxCell id="_ySltDEQZnsAi1axNjof-96" style="edgeStyle=orthogonalEdgeStyle;rounded=0;orthogonalLoop=1;jettySize=auto;html=1;exitX=1;exitY=0.5;exitDx=0;exitDy=0;entryX=0;entryY=0.5;entryDx=0;entryDy=0;endArrow=none;endFill=0;" parent="1" target="_ySltDEQZnsAi1axNjof-81" edge="1">
          <mxGeometry relative="1" as="geometry">
            <mxPoint x="640" y="270" as="sourcePoint" />
          </mxGeometry>
        </mxCell>
        <mxCell id="_ySltDEQZnsAi1axNjof-97" style="edgeStyle=orthogonalEdgeStyle;rounded=0;orthogonalLoop=1;jettySize=auto;html=1;exitX=1;exitY=0.5;exitDx=0;exitDy=0;entryX=0;entryY=0.5;entryDx=0;entryDy=0;endArrow=none;endFill=0;" parent="1" source="_ySltDEQZnsAi1axNjof-81" target="_ySltDEQZnsAi1axNjof-88" edge="1">
          <mxGeometry relative="1" as="geometry" />
        </mxCell>
        <mxCell id="_ySltDEQZnsAi1axNjof-98" value="" style="endArrow=none;html=1;rounded=0;entryX=1;entryY=0.5;entryDx=0;entryDy=0;exitX=0;exitY=0.5;exitDx=0;exitDy=0;" parent="1" source="_ySltDEQZnsAi1axNjof-99" target="_ySltDEQZnsAi1axNjof-94" edge="1">
          <mxGeometry width="50" height="50" relative="1" as="geometry">
            <mxPoint x="770" y="270" as="sourcePoint" />
            <mxPoint x="759.9999999999909" y="269.92" as="targetPoint" />
          </mxGeometry>
        </mxCell>
        <mxCell id="_ySltDEQZnsAi1axNjof-99" value="" style="ellipse;whiteSpace=wrap;html=1;aspect=fixed;fillColor=#000000;strokeColor=none;" parent="1" vertex="1">
          <mxGeometry x="768.5" y="266.5" width="7" height="7" as="geometry" />
        </mxCell>
        <mxCell id="_ySltDEQZnsAi1axNjof-100" style="edgeStyle=orthogonalEdgeStyle;rounded=0;orthogonalLoop=1;jettySize=auto;html=1;exitX=0.5;exitY=0;exitDx=0;exitDy=0;entryX=0.5;entryY=0;entryDx=0;entryDy=0;endArrow=none;endFill=0;" parent="1" source="_ySltDEQZnsAi1axNjof-101" target="_ySltDEQZnsAi1axNjof-99" edge="1">
          <mxGeometry relative="1" as="geometry" />
        </mxCell>
        <mxCell id="_ySltDEQZnsAi1axNjof-101" value="" style="verticalLabelPosition=bottom;verticalAlign=top;html=1;shape=offPageConnector;rounded=0;size=0.2857142857142857;fillColor=#000000;strokeColor=none;rotation=-180;" parent="1" vertex="1">
          <mxGeometry x="769" y="250" width="6" height="8" as="geometry" />
        </mxCell>
        <mxCell id="_ySltDEQZnsAi1axNjof-102" value="" style="endArrow=none;html=1;rounded=0;entryX=1;entryY=0.5;entryDx=0;entryDy=0;exitX=0;exitY=0.5;exitDx=0;exitDy=0;endFill=0;startArrow=block;startFill=1;" parent="1" source="_ySltDEQZnsAi1axNjof-105" target="_ySltDEQZnsAi1axNjof-99" edge="1">
          <mxGeometry width="50" height="50" relative="1" as="geometry">
            <mxPoint x="788" y="269.95" as="sourcePoint" />
            <mxPoint x="776.4999999999909" y="269.95" as="targetPoint" />
          </mxGeometry>
        </mxCell>
        <mxCell id="_ySltDEQZnsAi1axNjof-108" value="$$z[4]$$" style="text;strokeColor=none;fillColor=none;html=1;fontSize=14;fontStyle=0;verticalAlign=middle;align=center;fontColor=#990000;" parent="1" vertex="1">
          <mxGeometry x="757" y="225" width="30" height="25" as="geometry" />
        </mxCell>
        <mxCell id="_ySltDEQZnsAi1axNjof-109" value="" style="endArrow=none;html=1;rounded=0;entryX=1;entryY=0.5;entryDx=0;entryDy=0;exitX=0;exitY=0.5;exitDx=0;exitDy=0;" parent="1" source="_ySltDEQZnsAi1axNjof-110" edge="1">
          <mxGeometry width="50" height="50" relative="1" as="geometry">
            <mxPoint x="860" y="270" as="sourcePoint" />
            <mxPoint x="850" y="270" as="targetPoint" />
          </mxGeometry>
        </mxCell>
        <mxCell id="_ySltDEQZnsAi1axNjof-110" value="" style="ellipse;whiteSpace=wrap;html=1;aspect=fixed;fillColor=#000000;strokeColor=none;" parent="1" vertex="1">
          <mxGeometry x="858.5" y="266.5" width="7" height="7" as="geometry" />
        </mxCell>
        <mxCell id="_ySltDEQZnsAi1axNjof-111" style="edgeStyle=orthogonalEdgeStyle;rounded=0;orthogonalLoop=1;jettySize=auto;html=1;exitX=0.5;exitY=0;exitDx=0;exitDy=0;entryX=0.5;entryY=0;entryDx=0;entryDy=0;endArrow=none;endFill=0;" parent="1" source="_ySltDEQZnsAi1axNjof-112" target="_ySltDEQZnsAi1axNjof-110" edge="1">
          <mxGeometry relative="1" as="geometry" />
        </mxCell>
        <mxCell id="_ySltDEQZnsAi1axNjof-112" value="" style="verticalLabelPosition=bottom;verticalAlign=top;html=1;shape=offPageConnector;rounded=0;size=0.2857142857142857;fillColor=#000000;strokeColor=none;rotation=-180;" parent="1" vertex="1">
          <mxGeometry x="859" y="250" width="6" height="8" as="geometry" />
        </mxCell>
        <mxCell id="_ySltDEQZnsAi1axNjof-113" value="" style="endArrow=none;html=1;rounded=0;entryX=1;entryY=0.5;entryDx=0;entryDy=0;exitX=0;exitY=0.5;exitDx=0;exitDy=0;startArrow=block;startFill=1;" parent="1" source="_ySltDEQZnsAi1axNjof-116" target="_ySltDEQZnsAi1axNjof-110" edge="1">
          <mxGeometry width="50" height="50" relative="1" as="geometry">
            <mxPoint x="878" y="269.95" as="sourcePoint" />
            <mxPoint x="866.4999999999909" y="269.95" as="targetPoint" />
          </mxGeometry>
        </mxCell>
        <mxCell id="_ySltDEQZnsAi1axNjof-119" value="$$z[3]$$" style="text;strokeColor=none;fillColor=none;html=1;fontSize=14;fontStyle=0;verticalAlign=middle;align=center;fontColor=#990000;" parent="1" vertex="1">
          <mxGeometry x="847" y="225" width="30" height="25" as="geometry" />
        </mxCell>
        <mxCell id="_ySltDEQZnsAi1axNjof-120" value="" style="endArrow=none;html=1;rounded=0;entryX=1;entryY=0.5;entryDx=0;entryDy=0;exitX=0;exitY=0.5;exitDx=0;exitDy=0;" parent="1" source="_ySltDEQZnsAi1axNjof-121" edge="1">
          <mxGeometry width="50" height="50" relative="1" as="geometry">
            <mxPoint x="950" y="270" as="sourcePoint" />
            <mxPoint x="940" y="270" as="targetPoint" />
          </mxGeometry>
        </mxCell>
        <mxCell id="_ySltDEQZnsAi1axNjof-121" value="" style="ellipse;whiteSpace=wrap;html=1;aspect=fixed;fillColor=#000000;strokeColor=none;" parent="1" vertex="1">
          <mxGeometry x="948.5" y="266.5" width="7" height="7" as="geometry" />
        </mxCell>
        <mxCell id="_ySltDEQZnsAi1axNjof-122" style="edgeStyle=orthogonalEdgeStyle;rounded=0;orthogonalLoop=1;jettySize=auto;html=1;exitX=0.5;exitY=0;exitDx=0;exitDy=0;entryX=0.5;entryY=0;entryDx=0;entryDy=0;endArrow=none;endFill=0;" parent="1" source="_ySltDEQZnsAi1axNjof-123" target="_ySltDEQZnsAi1axNjof-121" edge="1">
          <mxGeometry relative="1" as="geometry" />
        </mxCell>
        <mxCell id="_ySltDEQZnsAi1axNjof-123" value="" style="verticalLabelPosition=bottom;verticalAlign=top;html=1;shape=offPageConnector;rounded=0;size=0.2857142857142857;fillColor=#000000;strokeColor=none;rotation=-180;" parent="1" vertex="1">
          <mxGeometry x="949" y="250" width="6" height="8" as="geometry" />
        </mxCell>
        <mxCell id="_ySltDEQZnsAi1axNjof-124" value="" style="endArrow=none;html=1;rounded=0;entryX=1;entryY=0.5;entryDx=0;entryDy=0;exitX=0;exitY=0.5;exitDx=0;exitDy=0;startArrow=block;startFill=1;" parent="1" source="_ySltDEQZnsAi1axNjof-127" target="_ySltDEQZnsAi1axNjof-121" edge="1">
          <mxGeometry width="50" height="50" relative="1" as="geometry">
            <mxPoint x="968" y="269.95" as="sourcePoint" />
            <mxPoint x="956.4999999999909" y="269.95" as="targetPoint" />
          </mxGeometry>
        </mxCell>
        <mxCell id="_ySltDEQZnsAi1axNjof-130" value="$$z[2]$$" style="text;strokeColor=none;fillColor=none;html=1;fontSize=14;fontStyle=0;verticalAlign=middle;align=center;fontColor=#990000;" parent="1" vertex="1">
          <mxGeometry x="937" y="225" width="30" height="25" as="geometry" />
        </mxCell>
        <mxCell id="_ySltDEQZnsAi1axNjof-131" value="" style="endArrow=none;html=1;rounded=0;entryX=1;entryY=0.5;entryDx=0;entryDy=0;exitX=0;exitY=0.5;exitDx=0;exitDy=0;" parent="1" source="_ySltDEQZnsAi1axNjof-132" edge="1">
          <mxGeometry width="50" height="50" relative="1" as="geometry">
            <mxPoint x="1040" y="270" as="sourcePoint" />
            <mxPoint x="1030" y="270" as="targetPoint" />
          </mxGeometry>
        </mxCell>
        <mxCell id="_ySltDEQZnsAi1axNjof-132" value="" style="ellipse;whiteSpace=wrap;html=1;aspect=fixed;fillColor=#000000;strokeColor=none;" parent="1" vertex="1">
          <mxGeometry x="1038.5" y="266.5" width="7" height="7" as="geometry" />
        </mxCell>
        <mxCell id="_ySltDEQZnsAi1axNjof-133" style="edgeStyle=orthogonalEdgeStyle;rounded=0;orthogonalLoop=1;jettySize=auto;html=1;exitX=0.5;exitY=0;exitDx=0;exitDy=0;entryX=0.5;entryY=0;entryDx=0;entryDy=0;endArrow=none;endFill=0;" parent="1" source="_ySltDEQZnsAi1axNjof-134" target="_ySltDEQZnsAi1axNjof-132" edge="1">
          <mxGeometry relative="1" as="geometry" />
        </mxCell>
        <mxCell id="_ySltDEQZnsAi1axNjof-134" value="" style="verticalLabelPosition=bottom;verticalAlign=top;html=1;shape=offPageConnector;rounded=0;size=0.2857142857142857;fillColor=#000000;strokeColor=none;rotation=-180;" parent="1" vertex="1">
          <mxGeometry x="1039" y="250" width="6" height="8" as="geometry" />
        </mxCell>
        <mxCell id="_ySltDEQZnsAi1axNjof-135" value="" style="endArrow=none;html=1;rounded=0;entryX=1;entryY=0.5;entryDx=0;entryDy=0;exitX=0;exitY=0.5;exitDx=0;exitDy=0;startArrow=block;startFill=1;" parent="1" source="_ySltDEQZnsAi1axNjof-138" target="_ySltDEQZnsAi1axNjof-132" edge="1">
          <mxGeometry width="50" height="50" relative="1" as="geometry">
            <mxPoint x="1058" y="269.95" as="sourcePoint" />
            <mxPoint x="1046.499999999991" y="269.95" as="targetPoint" />
          </mxGeometry>
        </mxCell>
        <mxCell id="_ySltDEQZnsAi1axNjof-141" value="$$z[1]$$" style="text;strokeColor=none;fillColor=none;html=1;fontSize=14;fontStyle=0;verticalAlign=middle;align=center;fontColor=#990000;" parent="1" vertex="1">
          <mxGeometry x="1027" y="225" width="30" height="25" as="geometry" />
        </mxCell>
        <mxCell id="_ySltDEQZnsAi1axNjof-142" value="" style="endArrow=none;html=1;rounded=0;entryX=1;entryY=0.5;entryDx=0;entryDy=0;exitX=0;exitY=0.5;exitDx=0;exitDy=0;" parent="1" source="_ySltDEQZnsAi1axNjof-143" edge="1">
          <mxGeometry width="50" height="50" relative="1" as="geometry">
            <mxPoint x="1130" y="270" as="sourcePoint" />
            <mxPoint x="1120" y="270" as="targetPoint" />
          </mxGeometry>
        </mxCell>
        <mxCell id="_ySltDEQZnsAi1axNjof-143" value="" style="ellipse;whiteSpace=wrap;html=1;aspect=fixed;fillColor=#000000;strokeColor=none;" parent="1" vertex="1">
          <mxGeometry x="1128.5" y="266.5" width="7" height="7" as="geometry" />
        </mxCell>
        <mxCell id="_ySltDEQZnsAi1axNjof-144" style="edgeStyle=orthogonalEdgeStyle;rounded=0;orthogonalLoop=1;jettySize=auto;html=1;exitX=0.5;exitY=0;exitDx=0;exitDy=0;entryX=0.5;entryY=0;entryDx=0;entryDy=0;endArrow=none;endFill=0;" parent="1" source="_ySltDEQZnsAi1axNjof-145" target="_ySltDEQZnsAi1axNjof-143" edge="1">
          <mxGeometry relative="1" as="geometry" />
        </mxCell>
        <mxCell id="_ySltDEQZnsAi1axNjof-145" value="" style="verticalLabelPosition=bottom;verticalAlign=top;html=1;shape=offPageConnector;rounded=0;size=0.2857142857142857;fillColor=#000000;strokeColor=none;rotation=-180;" parent="1" vertex="1">
          <mxGeometry x="1129" y="250" width="6" height="8" as="geometry" />
        </mxCell>
        <mxCell id="_ySltDEQZnsAi1axNjof-146" value="" style="endArrow=none;html=1;rounded=0;entryX=1;entryY=0.5;entryDx=0;entryDy=0;exitX=1;exitY=0.5;exitDx=0;exitDy=0;edgeStyle=orthogonalEdgeStyle;endFill=0;startArrow=block;startFill=1;" parent="1" source="_ySltDEQZnsAi1axNjof-172" target="_ySltDEQZnsAi1axNjof-143" edge="1">
          <mxGeometry width="50" height="50" relative="1" as="geometry">
            <mxPoint x="1150" y="310" as="sourcePoint" />
            <mxPoint x="1136.499999999991" y="269.95" as="targetPoint" />
            <Array as="points">
              <mxPoint x="1145" y="351" />
              <mxPoint x="1145" y="270" />
            </Array>
          </mxGeometry>
        </mxCell>
        <mxCell id="_ySltDEQZnsAi1axNjof-152" value="$$z[0]$$" style="text;strokeColor=none;fillColor=none;html=1;fontSize=14;fontStyle=0;verticalAlign=middle;align=center;fontColor=#990000;" parent="1" vertex="1">
          <mxGeometry x="1117" y="225" width="30" height="25" as="geometry" />
        </mxCell>
        <mxCell id="_ySltDEQZnsAi1axNjof-153" value="" style="group" parent="1" vertex="1" connectable="0">
          <mxGeometry x="170" y="260" width="20" height="20" as="geometry" />
        </mxCell>
        <mxCell id="_ySltDEQZnsAi1axNjof-154" value="" style="ellipse;whiteSpace=wrap;html=1;aspect=fixed;" parent="_ySltDEQZnsAi1axNjof-153" vertex="1">
          <mxGeometry width="20" height="20" as="geometry" />
        </mxCell>
        <mxCell id="_ySltDEQZnsAi1axNjof-155" value="" style="endArrow=none;html=1;rounded=0;" parent="_ySltDEQZnsAi1axNjof-153" edge="1">
          <mxGeometry width="50" height="50" relative="1" as="geometry">
            <mxPoint y="10" as="sourcePoint" />
            <mxPoint x="20" y="10" as="targetPoint" />
          </mxGeometry>
        </mxCell>
        <mxCell id="_ySltDEQZnsAi1axNjof-156" value="" style="endArrow=none;html=1;rounded=0;" parent="_ySltDEQZnsAi1axNjof-153" edge="1">
          <mxGeometry width="50" height="50" relative="1" as="geometry">
            <mxPoint x="9.889999999999986" y="20" as="sourcePoint" />
            <mxPoint x="9.889999999999986" as="targetPoint" />
          </mxGeometry>
        </mxCell>
        <mxCell id="_ySltDEQZnsAi1axNjof-157" value="" style="endArrow=block;html=1;rounded=0;endFill=1;exitX=0.5;exitY=1;exitDx=0;exitDy=0;entryX=0.5;entryY=0;entryDx=0;entryDy=0;" parent="1" target="_ySltDEQZnsAi1axNjof-154" edge="1">
          <mxGeometry width="50" height="50" relative="1" as="geometry">
            <mxPoint x="180" y="215" as="sourcePoint" />
            <mxPoint x="209.89999999999998" y="260" as="targetPoint" />
          </mxGeometry>
        </mxCell>
        <mxCell id="_ySltDEQZnsAi1axNjof-164" style="edgeStyle=orthogonalEdgeStyle;rounded=0;orthogonalLoop=1;jettySize=auto;html=1;exitX=1;exitY=0.5;exitDx=0;exitDy=0;entryX=0;entryY=0.5;entryDx=0;entryDy=0;endArrow=block;endFill=1;" parent="1" source="_ySltDEQZnsAi1axNjof-154" target="u56SzxZeArUy4DGVQt2y-3" edge="1">
          <mxGeometry relative="1" as="geometry">
            <mxPoint x="196.5000000000033" y="270" as="targetPoint" />
          </mxGeometry>
        </mxCell>
        <mxCell id="_ySltDEQZnsAi1axNjof-165" value="$$scan\_out$$" style="text;strokeColor=none;fillColor=none;html=1;fontSize=16;fontStyle=0;verticalAlign=middle;align=center;" parent="1" vertex="1">
          <mxGeometry x="130" y="195" width="100" height="20" as="geometry" />
        </mxCell>
        <mxCell id="_ySltDEQZnsAi1axNjof-171" value="" style="group" parent="1" vertex="1" connectable="0">
          <mxGeometry x="670" y="340.94" width="20" height="20" as="geometry" />
        </mxCell>
        <mxCell id="_ySltDEQZnsAi1axNjof-172" value="" style="ellipse;whiteSpace=wrap;html=1;aspect=fixed;" parent="_ySltDEQZnsAi1axNjof-171" vertex="1">
          <mxGeometry width="20" height="20" as="geometry" />
        </mxCell>
        <mxCell id="_ySltDEQZnsAi1axNjof-173" value="" style="endArrow=none;html=1;rounded=0;" parent="_ySltDEQZnsAi1axNjof-171" edge="1">
          <mxGeometry width="50" height="50" relative="1" as="geometry">
            <mxPoint y="10" as="sourcePoint" />
            <mxPoint x="20" y="10" as="targetPoint" />
          </mxGeometry>
        </mxCell>
        <mxCell id="_ySltDEQZnsAi1axNjof-174" value="" style="endArrow=none;html=1;rounded=0;" parent="_ySltDEQZnsAi1axNjof-171" edge="1">
          <mxGeometry width="50" height="50" relative="1" as="geometry">
            <mxPoint x="9.889999999999986" y="20" as="sourcePoint" />
            <mxPoint x="9.889999999999986" as="targetPoint" />
          </mxGeometry>
        </mxCell>
        <mxCell id="7emA51480ugqHGCs2wyN-15" style="edgeStyle=orthogonalEdgeStyle;rounded=0;orthogonalLoop=1;jettySize=auto;html=1;exitX=0.5;exitY=0;exitDx=0;exitDy=0;entryX=0;entryY=0.5;entryDx=0;entryDy=0;strokeColor=#7D7D7D;endArrow=none;endFill=0;" parent="1" source="7emA51480ugqHGCs2wyN-1" target="_ySltDEQZnsAi1axNjof-8" edge="1">
          <mxGeometry relative="1" as="geometry">
            <Array as="points">
              <mxPoint x="332" y="295" />
            </Array>
          </mxGeometry>
        </mxCell>
        <mxCell id="7emA51480ugqHGCs2wyN-17" style="edgeStyle=orthogonalEdgeStyle;rounded=0;orthogonalLoop=1;jettySize=auto;html=1;exitX=1;exitY=0.5;exitDx=0;exitDy=0;entryX=0;entryY=0.5;entryDx=0;entryDy=0;endArrow=none;endFill=0;strokeColor=#7D7D7D;" parent="1" source="7emA51480ugqHGCs2wyN-1" target="7emA51480ugqHGCs2wyN-5" edge="1">
          <mxGeometry relative="1" as="geometry" />
        </mxCell>
        <mxCell id="7emA51480ugqHGCs2wyN-1" value="" style="ellipse;whiteSpace=wrap;html=1;aspect=fixed;fillColor=#7D7D7D;strokeColor=none;" parent="1" vertex="1">
          <mxGeometry x="328.5" y="314.94" width="7" height="7" as="geometry" />
        </mxCell>
        <mxCell id="7emA51480ugqHGCs2wyN-28" style="edgeStyle=orthogonalEdgeStyle;rounded=0;orthogonalLoop=1;jettySize=auto;html=1;exitX=0.5;exitY=0;exitDx=0;exitDy=0;entryX=0;entryY=0.5;entryDx=0;entryDy=0;endArrow=none;endFill=0;strokeColor=#7D7D7D;" parent="1" source="7emA51480ugqHGCs2wyN-2" target="_ySltDEQZnsAi1axNjof-107" edge="1">
          <mxGeometry relative="1" as="geometry">
            <Array as="points">
              <mxPoint x="782" y="295" />
            </Array>
          </mxGeometry>
        </mxCell>
        <mxCell id="7emA51480ugqHGCs2wyN-40" style="edgeStyle=orthogonalEdgeStyle;rounded=0;orthogonalLoop=1;jettySize=auto;html=1;exitX=1;exitY=0.5;exitDx=0;exitDy=0;entryX=0;entryY=0.5;entryDx=0;entryDy=0;endArrow=none;endFill=0;strokeColor=#7D7D7D;" parent="1" source="7emA51480ugqHGCs2wyN-2" target="7emA51480ugqHGCs2wyN-32" edge="1">
          <mxGeometry relative="1" as="geometry" />
        </mxCell>
        <mxCell id="7emA51480ugqHGCs2wyN-2" value="" style="ellipse;whiteSpace=wrap;html=1;aspect=fixed;fillColor=#7D7D7D;strokeColor=none;" parent="1" vertex="1">
          <mxGeometry x="778" y="314.44" width="7" height="7" as="geometry" />
        </mxCell>
        <mxCell id="7emA51480ugqHGCs2wyN-7" style="edgeStyle=orthogonalEdgeStyle;rounded=0;orthogonalLoop=1;jettySize=auto;html=1;exitX=0.5;exitY=0;exitDx=0;exitDy=0;entryX=0;entryY=0.5;entryDx=0;entryDy=0;endArrow=none;endFill=0;strokeColor=#7d7d7d;jumpStyle=none;" parent="1" source="7emA51480ugqHGCs2wyN-3" target="_ySltDEQZnsAi1axNjof-95" edge="1">
          <mxGeometry relative="1" as="geometry">
            <Array as="points">
              <mxPoint x="692" y="295" />
            </Array>
          </mxGeometry>
        </mxCell>
        <mxCell id="7emA51480ugqHGCs2wyN-29" style="edgeStyle=orthogonalEdgeStyle;rounded=0;orthogonalLoop=1;jettySize=auto;html=1;exitX=1;exitY=0.5;exitDx=0;exitDy=0;entryX=0;entryY=0.5;entryDx=0;entryDy=0;endArrow=none;endFill=0;strokeColor=#7D7D7D;" parent="1" source="7emA51480ugqHGCs2wyN-3" target="7emA51480ugqHGCs2wyN-2" edge="1">
          <mxGeometry relative="1" as="geometry" />
        </mxCell>
        <mxCell id="7emA51480ugqHGCs2wyN-3" value="" style="ellipse;whiteSpace=wrap;html=1;aspect=fixed;fillColor=#7D7D7D;strokeColor=none;" parent="1" vertex="1">
          <mxGeometry x="688" y="314.44" width="7" height="7" as="geometry" />
        </mxCell>
        <mxCell id="7emA51480ugqHGCs2wyN-18" style="edgeStyle=orthogonalEdgeStyle;rounded=0;orthogonalLoop=1;jettySize=auto;html=1;exitX=0.5;exitY=0;exitDx=0;exitDy=0;entryX=0;entryY=0.5;entryDx=0;entryDy=0;endArrow=none;endFill=0;strokeColor=#7D7D7D;" parent="1" source="7emA51480ugqHGCs2wyN-4" target="_ySltDEQZnsAi1axNjof-77" edge="1">
          <mxGeometry relative="1" as="geometry">
            <Array as="points">
              <mxPoint x="572" y="295" />
            </Array>
          </mxGeometry>
        </mxCell>
        <mxCell id="7emA51480ugqHGCs2wyN-20" style="edgeStyle=orthogonalEdgeStyle;rounded=0;orthogonalLoop=1;jettySize=auto;html=1;exitX=1;exitY=0.5;exitDx=0;exitDy=0;entryX=0;entryY=0.5;entryDx=0;entryDy=0;endArrow=none;endFill=0;strokeColor=#7D7D7D;" parent="1" source="7emA51480ugqHGCs2wyN-4" target="7emA51480ugqHGCs2wyN-3" edge="1">
          <mxGeometry relative="1" as="geometry" />
        </mxCell>
        <mxCell id="7emA51480ugqHGCs2wyN-4" value="" style="ellipse;whiteSpace=wrap;html=1;aspect=fixed;fillColor=#7D7D7D;strokeColor=none;" parent="1" vertex="1">
          <mxGeometry x="568" y="314.44" width="7" height="7" as="geometry" />
        </mxCell>
        <mxCell id="7emA51480ugqHGCs2wyN-16" style="edgeStyle=orthogonalEdgeStyle;rounded=0;orthogonalLoop=1;jettySize=auto;html=1;exitX=0.5;exitY=0;exitDx=0;exitDy=0;entryX=0;entryY=0.5;entryDx=0;entryDy=0;endArrow=none;endFill=0;strokeColor=#7D7D7D;" parent="1" source="7emA51480ugqHGCs2wyN-5" target="_ySltDEQZnsAi1axNjof-59" edge="1">
          <mxGeometry relative="1" as="geometry">
            <Array as="points">
              <mxPoint x="452" y="295" />
            </Array>
          </mxGeometry>
        </mxCell>
        <mxCell id="7emA51480ugqHGCs2wyN-19" style="edgeStyle=orthogonalEdgeStyle;rounded=0;orthogonalLoop=1;jettySize=auto;html=1;exitX=1;exitY=0.5;exitDx=0;exitDy=0;entryX=0;entryY=0.5;entryDx=0;entryDy=0;strokeColor=#7D7D7D;endArrow=none;endFill=0;" parent="1" source="7emA51480ugqHGCs2wyN-5" target="7emA51480ugqHGCs2wyN-4" edge="1">
          <mxGeometry relative="1" as="geometry" />
        </mxCell>
        <mxCell id="7emA51480ugqHGCs2wyN-5" value="" style="ellipse;whiteSpace=wrap;html=1;aspect=fixed;fillColor=#7D7D7D;strokeColor=none;" parent="1" vertex="1">
          <mxGeometry x="448" y="314.94" width="7" height="7" as="geometry" />
        </mxCell>
        <mxCell id="7emA51480ugqHGCs2wyN-11" style="edgeStyle=orthogonalEdgeStyle;rounded=0;orthogonalLoop=1;jettySize=auto;html=1;exitX=0;exitY=0.5;exitDx=0;exitDy=0;entryX=0.5;entryY=0;entryDx=0;entryDy=0;endArrow=none;endFill=0;strokeColor=#7d7d7d;" parent="1" source="u56SzxZeArUy4DGVQt2y-6" target="V9JGBw6v58sDr1h8HY5V-1" edge="1">
          <mxGeometry relative="1" as="geometry" />
        </mxCell>
        <mxCell id="_ySltDEQZnsAi1axNjof-177" style="edgeStyle=orthogonalEdgeStyle;rounded=0;orthogonalLoop=1;jettySize=auto;html=1;exitX=0;exitY=0.5;exitDx=0;exitDy=0;entryX=0.5;entryY=1;entryDx=0;entryDy=0;endArrow=block;endFill=1;jumpStyle=none;" parent="1" source="_ySltDEQZnsAi1axNjof-172" target="_ySltDEQZnsAi1axNjof-154" edge="1">
          <mxGeometry relative="1" as="geometry" />
        </mxCell>
        <mxCell id="_ySltDEQZnsAi1axNjof-175" style="edgeStyle=orthogonalEdgeStyle;rounded=0;orthogonalLoop=1;jettySize=auto;html=1;exitX=0.5;exitY=1;exitDx=0;exitDy=0;endArrow=block;endFill=1;entryX=0.5;entryY=0;entryDx=0;entryDy=0;" parent="1" source="_ySltDEQZnsAi1axNjof-88" target="_ySltDEQZnsAi1axNjof-172" edge="1">
          <mxGeometry relative="1" as="geometry">
            <mxPoint x="685.0384615384615" y="310" as="targetPoint" />
          </mxGeometry>
        </mxCell>
        <mxCell id="_ySltDEQZnsAi1axNjof-55" value="" style="group" parent="1" vertex="1" connectable="0">
          <mxGeometry x="460" y="250" width="60" height="60" as="geometry" />
        </mxCell>
        <mxCell id="_ySltDEQZnsAi1axNjof-56" value="" style="group;fillColor=#fff2cc;strokeColor=#000000;container=0;" parent="_ySltDEQZnsAi1axNjof-55" vertex="1" connectable="0">
          <mxGeometry width="60" height="60" as="geometry" />
        </mxCell>
        <mxCell id="_ySltDEQZnsAi1axNjof-57" value="D" style="text;html=1;strokeColor=none;fillColor=none;align=center;verticalAlign=middle;whiteSpace=wrap;rounded=0;" parent="_ySltDEQZnsAi1axNjof-55" vertex="1">
          <mxGeometry y="10" width="17.142857142857142" height="20" as="geometry" />
        </mxCell>
        <mxCell id="_ySltDEQZnsAi1axNjof-58" value="Q" style="text;html=1;strokeColor=none;fillColor=none;align=center;verticalAlign=middle;whiteSpace=wrap;rounded=0;" parent="_ySltDEQZnsAi1axNjof-55" vertex="1">
          <mxGeometry x="42.85714285714283" y="10" width="17.142857142857142" height="20" as="geometry" />
        </mxCell>
        <mxCell id="_ySltDEQZnsAi1axNjof-59" value="" style="triangle;whiteSpace=wrap;html=1;fillColor=#FFF2CC;" parent="_ySltDEQZnsAi1axNjof-55" vertex="1">
          <mxGeometry y="40" width="8.571428571428571" height="10" as="geometry" />
        </mxCell>
        <mxCell id="_ySltDEQZnsAi1axNjof-4" value="" style="group" parent="1" vertex="1" connectable="0">
          <mxGeometry x="340" y="250" width="60" height="60" as="geometry" />
        </mxCell>
        <mxCell id="_ySltDEQZnsAi1axNjof-5" value="" style="group;fillColor=#fff2cc;strokeColor=#000000;container=0;" parent="_ySltDEQZnsAi1axNjof-4" vertex="1" connectable="0">
          <mxGeometry width="60" height="60" as="geometry" />
        </mxCell>
        <mxCell id="_ySltDEQZnsAi1axNjof-6" value="D" style="text;html=1;strokeColor=none;fillColor=none;align=center;verticalAlign=middle;whiteSpace=wrap;rounded=0;" parent="_ySltDEQZnsAi1axNjof-4" vertex="1">
          <mxGeometry y="10" width="17.142857142857142" height="20" as="geometry" />
        </mxCell>
        <mxCell id="_ySltDEQZnsAi1axNjof-7" value="Q" style="text;html=1;strokeColor=none;fillColor=none;align=center;verticalAlign=middle;whiteSpace=wrap;rounded=0;" parent="_ySltDEQZnsAi1axNjof-4" vertex="1">
          <mxGeometry x="42.85714285714283" y="10" width="17.142857142857142" height="20" as="geometry" />
        </mxCell>
        <mxCell id="_ySltDEQZnsAi1axNjof-8" value="" style="triangle;whiteSpace=wrap;html=1;fillColor=#FFF2CC;" parent="_ySltDEQZnsAi1axNjof-4" vertex="1">
          <mxGeometry y="40" width="8.571428571428571" height="10" as="geometry" />
        </mxCell>
        <mxCell id="_ySltDEQZnsAi1axNjof-3" value="" style="group" parent="1" vertex="1" connectable="0">
          <mxGeometry x="220" y="250" width="60" height="60" as="geometry" />
        </mxCell>
        <mxCell id="u56SzxZeArUy4DGVQt2y-1" value="" style="group;fillColor=#fff2cc;strokeColor=#000000;container=0;" parent="_ySltDEQZnsAi1axNjof-3" vertex="1" connectable="0">
          <mxGeometry width="60" height="60" as="geometry" />
        </mxCell>
        <mxCell id="u56SzxZeArUy4DGVQt2y-3" value="D" style="text;html=1;strokeColor=none;fillColor=none;align=center;verticalAlign=middle;whiteSpace=wrap;rounded=0;" parent="_ySltDEQZnsAi1axNjof-3" vertex="1">
          <mxGeometry y="10" width="17.142857142857142" height="20" as="geometry" />
        </mxCell>
        <mxCell id="u56SzxZeArUy4DGVQt2y-5" value="Q" style="text;html=1;strokeColor=none;fillColor=none;align=center;verticalAlign=middle;whiteSpace=wrap;rounded=0;" parent="_ySltDEQZnsAi1axNjof-3" vertex="1">
          <mxGeometry x="42.85714285714283" y="10" width="17.142857142857142" height="20" as="geometry" />
        </mxCell>
        <mxCell id="u56SzxZeArUy4DGVQt2y-6" value="" style="triangle;whiteSpace=wrap;html=1;fillColor=#FFF2CC;" parent="_ySltDEQZnsAi1axNjof-3" vertex="1">
          <mxGeometry y="40" width="8.571428571428571" height="10" as="geometry" />
        </mxCell>
        <mxCell id="_ySltDEQZnsAi1axNjof-73" value="" style="group" parent="1" vertex="1" connectable="0">
          <mxGeometry x="580" y="250" width="60" height="60" as="geometry" />
        </mxCell>
        <mxCell id="_ySltDEQZnsAi1axNjof-74" value="" style="group;fillColor=#fff2cc;strokeColor=#000000;container=0;" parent="_ySltDEQZnsAi1axNjof-73" vertex="1" connectable="0">
          <mxGeometry width="60" height="60" as="geometry" />
        </mxCell>
        <mxCell id="_ySltDEQZnsAi1axNjof-75" value="D" style="text;html=1;strokeColor=none;fillColor=none;align=center;verticalAlign=middle;whiteSpace=wrap;rounded=0;" parent="_ySltDEQZnsAi1axNjof-73" vertex="1">
          <mxGeometry y="10" width="17.142857142857142" height="20" as="geometry" />
        </mxCell>
        <mxCell id="_ySltDEQZnsAi1axNjof-76" value="Q" style="text;html=1;strokeColor=none;fillColor=none;align=center;verticalAlign=middle;whiteSpace=wrap;rounded=0;" parent="_ySltDEQZnsAi1axNjof-73" vertex="1">
          <mxGeometry x="42.85714285714283" y="10" width="17.142857142857142" height="20" as="geometry" />
        </mxCell>
        <mxCell id="_ySltDEQZnsAi1axNjof-77" value="" style="triangle;whiteSpace=wrap;html=1;fillColor=#FFF2CC;" parent="_ySltDEQZnsAi1axNjof-73" vertex="1">
          <mxGeometry y="40" width="8.571428571428571" height="10" as="geometry" />
        </mxCell>
        <mxCell id="_ySltDEQZnsAi1axNjof-91" value="" style="group" parent="1" vertex="1" connectable="0">
          <mxGeometry x="700" y="250" width="60" height="60" as="geometry" />
        </mxCell>
        <mxCell id="_ySltDEQZnsAi1axNjof-92" value="" style="group;fillColor=#fff2cc;strokeColor=#000000;container=0;" parent="_ySltDEQZnsAi1axNjof-91" vertex="1" connectable="0">
          <mxGeometry width="60" height="60" as="geometry" />
        </mxCell>
        <mxCell id="_ySltDEQZnsAi1axNjof-93" value="D" style="text;html=1;strokeColor=none;fillColor=none;align=center;verticalAlign=middle;whiteSpace=wrap;rounded=0;" parent="_ySltDEQZnsAi1axNjof-91" vertex="1">
          <mxGeometry y="10" width="17.142857142857142" height="20" as="geometry" />
        </mxCell>
        <mxCell id="_ySltDEQZnsAi1axNjof-94" value="Q" style="text;html=1;strokeColor=none;fillColor=none;align=center;verticalAlign=middle;whiteSpace=wrap;rounded=0;" parent="_ySltDEQZnsAi1axNjof-91" vertex="1">
          <mxGeometry x="42.85714285714283" y="10" width="17.142857142857142" height="20" as="geometry" />
        </mxCell>
        <mxCell id="_ySltDEQZnsAi1axNjof-95" value="" style="triangle;whiteSpace=wrap;html=1;fillColor=#FFF2CC;" parent="_ySltDEQZnsAi1axNjof-91" vertex="1">
          <mxGeometry y="40" width="8.571428571428571" height="10" as="geometry" />
        </mxCell>
        <mxCell id="_ySltDEQZnsAi1axNjof-103" value="" style="group" parent="1" vertex="1" connectable="0">
          <mxGeometry x="790" y="250" width="60" height="60" as="geometry" />
        </mxCell>
        <mxCell id="_ySltDEQZnsAi1axNjof-104" value="" style="group;fillColor=#fff2cc;strokeColor=#000000;container=0;" parent="_ySltDEQZnsAi1axNjof-103" vertex="1" connectable="0">
          <mxGeometry width="60" height="60" as="geometry" />
        </mxCell>
        <mxCell id="_ySltDEQZnsAi1axNjof-105" value="D" style="text;html=1;strokeColor=none;fillColor=none;align=center;verticalAlign=middle;whiteSpace=wrap;rounded=0;" parent="_ySltDEQZnsAi1axNjof-103" vertex="1">
          <mxGeometry y="10" width="17.142857142857142" height="20" as="geometry" />
        </mxCell>
        <mxCell id="_ySltDEQZnsAi1axNjof-106" value="Q" style="text;html=1;strokeColor=none;fillColor=none;align=center;verticalAlign=middle;whiteSpace=wrap;rounded=0;" parent="_ySltDEQZnsAi1axNjof-103" vertex="1">
          <mxGeometry x="42.85714285714283" y="10" width="17.142857142857142" height="20" as="geometry" />
        </mxCell>
        <mxCell id="_ySltDEQZnsAi1axNjof-107" value="" style="triangle;whiteSpace=wrap;html=1;fillColor=#FFF2CC;" parent="_ySltDEQZnsAi1axNjof-103" vertex="1">
          <mxGeometry y="40" width="8.571428571428571" height="10" as="geometry" />
        </mxCell>
        <mxCell id="7emA51480ugqHGCs2wyN-41" style="edgeStyle=orthogonalEdgeStyle;rounded=0;orthogonalLoop=1;jettySize=auto;html=1;exitX=1;exitY=0.5;exitDx=0;exitDy=0;entryX=0;entryY=0.5;entryDx=0;entryDy=0;endArrow=none;endFill=0;strokeColor=#7D7D7D;" parent="1" source="7emA51480ugqHGCs2wyN-32" target="7emA51480ugqHGCs2wyN-38" edge="1">
          <mxGeometry relative="1" as="geometry" />
        </mxCell>
        <mxCell id="7emA51480ugqHGCs2wyN-45" style="edgeStyle=orthogonalEdgeStyle;rounded=0;orthogonalLoop=1;jettySize=auto;html=1;exitX=0.5;exitY=0;exitDx=0;exitDy=0;entryX=0;entryY=0.5;entryDx=0;entryDy=0;strokeColor=#7D7D7D;endArrow=none;endFill=0;" parent="1" source="7emA51480ugqHGCs2wyN-32" target="_ySltDEQZnsAi1axNjof-118" edge="1">
          <mxGeometry relative="1" as="geometry">
            <Array as="points">
              <mxPoint x="872" y="295" />
            </Array>
          </mxGeometry>
        </mxCell>
        <mxCell id="7emA51480ugqHGCs2wyN-32" value="" style="ellipse;whiteSpace=wrap;html=1;aspect=fixed;fillColor=#7D7D7D;strokeColor=none;" parent="1" vertex="1">
          <mxGeometry x="868" y="314.44" width="7" height="7" as="geometry" />
        </mxCell>
        <mxCell id="7emA51480ugqHGCs2wyN-42" style="edgeStyle=orthogonalEdgeStyle;rounded=0;orthogonalLoop=1;jettySize=auto;html=1;exitX=1;exitY=0.5;exitDx=0;exitDy=0;endArrow=none;endFill=0;strokeColor=#7D7D7D;entryX=0;entryY=0.5;entryDx=0;entryDy=0;" parent="1" source="7emA51480ugqHGCs2wyN-38" target="_ySltDEQZnsAi1axNjof-140" edge="1">
          <mxGeometry relative="1" as="geometry">
            <mxPoint x="1039" y="318" as="targetPoint" />
            <Array as="points">
              <mxPoint x="1052" y="318" />
              <mxPoint x="1052" y="295" />
            </Array>
          </mxGeometry>
        </mxCell>
        <mxCell id="7emA51480ugqHGCs2wyN-44" style="edgeStyle=orthogonalEdgeStyle;rounded=0;orthogonalLoop=1;jettySize=auto;html=1;entryX=0;entryY=0.5;entryDx=0;entryDy=0;endArrow=none;endFill=0;strokeColor=#7D7D7D;exitX=0.5;exitY=0;exitDx=0;exitDy=0;" parent="1" source="7emA51480ugqHGCs2wyN-38" edge="1">
          <mxGeometry relative="1" as="geometry">
            <mxPoint x="958" y="309" as="sourcePoint" />
            <mxPoint x="970.99" y="295" as="targetPoint" />
            <Array as="points">
              <mxPoint x="962" y="295" />
            </Array>
          </mxGeometry>
        </mxCell>
        <mxCell id="7emA51480ugqHGCs2wyN-38" value="" style="ellipse;whiteSpace=wrap;html=1;aspect=fixed;fillColor=#7D7D7D;strokeColor=none;" parent="1" vertex="1">
          <mxGeometry x="958" y="314.44" width="7" height="7" as="geometry" />
        </mxCell>
        <mxCell id="_ySltDEQZnsAi1axNjof-114" value="" style="group" parent="1" vertex="1" connectable="0">
          <mxGeometry x="880" y="250" width="60" height="60" as="geometry" />
        </mxCell>
        <mxCell id="_ySltDEQZnsAi1axNjof-115" value="" style="group;fillColor=#fff2cc;strokeColor=#000000;container=0;" parent="_ySltDEQZnsAi1axNjof-114" vertex="1" connectable="0">
          <mxGeometry width="60" height="60" as="geometry" />
        </mxCell>
        <mxCell id="_ySltDEQZnsAi1axNjof-116" value="D" style="text;html=1;strokeColor=none;fillColor=none;align=center;verticalAlign=middle;whiteSpace=wrap;rounded=0;" parent="_ySltDEQZnsAi1axNjof-114" vertex="1">
          <mxGeometry y="10" width="17.142857142857142" height="20" as="geometry" />
        </mxCell>
        <mxCell id="_ySltDEQZnsAi1axNjof-117" value="Q" style="text;html=1;strokeColor=none;fillColor=none;align=center;verticalAlign=middle;whiteSpace=wrap;rounded=0;" parent="_ySltDEQZnsAi1axNjof-114" vertex="1">
          <mxGeometry x="42.85714285714283" y="10" width="17.142857142857142" height="20" as="geometry" />
        </mxCell>
        <mxCell id="_ySltDEQZnsAi1axNjof-118" value="" style="triangle;whiteSpace=wrap;html=1;fillColor=#FFF2CC;" parent="_ySltDEQZnsAi1axNjof-114" vertex="1">
          <mxGeometry y="40" width="8.571428571428571" height="10" as="geometry" />
        </mxCell>
        <mxCell id="_ySltDEQZnsAi1axNjof-125" value="" style="group" parent="1" vertex="1" connectable="0">
          <mxGeometry x="970" y="250" width="60" height="60" as="geometry" />
        </mxCell>
        <mxCell id="_ySltDEQZnsAi1axNjof-126" value="" style="group;fillColor=#fff2cc;strokeColor=#000000;container=0;" parent="_ySltDEQZnsAi1axNjof-125" vertex="1" connectable="0">
          <mxGeometry width="60" height="60" as="geometry" />
        </mxCell>
        <mxCell id="_ySltDEQZnsAi1axNjof-127" value="D" style="text;html=1;strokeColor=none;fillColor=none;align=center;verticalAlign=middle;whiteSpace=wrap;rounded=0;" parent="_ySltDEQZnsAi1axNjof-125" vertex="1">
          <mxGeometry y="10" width="17.142857142857142" height="20" as="geometry" />
        </mxCell>
        <mxCell id="_ySltDEQZnsAi1axNjof-128" value="Q" style="text;html=1;strokeColor=none;fillColor=none;align=center;verticalAlign=middle;whiteSpace=wrap;rounded=0;" parent="_ySltDEQZnsAi1axNjof-125" vertex="1">
          <mxGeometry x="42.85714285714283" y="10" width="17.142857142857142" height="20" as="geometry" />
        </mxCell>
        <mxCell id="_ySltDEQZnsAi1axNjof-129" value="" style="triangle;whiteSpace=wrap;html=1;fillColor=#FFF2CC;" parent="_ySltDEQZnsAi1axNjof-125" vertex="1">
          <mxGeometry y="40" width="8.571428571428571" height="10" as="geometry" />
        </mxCell>
        <mxCell id="_ySltDEQZnsAi1axNjof-136" value="" style="group" parent="1" vertex="1" connectable="0">
          <mxGeometry x="1060" y="250" width="60" height="60" as="geometry" />
        </mxCell>
        <mxCell id="_ySltDEQZnsAi1axNjof-137" value="" style="group;fillColor=#fff2cc;strokeColor=#000000;container=0;" parent="_ySltDEQZnsAi1axNjof-136" vertex="1" connectable="0">
          <mxGeometry width="60" height="60" as="geometry" />
        </mxCell>
        <mxCell id="_ySltDEQZnsAi1axNjof-138" value="D" style="text;html=1;strokeColor=none;fillColor=none;align=center;verticalAlign=middle;whiteSpace=wrap;rounded=0;" parent="_ySltDEQZnsAi1axNjof-136" vertex="1">
          <mxGeometry y="10" width="17.142857142857142" height="20" as="geometry" />
        </mxCell>
        <mxCell id="_ySltDEQZnsAi1axNjof-139" value="Q" style="text;html=1;strokeColor=none;fillColor=none;align=center;verticalAlign=middle;whiteSpace=wrap;rounded=0;" parent="_ySltDEQZnsAi1axNjof-136" vertex="1">
          <mxGeometry x="42.85714285714283" y="10" width="17.142857142857142" height="20" as="geometry" />
        </mxCell>
        <mxCell id="_ySltDEQZnsAi1axNjof-140" value="" style="triangle;whiteSpace=wrap;html=1;fillColor=#FFF2CC;" parent="_ySltDEQZnsAi1axNjof-136" vertex="1">
          <mxGeometry y="40" width="8.571428571428571" height="10" as="geometry" />
        </mxCell>
        <mxCell id="QUsFwAliXAdcdGZ6yvbG-1" value="$$z[9]$$" style="text;strokeColor=none;fillColor=none;html=1;fontSize=14;fontStyle=0;verticalAlign=middle;align=center;fontColor=#000000;" vertex="1" parent="1">
          <mxGeometry x="188" y="241" width="30" height="25" as="geometry" />
        </mxCell>
      </root>
    </mxGraphModel>
  </diagram>
  <diagram id="kTvXqZuVVxqGaKEz6EC4" name="Block_diagram">
    <mxGraphModel dx="531" dy="286" grid="1" gridSize="1" guides="1" tooltips="1" connect="1" arrows="1" fold="1" page="1" pageScale="1" pageWidth="1169" pageHeight="827" math="1" shadow="0">
      <root>
        <mxCell id="0" />
        <mxCell id="1" parent="0" />
        <mxCell id="3sGDohS3sVP4OShMkrUW-68" value="pi" style="text;html=1;strokeColor=none;fillColor=none;align=center;verticalAlign=middle;whiteSpace=wrap;rounded=0;fontStyle=1;fontSize=18;" parent="1" vertex="1">
          <mxGeometry x="60" y="164.69" width="32" height="23.75" as="geometry" />
        </mxCell>
        <mxCell id="3sGDohS3sVP4OShMkrUW-69" value="po" style="text;html=1;strokeColor=none;fillColor=none;align=center;verticalAlign=middle;whiteSpace=wrap;rounded=0;fontStyle=1;fontSize=18;" parent="1" vertex="1">
          <mxGeometry x="1075" y="182.64" width="40" height="26.25" as="geometry" />
        </mxCell>
        <mxCell id="3sGDohS3sVP4OShMkrUW-70" value="pass_nfail" style="text;html=1;strokeColor=none;fillColor=none;align=center;verticalAlign=middle;whiteSpace=wrap;rounded=0;fontStyle=1;fontSize=18;" parent="1" vertex="1">
          <mxGeometry x="1072" y="251.38" width="95" height="29.12" as="geometry" />
        </mxCell>
        <mxCell id="3sGDohS3sVP4OShMkrUW-89" value="bist_end" style="text;html=1;strokeColor=none;fillColor=none;align=center;verticalAlign=middle;whiteSpace=wrap;rounded=0;fontStyle=1;fontSize=18;" parent="1" vertex="1">
          <mxGeometry x="1073" y="363.7" width="85" height="23.75" as="geometry" />
        </mxCell>
        <mxCell id="rJuk06R3LivjcmxmuOkn-2" value="" style="rounded=0;whiteSpace=wrap;html=1;strokeWidth=2;fillColor=#CCE5FF;opacity=50;" parent="1" vertex="1">
          <mxGeometry x="107" y="125" width="942.5" height="325" as="geometry" />
        </mxCell>
        <mxCell id="rJuk06R3LivjcmxmuOkn-8" value="" style="rounded=0;whiteSpace=wrap;html=1;fillColor=#FFF2CC;strokeWidth=2;" parent="1" vertex="1">
          <mxGeometry x="373.35" y="269.05" width="110" height="36.89" as="geometry" />
        </mxCell>
        <mxCell id="rJuk06R3LivjcmxmuOkn-16" value="stateLFSR" style="text;html=1;strokeColor=none;fillColor=none;align=center;verticalAlign=middle;whiteSpace=wrap;rounded=0;fontStyle=1;fontSize=18;" parent="1" vertex="1">
          <mxGeometry x="378.35" y="277.5" width="100" height="20" as="geometry" />
        </mxCell>
        <mxCell id="rJuk06R3LivjcmxmuOkn-18" value="top_level" style="text;html=1;strokeColor=none;fillColor=none;align=center;verticalAlign=middle;whiteSpace=wrap;rounded=0;fontStyle=1;fontSize=22;opacity=50;fontColor=#000000;" parent="1" vertex="1">
          <mxGeometry x="113.5" y="130.39000000000001" width="111.5" height="30.55" as="geometry" />
        </mxCell>
        <mxCell id="qzl_0FQHeIpXsemMOcgw-105" style="edgeStyle=orthogonalEdgeStyle;rounded=0;orthogonalLoop=1;jettySize=auto;html=1;entryX=0;entryY=0.5;entryDx=0;entryDy=0;strokeWidth=2;endArrow=none;endFill=0;" parent="1" source="rJuk06R3LivjcmxmuOkn-55" target="qzl_0FQHeIpXsemMOcgw-104" edge="1">
          <mxGeometry relative="1" as="geometry" />
        </mxCell>
        <mxCell id="rJuk06R3LivjcmxmuOkn-55" value="reset" style="text;html=1;strokeColor=none;fillColor=none;align=center;verticalAlign=middle;whiteSpace=wrap;rounded=0;fontStyle=1;fontSize=18;" parent="1" vertex="1">
          <mxGeometry x="34" y="415.26" width="58" height="26.25" as="geometry" />
        </mxCell>
        <mxCell id="qzl_0FQHeIpXsemMOcgw-6" style="edgeStyle=orthogonalEdgeStyle;rounded=0;orthogonalLoop=1;jettySize=auto;html=1;exitX=1;exitY=0.5;exitDx=0;exitDy=0;exitPerimeter=0;entryX=0;entryY=0.5;entryDx=0;entryDy=0;strokeWidth=2;endArrow=none;endFill=0;" parent="1" source="rJuk06R3LivjcmxmuOkn-80" target="qzl_0FQHeIpXsemMOcgw-5" edge="1">
          <mxGeometry relative="1" as="geometry" />
        </mxCell>
        <mxCell id="rJuk06R3LivjcmxmuOkn-80" value="" style="verticalLabelPosition=bottom;shadow=0;dashed=0;align=center;html=1;verticalAlign=top;shape=mxgraph.electrical.logic_gates.logic_gate;operation=or;fillColor=none;strokeWidth=2;" parent="1" vertex="1">
          <mxGeometry x="289" y="405.93" width="40" height="30" as="geometry" />
        </mxCell>
        <mxCell id="qzl_0FQHeIpXsemMOcgw-48" style="edgeStyle=orthogonalEdgeStyle;rounded=0;orthogonalLoop=1;jettySize=auto;html=1;entryX=0;entryY=0.25;entryDx=0;entryDy=0;strokeWidth=5;endArrow=block;endFill=1;" parent="1" source="rJuk06R3LivjcmxmuOkn-88" target="rJuk06R3LivjcmxmuOkn-5" edge="1">
          <mxGeometry relative="1" as="geometry">
            <Array as="points">
              <mxPoint x="875" y="231.94" />
              <mxPoint x="875" y="250.94" />
            </Array>
          </mxGeometry>
        </mxCell>
        <mxCell id="rJuk06R3LivjcmxmuOkn-88" value="signature" style="text;html=1;strokeColor=default;fillColor=none;align=center;verticalAlign=middle;whiteSpace=wrap;rounded=0;fontStyle=0;fontSize=18;strokeWidth=2;" parent="1" vertex="1">
          <mxGeometry x="750" y="218.57" width="90" height="26.25" as="geometry" />
        </mxCell>
        <mxCell id="rJuk06R3LivjcmxmuOkn-98" style="edgeStyle=orthogonalEdgeStyle;rounded=0;orthogonalLoop=1;jettySize=auto;html=1;exitX=1;exitY=0.5;exitDx=0;exitDy=0;entryX=0;entryY=0.5;entryDx=0;entryDy=0;strokeWidth=2;endArrow=block;endFill=1;" parent="1" source="rJuk06R3LivjcmxmuOkn-97" target="rJuk06R3LivjcmxmuOkn-11" edge="1">
          <mxGeometry relative="1" as="geometry" />
        </mxCell>
        <mxCell id="rJuk06R3LivjcmxmuOkn-97" value="bist_start" style="text;html=1;strokeColor=none;fillColor=none;align=center;verticalAlign=middle;whiteSpace=wrap;rounded=0;fontStyle=1;fontSize=18;" parent="1" vertex="1">
          <mxGeometry y="339.56" width="93" height="26.25" as="geometry" />
        </mxCell>
        <mxCell id="rJuk06R3LivjcmxmuOkn-106" style="edgeStyle=orthogonalEdgeStyle;rounded=0;orthogonalLoop=1;jettySize=auto;html=1;exitX=1;exitY=0.5;exitDx=0;exitDy=0;entryX=0;entryY=0.5;entryDx=0;entryDy=0;strokeWidth=5;endArrow=block;endFill=1;" parent="1" source="rJuk06R3LivjcmxmuOkn-40" target="rJuk06R3LivjcmxmuOkn-71" edge="1">
          <mxGeometry relative="1" as="geometry" />
        </mxCell>
        <mxCell id="rJuk06R3LivjcmxmuOkn-108" style="edgeStyle=orthogonalEdgeStyle;rounded=0;orthogonalLoop=1;jettySize=auto;html=1;exitX=1;exitY=0.5;exitDx=0;exitDy=0;strokeWidth=5;endArrow=block;endFill=1;" parent="1" source="rJuk06R3LivjcmxmuOkn-23" edge="1">
          <mxGeometry relative="1" as="geometry">
            <mxPoint x="530" y="195.94" as="targetPoint" />
          </mxGeometry>
        </mxCell>
        <mxCell id="rJuk06R3LivjcmxmuOkn-109" value="clock" style="text;html=1;strokeColor=none;fillColor=none;align=center;verticalAlign=middle;whiteSpace=wrap;rounded=0;fontStyle=1;fontSize=18;" parent="1" vertex="1">
          <mxGeometry x="5" y="243.07" width="57" height="26.25" as="geometry" />
        </mxCell>
        <mxCell id="rJuk06R3LivjcmxmuOkn-39" value="" style="rounded=0;whiteSpace=wrap;html=1;fillColor=#FFF2CC;strokeWidth=2;" parent="1" vertex="1">
          <mxGeometry x="259" y="199.69" width="100" height="45" as="geometry" />
        </mxCell>
        <mxCell id="rJuk06R3LivjcmxmuOkn-40" value="inputLFSR" style="text;html=1;strokeColor=none;fillColor=none;align=center;verticalAlign=middle;whiteSpace=wrap;rounded=0;fontStyle=1;fontSize=18;" parent="1" vertex="1">
          <mxGeometry x="270.3618181818182" y="212.19" width="77.27272727272727" height="20" as="geometry" />
        </mxCell>
        <mxCell id="rJuk06R3LivjcmxmuOkn-130" style="edgeStyle=orthogonalEdgeStyle;rounded=0;orthogonalLoop=1;jettySize=auto;html=1;exitX=1;exitY=0.5;exitDx=0;exitDy=0;entryX=0;entryY=0.5;entryDx=0;entryDy=0;strokeWidth=2;endArrow=block;endFill=1;" parent="1" source="rJuk06R3LivjcmxmuOkn-5" target="3sGDohS3sVP4OShMkrUW-70" edge="1">
          <mxGeometry relative="1" as="geometry" />
        </mxCell>
        <mxCell id="rJuk06R3LivjcmxmuOkn-5" value="" style="rounded=0;whiteSpace=wrap;html=1;fillColor=none;strokeWidth=2;" parent="1" vertex="1">
          <mxGeometry x="908" y="235.94" width="110" height="60" as="geometry" />
        </mxCell>
        <mxCell id="rJuk06R3LivjcmxmuOkn-47" value="comparator" style="text;html=1;strokeColor=none;fillColor=none;align=center;verticalAlign=middle;whiteSpace=wrap;rounded=0;fontStyle=1;fontSize=18;" parent="1" vertex="1">
          <mxGeometry x="913" y="255.94" width="100" height="20" as="geometry" />
        </mxCell>
        <mxCell id="rJuk06R3LivjcmxmuOkn-113" value="reset_internal" style="text;html=1;strokeColor=none;fillColor=none;align=center;verticalAlign=middle;whiteSpace=wrap;rounded=0;fontStyle=0;fontSize=15;" parent="1" vertex="1">
          <mxGeometry x="845" y="426.06" width="91" height="20" as="geometry" />
        </mxCell>
        <mxCell id="rJuk06R3LivjcmxmuOkn-114" value="bist_running" style="text;html=1;strokeColor=none;fillColor=none;align=center;verticalAlign=middle;whiteSpace=wrap;rounded=0;fontStyle=0;fontSize=15;" parent="1" vertex="1">
          <mxGeometry x="690" y="326.44" width="84" height="20" as="geometry" />
        </mxCell>
        <mxCell id="rJuk06R3LivjcmxmuOkn-119" style="edgeStyle=orthogonalEdgeStyle;rounded=0;orthogonalLoop=1;jettySize=auto;html=1;exitX=1;exitY=0.25;exitDx=0;exitDy=0;fillColor=#000000;strokeColor=default;strokeWidth=5;endArrow=block;endFill=1;entryX=0;entryY=0.5;entryDx=0;entryDy=0;" parent="1" source="rJuk06R3LivjcmxmuOkn-3" target="3sGDohS3sVP4OShMkrUW-69" edge="1">
          <mxGeometry relative="1" as="geometry">
            <mxPoint x="1080" y="183.86" as="targetPoint" />
            <mxPoint x="670" y="183.86" as="sourcePoint" />
          </mxGeometry>
        </mxCell>
        <mxCell id="rJuk06R3LivjcmxmuOkn-133" style="edgeStyle=orthogonalEdgeStyle;rounded=0;orthogonalLoop=1;jettySize=auto;html=1;exitX=1;exitY=0.25;exitDx=0;exitDy=0;fillColor=#000000;strokeColor=default;entryX=0.004;entryY=0.684;entryDx=0;entryDy=0;entryPerimeter=0;strokeWidth=5;endArrow=block;endFill=1;" parent="1" edge="1">
          <mxGeometry relative="1" as="geometry">
            <mxPoint x="908.44" y="279.73499999999996" as="targetPoint" />
            <mxPoint x="840" y="279.55" as="sourcePoint" />
          </mxGeometry>
        </mxCell>
        <mxCell id="qzl_0FQHeIpXsemMOcgw-3" style="edgeStyle=orthogonalEdgeStyle;rounded=0;orthogonalLoop=1;jettySize=auto;html=1;exitX=0.5;exitY=0;exitDx=0;exitDy=0;entryX=0.75;entryY=1;entryDx=0;entryDy=0;strokeWidth=2;endArrow=block;endFill=1;" parent="1" source="qzl_0FQHeIpXsemMOcgw-1" target="rJuk06R3LivjcmxmuOkn-5" edge="1">
          <mxGeometry relative="1" as="geometry" />
        </mxCell>
        <mxCell id="qzl_0FQHeIpXsemMOcgw-4" style="edgeStyle=orthogonalEdgeStyle;rounded=0;orthogonalLoop=1;jettySize=auto;html=1;exitX=1;exitY=0.5;exitDx=0;exitDy=0;entryX=0;entryY=0.5;entryDx=0;entryDy=0;strokeWidth=2;endArrow=block;endFill=1;" parent="1" source="qzl_0FQHeIpXsemMOcgw-1" target="3sGDohS3sVP4OShMkrUW-89" edge="1">
          <mxGeometry relative="1" as="geometry" />
        </mxCell>
        <mxCell id="qzl_0FQHeIpXsemMOcgw-1" value="" style="ellipse;whiteSpace=wrap;html=1;aspect=fixed;fillColor=#000000;strokeColor=none;" parent="1" vertex="1">
          <mxGeometry x="985" y="370.69" width="10.25" height="10.25" as="geometry" />
        </mxCell>
        <mxCell id="qzl_0FQHeIpXsemMOcgw-7" style="edgeStyle=orthogonalEdgeStyle;rounded=0;orthogonalLoop=1;jettySize=auto;html=1;exitX=0.5;exitY=0;exitDx=0;exitDy=0;entryX=0.75;entryY=1;entryDx=0;entryDy=0;strokeWidth=2;endArrow=block;endFill=1;" parent="1" source="qzl_0FQHeIpXsemMOcgw-5" target="rJuk06R3LivjcmxmuOkn-39" edge="1">
          <mxGeometry relative="1" as="geometry" />
        </mxCell>
        <mxCell id="qzl_0FQHeIpXsemMOcgw-14" style="edgeStyle=orthogonalEdgeStyle;rounded=0;orthogonalLoop=1;jettySize=auto;html=1;exitX=1;exitY=0.5;exitDx=0;exitDy=0;entryX=0;entryY=0.5;entryDx=0;entryDy=0;strokeWidth=2;endArrow=none;endFill=0;" parent="1" source="qzl_0FQHeIpXsemMOcgw-5" target="qzl_0FQHeIpXsemMOcgw-13" edge="1">
          <mxGeometry relative="1" as="geometry" />
        </mxCell>
        <mxCell id="qzl_0FQHeIpXsemMOcgw-5" value="" style="ellipse;whiteSpace=wrap;html=1;aspect=fixed;fillColor=#000000;strokeColor=none;" parent="1" vertex="1">
          <mxGeometry x="328.15" y="415.81" width="10.25" height="10.25" as="geometry" />
        </mxCell>
        <mxCell id="rJuk06R3LivjcmxmuOkn-107" style="edgeStyle=orthogonalEdgeStyle;rounded=0;orthogonalLoop=1;jettySize=auto;html=1;exitX=0;exitY=0.25;exitDx=0;exitDy=0;entryX=1;entryY=0.5;entryDx=0;entryDy=0;strokeWidth=5;startArrow=block;startFill=1;endArrow=none;endFill=0;" parent="1" source="rJuk06R3LivjcmxmuOkn-23" target="3sGDohS3sVP4OShMkrUW-68" edge="1">
          <mxGeometry relative="1" as="geometry">
            <mxPoint x="100" y="175.94" as="targetPoint" />
          </mxGeometry>
        </mxCell>
        <mxCell id="qzl_0FQHeIpXsemMOcgw-10" value="" style="line;strokeWidth=2;direction=south;html=1;rotation=40;" parent="1" vertex="1">
          <mxGeometry x="393.23" y="165.39" width="10.85" height="21.8" as="geometry" />
        </mxCell>
        <mxCell id="qzl_0FQHeIpXsemMOcgw-11" value="4" style="text;strokeColor=none;fillColor=none;html=1;fontSize=15;fontStyle=1;verticalAlign=middle;align=center;labelBackgroundColor=none;fontColor=#000000;" parent="1" vertex="1">
          <mxGeometry x="389.5" y="156.44" width="12" height="15" as="geometry" />
        </mxCell>
        <mxCell id="qzl_0FQHeIpXsemMOcgw-15" style="edgeStyle=orthogonalEdgeStyle;rounded=0;orthogonalLoop=1;jettySize=auto;html=1;exitX=0.5;exitY=0;exitDx=0;exitDy=0;entryX=0.75;entryY=1;entryDx=0;entryDy=0;strokeWidth=2;endArrow=block;endFill=1;" parent="1" source="qzl_0FQHeIpXsemMOcgw-13" target="rJuk06R3LivjcmxmuOkn-8" edge="1">
          <mxGeometry relative="1" as="geometry" />
        </mxCell>
        <mxCell id="qzl_0FQHeIpXsemMOcgw-17" style="edgeStyle=orthogonalEdgeStyle;rounded=0;orthogonalLoop=1;jettySize=auto;html=1;exitX=1;exitY=0.5;exitDx=0;exitDy=0;entryX=0;entryY=0.5;entryDx=0;entryDy=0;strokeWidth=2;endArrow=none;endFill=0;" parent="1" source="qzl_0FQHeIpXsemMOcgw-13" target="qzl_0FQHeIpXsemMOcgw-21" edge="1">
          <mxGeometry relative="1" as="geometry" />
        </mxCell>
        <mxCell id="qzl_0FQHeIpXsemMOcgw-13" value="" style="ellipse;whiteSpace=wrap;html=1;aspect=fixed;fillColor=#000000;strokeColor=none;" parent="1" vertex="1">
          <mxGeometry x="450.25" y="415.94" width="10.25" height="10.25" as="geometry" />
        </mxCell>
        <mxCell id="qzl_0FQHeIpXsemMOcgw-18" style="edgeStyle=orthogonalEdgeStyle;rounded=0;orthogonalLoop=1;jettySize=auto;html=1;exitX=0.5;exitY=0;exitDx=0;exitDy=0;entryX=0.75;entryY=1;entryDx=0;entryDy=0;strokeWidth=2;endArrow=block;endFill=1;" parent="1" source="qzl_0FQHeIpXsemMOcgw-16" target="rJuk06R3LivjcmxmuOkn-14" edge="1">
          <mxGeometry relative="1" as="geometry" />
        </mxCell>
        <mxCell id="qzl_0FQHeIpXsemMOcgw-19" style="edgeStyle=orthogonalEdgeStyle;rounded=0;orthogonalLoop=1;jettySize=auto;html=1;exitX=1;exitY=0.5;exitDx=0;exitDy=0;entryX=0.25;entryY=1;entryDx=0;entryDy=0;strokeWidth=2;endArrow=block;endFill=1;" parent="1" source="qzl_0FQHeIpXsemMOcgw-16" target="rJuk06R3LivjcmxmuOkn-5" edge="1">
          <mxGeometry relative="1" as="geometry" />
        </mxCell>
        <mxCell id="qzl_0FQHeIpXsemMOcgw-16" value="" style="ellipse;whiteSpace=wrap;html=1;aspect=fixed;fillColor=#000000;strokeColor=none;" parent="1" vertex="1">
          <mxGeometry x="812" y="415.94" width="10.25" height="10.25" as="geometry" />
        </mxCell>
        <mxCell id="qzl_0FQHeIpXsemMOcgw-23" style="edgeStyle=orthogonalEdgeStyle;rounded=0;orthogonalLoop=1;jettySize=auto;html=1;exitX=1;exitY=0.5;exitDx=0;exitDy=0;entryX=0;entryY=0.5;entryDx=0;entryDy=0;strokeWidth=2;endArrow=none;endFill=0;" parent="1" source="qzl_0FQHeIpXsemMOcgw-21" target="qzl_0FQHeIpXsemMOcgw-16" edge="1">
          <mxGeometry relative="1" as="geometry">
            <Array as="points">
              <mxPoint x="720" y="420.94" />
              <mxPoint x="720" y="420.94" />
            </Array>
          </mxGeometry>
        </mxCell>
        <mxCell id="qzl_0FQHeIpXsemMOcgw-21" value="" style="ellipse;whiteSpace=wrap;html=1;aspect=fixed;fillColor=#000000;strokeColor=none;" parent="1" vertex="1">
          <mxGeometry x="630" y="415.94" width="10.25" height="10.25" as="geometry" />
        </mxCell>
        <mxCell id="qzl_0FQHeIpXsemMOcgw-22" style="edgeStyle=orthogonalEdgeStyle;rounded=0;orthogonalLoop=1;jettySize=auto;html=1;exitX=0.5;exitY=0;exitDx=0;exitDy=0;entryX=0.75;entryY=1;entryDx=0;entryDy=0;strokeWidth=2;endArrow=block;endFill=1;" parent="1" source="qzl_0FQHeIpXsemMOcgw-21" target="rJuk06R3LivjcmxmuOkn-3" edge="1">
          <mxGeometry relative="1" as="geometry" />
        </mxCell>
        <mxCell id="qzl_0FQHeIpXsemMOcgw-24" style="edgeStyle=orthogonalEdgeStyle;rounded=0;orthogonalLoop=1;jettySize=auto;html=1;entryX=0;entryY=0.5;entryDx=0;entryDy=0;endArrow=none;endFill=0;strokeWidth=2;jumpStyle=arc;exitX=0.43;exitY=1.095;exitDx=0;exitDy=0;exitPerimeter=0;" parent="1" source="rJuk06R3LivjcmxmuOkn-66" target="qzl_0FQHeIpXsemMOcgw-1" edge="1">
          <mxGeometry relative="1" as="geometry">
            <mxPoint x="265" y="357.94" as="sourcePoint" />
            <Array as="points">
              <mxPoint x="183" y="360.94" />
              <mxPoint x="275" y="360.94" />
              <mxPoint x="275" y="375.94" />
            </Array>
          </mxGeometry>
        </mxCell>
        <mxCell id="qzl_0FQHeIpXsemMOcgw-26" style="edgeStyle=orthogonalEdgeStyle;rounded=0;orthogonalLoop=1;jettySize=auto;html=1;exitX=0.5;exitY=0;exitDx=0;exitDy=0;entryX=0.25;entryY=1;entryDx=0;entryDy=0;strokeWidth=2;endArrow=block;endFill=1;" parent="1" source="qzl_0FQHeIpXsemMOcgw-25" target="rJuk06R3LivjcmxmuOkn-39" edge="1">
          <mxGeometry relative="1" as="geometry" />
        </mxCell>
        <mxCell id="qzl_0FQHeIpXsemMOcgw-29" style="edgeStyle=orthogonalEdgeStyle;rounded=0;orthogonalLoop=1;jettySize=auto;html=1;exitX=1;exitY=0.5;exitDx=0;exitDy=0;entryX=0;entryY=0.5;entryDx=0;entryDy=0;strokeWidth=2;endArrow=none;endFill=0;jumpStyle=arc;" parent="1" source="qzl_0FQHeIpXsemMOcgw-25" target="qzl_0FQHeIpXsemMOcgw-28" edge="1">
          <mxGeometry relative="1" as="geometry" />
        </mxCell>
        <mxCell id="qzl_0FQHeIpXsemMOcgw-25" value="" style="ellipse;whiteSpace=wrap;html=1;aspect=fixed;fillColor=#000000;strokeColor=none;" parent="1" vertex="1">
          <mxGeometry x="279" y="320.69" width="9.25" height="9.25" as="geometry" />
        </mxCell>
        <mxCell id="qzl_0FQHeIpXsemMOcgw-33" style="edgeStyle=orthogonalEdgeStyle;rounded=0;orthogonalLoop=1;jettySize=auto;html=1;exitX=0.5;exitY=0;exitDx=0;exitDy=0;entryX=0.5;entryY=1;entryDx=0;entryDy=0;strokeWidth=2;endArrow=block;endFill=1;" parent="1" source="qzl_0FQHeIpXsemMOcgw-28" target="rJuk06R3LivjcmxmuOkn-23" edge="1">
          <mxGeometry relative="1" as="geometry">
            <Array as="points">
              <mxPoint x="358" y="255.94" />
              <mxPoint x="470" y="255.94" />
            </Array>
          </mxGeometry>
        </mxCell>
        <mxCell id="qzl_0FQHeIpXsemMOcgw-35" style="edgeStyle=orthogonalEdgeStyle;rounded=0;orthogonalLoop=1;jettySize=auto;html=1;exitX=1;exitY=0.5;exitDx=0;exitDy=0;entryX=0;entryY=0.5;entryDx=0;entryDy=0;strokeWidth=2;endArrow=none;endFill=0;" parent="1" source="qzl_0FQHeIpXsemMOcgw-28" target="qzl_0FQHeIpXsemMOcgw-34" edge="1">
          <mxGeometry relative="1" as="geometry" />
        </mxCell>
        <mxCell id="qzl_0FQHeIpXsemMOcgw-28" value="" style="ellipse;whiteSpace=wrap;html=1;aspect=fixed;fillColor=#000000;strokeColor=none;" parent="1" vertex="1">
          <mxGeometry x="353.25" y="320.69" width="10.25" height="10.25" as="geometry" />
        </mxCell>
        <mxCell id="qzl_0FQHeIpXsemMOcgw-30" style="edgeStyle=orthogonalEdgeStyle;rounded=0;orthogonalLoop=1;jettySize=auto;html=1;exitX=1;exitY=0.25;exitDx=0;exitDy=0;strokeWidth=2;endArrow=none;endFill=0;entryX=0;entryY=0.5;entryDx=0;entryDy=0;" parent="1" source="rJuk06R3LivjcmxmuOkn-11" target="qzl_0FQHeIpXsemMOcgw-25" edge="1">
          <mxGeometry relative="1" as="geometry">
            <Array as="points" />
          </mxGeometry>
        </mxCell>
        <mxCell id="qzl_0FQHeIpXsemMOcgw-36" style="edgeStyle=orthogonalEdgeStyle;rounded=0;orthogonalLoop=1;jettySize=auto;html=1;exitX=0.5;exitY=0;exitDx=0;exitDy=0;entryX=0.25;entryY=1;entryDx=0;entryDy=0;strokeWidth=2;endArrow=block;endFill=1;" parent="1" source="qzl_0FQHeIpXsemMOcgw-34" target="rJuk06R3LivjcmxmuOkn-8" edge="1">
          <mxGeometry relative="1" as="geometry" />
        </mxCell>
        <mxCell id="qzl_0FQHeIpXsemMOcgw-34" value="" style="ellipse;whiteSpace=wrap;html=1;aspect=fixed;fillColor=#000000;strokeColor=none;" parent="1" vertex="1">
          <mxGeometry x="395.75" y="320.69" width="10.25" height="10.25" as="geometry" />
        </mxCell>
        <mxCell id="rJuk06R3LivjcmxmuOkn-23" value="" style="rounded=0;whiteSpace=wrap;html=1;fillColor=none;strokeWidth=2;" parent="1" vertex="1">
          <mxGeometry x="449.75" y="155.94" width="40" height="80" as="geometry" />
        </mxCell>
        <mxCell id="rJuk06R3LivjcmxmuOkn-48" value="MUX" style="text;html=1;strokeColor=none;fillColor=none;align=center;verticalAlign=middle;whiteSpace=wrap;rounded=0;fontStyle=0;fontSize=18;" parent="1" vertex="1">
          <mxGeometry x="440" y="132.44" width="57.5" height="17.5" as="geometry" />
        </mxCell>
        <mxCell id="rJuk06R3LivjcmxmuOkn-70" value="$$\mathrm{0}$$" style="text;html=1;strokeColor=none;fillColor=none;align=center;verticalAlign=middle;whiteSpace=wrap;rounded=0;fontStyle=0;fontSize=14;" parent="1" vertex="1">
          <mxGeometry x="450.1" y="164.69" width="20" height="22.5" as="geometry" />
        </mxCell>
        <mxCell id="rJuk06R3LivjcmxmuOkn-71" value="$$\mathrm{1}$$" style="text;html=1;strokeColor=none;fillColor=none;align=center;verticalAlign=middle;whiteSpace=wrap;rounded=0;fontStyle=0;fontSize=14;" parent="1" vertex="1">
          <mxGeometry x="449.75" y="210.94" width="20" height="22.5" as="geometry" />
        </mxCell>
        <mxCell id="qzl_0FQHeIpXsemMOcgw-44" style="edgeStyle=orthogonalEdgeStyle;rounded=0;orthogonalLoop=1;jettySize=auto;html=1;exitX=0;exitY=0.25;exitDx=0;exitDy=0;exitPerimeter=0;entryX=1;entryY=0.75;entryDx=0;entryDy=0;strokeWidth=2;endArrow=none;endFill=0;" parent="1" source="rJuk06R3LivjcmxmuOkn-80" target="rJuk06R3LivjcmxmuOkn-11" edge="1">
          <mxGeometry relative="1" as="geometry">
            <Array as="points">
              <mxPoint x="205" y="413.94" />
              <mxPoint x="205" y="385.94" />
            </Array>
          </mxGeometry>
        </mxCell>
        <mxCell id="rJuk06R3LivjcmxmuOkn-11" value="" style="rounded=0;whiteSpace=wrap;html=1;fillColor=#FFF2CC;strokeWidth=2;" parent="1" vertex="1">
          <mxGeometry x="148" y="299.94" width="35" height="105" as="geometry" />
        </mxCell>
        <mxCell id="rJuk06R3LivjcmxmuOkn-66" value="controller" style="text;html=1;strokeColor=none;fillColor=none;align=center;verticalAlign=middle;whiteSpace=wrap;rounded=0;fontStyle=1;fontSize=18;rotation=-90;" parent="1" vertex="1">
          <mxGeometry x="124.86850725315861" y="339.56052830188685" width="83.27281235376697" height="27.328943396226418" as="geometry" />
        </mxCell>
        <mxCell id="rJuk06R3LivjcmxmuOkn-144" style="edgeStyle=orthogonalEdgeStyle;rounded=0;orthogonalLoop=1;jettySize=auto;html=1;exitX=0;exitY=0.25;exitDx=0;exitDy=0;strokeWidth=5;startArrow=block;startFill=1;endArrow=none;endFill=0;" parent="1" source="rJuk06R3LivjcmxmuOkn-14" edge="1">
          <mxGeometry relative="1" as="geometry">
            <mxPoint x="710" y="195.94" as="targetPoint" />
          </mxGeometry>
        </mxCell>
        <mxCell id="rJuk06R3LivjcmxmuOkn-14" value="" style="rounded=0;whiteSpace=wrap;html=1;fillColor=#FFF2CC;strokeWidth=2;" parent="1" vertex="1">
          <mxGeometry x="750" y="262.44" width="90" height="33.75" as="geometry" />
        </mxCell>
        <mxCell id="rJuk06R3LivjcmxmuOkn-17" value="misr" style="text;html=1;strokeColor=none;fillColor=none;align=center;verticalAlign=middle;whiteSpace=wrap;rounded=0;fontStyle=1;fontSize=18;" parent="1" vertex="1">
          <mxGeometry x="774" y="269.32" width="42" height="20" as="geometry" />
        </mxCell>
        <mxCell id="qzl_0FQHeIpXsemMOcgw-53" value="new_seq" style="text;html=1;strokeColor=none;fillColor=none;align=center;verticalAlign=middle;whiteSpace=wrap;rounded=0;fontStyle=0;fontSize=15;" parent="1" vertex="1">
          <mxGeometry x="214" y="394.07" width="65" height="14.87" as="geometry" />
        </mxCell>
        <mxCell id="qzl_0FQHeIpXsemMOcgw-56" value="out" style="text;html=1;strokeColor=none;fillColor=none;align=center;verticalAlign=middle;whiteSpace=wrap;rounded=0;fontStyle=0;fontSize=15;" parent="1" vertex="1">
          <mxGeometry x="575" y="345.4" width="28" height="19.08" as="geometry" />
        </mxCell>
        <mxCell id="qzl_0FQHeIpXsemMOcgw-57" value="" style="line;strokeWidth=2;direction=south;html=1;rotation=40;" parent="1" vertex="1">
          <mxGeometry x="391.65000000000003" y="212.19" width="10.85" height="21.8" as="geometry" />
        </mxCell>
        <mxCell id="qzl_0FQHeIpXsemMOcgw-58" value="4" style="text;strokeColor=none;fillColor=none;html=1;fontSize=15;fontStyle=1;verticalAlign=middle;align=center;labelBackgroundColor=none;fontColor=#000000;" parent="1" vertex="1">
          <mxGeometry x="392" y="202.44" width="9" height="15" as="geometry" />
        </mxCell>
        <mxCell id="qzl_0FQHeIpXsemMOcgw-59" value="" style="line;strokeWidth=2;direction=south;html=1;rotation=40;" parent="1" vertex="1">
          <mxGeometry x="252.15000000000003" y="314.55" width="10.85" height="21.8" as="geometry" />
        </mxCell>
        <mxCell id="qzl_0FQHeIpXsemMOcgw-60" value="1" style="text;strokeColor=none;fillColor=none;html=1;fontSize=15;fontStyle=1;verticalAlign=middle;align=center;labelBackgroundColor=none;fontColor=#000000;" parent="1" vertex="1">
          <mxGeometry x="249.60000000000002" y="308" width="9.35" height="15" as="geometry" />
        </mxCell>
        <mxCell id="qzl_0FQHeIpXsemMOcgw-63" value="" style="line;strokeWidth=2;direction=south;html=1;rotation=40;" parent="1" vertex="1">
          <mxGeometry x="1020.5500000000002" y="364.89000000000004" width="10.85" height="21.8" as="geometry" />
        </mxCell>
        <mxCell id="qzl_0FQHeIpXsemMOcgw-64" value="1" style="text;strokeColor=none;fillColor=none;html=1;fontSize=15;fontStyle=1;verticalAlign=middle;align=center;labelBackgroundColor=none;fontColor=#000000;" parent="1" vertex="1">
          <mxGeometry x="1018" y="358.34000000000003" width="9.35" height="15" as="geometry" />
        </mxCell>
        <mxCell id="qzl_0FQHeIpXsemMOcgw-65" value="" style="line;strokeWidth=2;direction=south;html=1;rotation=40;" parent="1" vertex="1">
          <mxGeometry x="556.85" y="333.49" width="10.85" height="21.8" as="geometry" />
        </mxCell>
        <mxCell id="qzl_0FQHeIpXsemMOcgw-66" value="1" style="text;strokeColor=none;fillColor=none;html=1;fontSize=15;fontStyle=1;verticalAlign=middle;align=center;labelBackgroundColor=none;fontColor=#000000;" parent="1" vertex="1">
          <mxGeometry x="554.3" y="326.94" width="9.35" height="15" as="geometry" />
        </mxCell>
        <mxCell id="qzl_0FQHeIpXsemMOcgw-67" value="" style="line;strokeWidth=2;direction=south;html=1;rotation=40;" parent="1" vertex="1">
          <mxGeometry x="1025.5500000000002" y="254.14000000000004" width="10.85" height="21.8" as="geometry" />
        </mxCell>
        <mxCell id="qzl_0FQHeIpXsemMOcgw-68" value="1" style="text;strokeColor=none;fillColor=none;html=1;fontSize=15;fontStyle=1;verticalAlign=middle;align=center;labelBackgroundColor=none;fontColor=#000000;" parent="1" vertex="1">
          <mxGeometry x="1023" y="247.59000000000003" width="9.35" height="15" as="geometry" />
        </mxCell>
        <mxCell id="qzl_0FQHeIpXsemMOcgw-69" value="" style="line;strokeWidth=2;direction=south;html=1;rotation=40;" parent="1" vertex="1">
          <mxGeometry x="191.45000000000005" y="375.24" width="10.85" height="21.8" as="geometry" />
        </mxCell>
        <mxCell id="qzl_0FQHeIpXsemMOcgw-70" value="1" style="text;strokeColor=none;fillColor=none;html=1;fontSize=15;fontStyle=1;verticalAlign=middle;align=center;labelBackgroundColor=none;fontColor=#000000;" parent="1" vertex="1">
          <mxGeometry x="188.9" y="368.69" width="9.35" height="15" as="geometry" />
        </mxCell>
        <mxCell id="qzl_0FQHeIpXsemMOcgw-71" value="" style="line;strokeWidth=2;direction=south;html=1;rotation=40;" parent="1" vertex="1">
          <mxGeometry x="116.05000000000004" y="416.49" width="10.85" height="21.8" as="geometry" />
        </mxCell>
        <mxCell id="qzl_0FQHeIpXsemMOcgw-72" value="1" style="text;strokeColor=none;fillColor=none;html=1;fontSize=15;fontStyle=1;verticalAlign=middle;align=center;labelBackgroundColor=none;fontColor=#000000;" parent="1" vertex="1">
          <mxGeometry x="113.5" y="408.94" width="9.35" height="17.06" as="geometry" />
        </mxCell>
        <mxCell id="qzl_0FQHeIpXsemMOcgw-73" value="" style="line;strokeWidth=2;direction=south;html=1;rotation=40;" parent="1" vertex="1">
          <mxGeometry x="116.05000000000004" y="340.90000000000003" width="10.85" height="21.8" as="geometry" />
        </mxCell>
        <mxCell id="qzl_0FQHeIpXsemMOcgw-74" value="1" style="text;strokeColor=none;fillColor=none;html=1;fontSize=15;fontStyle=1;verticalAlign=middle;align=center;labelBackgroundColor=none;fontColor=#000000;" parent="1" vertex="1">
          <mxGeometry x="113.5" y="334.35" width="9.35" height="15" as="geometry" />
        </mxCell>
        <mxCell id="qzl_0FQHeIpXsemMOcgw-77" value="" style="line;strokeWidth=2;direction=south;html=1;rotation=40;" parent="1" vertex="1">
          <mxGeometry x="857.5500000000002" y="219.89000000000004" width="10.85" height="21.8" as="geometry" />
        </mxCell>
        <mxCell id="qzl_0FQHeIpXsemMOcgw-79" value="" style="line;strokeWidth=2;direction=south;html=1;rotation=40;" parent="1" vertex="1">
          <mxGeometry x="1021.8300000000002" y="182.99000000000007" width="10.85" height="21.8" as="geometry" />
        </mxCell>
        <mxCell id="qzl_0FQHeIpXsemMOcgw-80" value="4" style="text;strokeColor=none;fillColor=none;html=1;fontSize=15;fontStyle=1;verticalAlign=middle;align=center;labelBackgroundColor=none;fontColor=#000000;" parent="1" vertex="1">
          <mxGeometry x="1019.28" y="176.44000000000003" width="9.35" height="15" as="geometry" />
        </mxCell>
        <mxCell id="qzl_0FQHeIpXsemMOcgw-81" value="" style="line;strokeWidth=2;direction=south;html=1;rotation=40;" parent="1" vertex="1">
          <mxGeometry x="854.8500000000001" y="268.74000000000007" width="10.85" height="21.8" as="geometry" />
        </mxCell>
        <mxCell id="qzl_0FQHeIpXsemMOcgw-82" value="9" style="text;strokeColor=none;fillColor=none;html=1;fontSize=15;fontStyle=1;verticalAlign=middle;align=center;labelBackgroundColor=none;fontColor=#000000;" parent="1" vertex="1">
          <mxGeometry x="847.3" y="261.44" width="15" height="15.35" as="geometry" />
        </mxCell>
        <mxCell id="qzl_0FQHeIpXsemMOcgw-83" value="" style="line;strokeWidth=2;direction=south;html=1;rotation=40;" parent="1" vertex="1">
          <mxGeometry x="511.55000000000007" y="256.41" width="10.85" height="21.8" as="geometry" />
        </mxCell>
        <mxCell id="qzl_0FQHeIpXsemMOcgw-84" value="1" style="text;strokeColor=none;fillColor=none;html=1;fontSize=15;fontStyle=1;verticalAlign=middle;align=center;labelBackgroundColor=none;fontColor=#000000;" parent="1" vertex="1">
          <mxGeometry x="509" y="249.86" width="9.35" height="15" as="geometry" />
        </mxCell>
        <mxCell id="qzl_0FQHeIpXsemMOcgw-85" value="" style="line;strokeWidth=2;direction=south;html=1;rotation=40;" parent="1" vertex="1">
          <mxGeometry x="677.5500000000001" y="256.41" width="10.85" height="21.8" as="geometry" />
        </mxCell>
        <mxCell id="qzl_0FQHeIpXsemMOcgw-86" value="1" style="text;strokeColor=none;fillColor=none;html=1;fontSize=15;fontStyle=1;verticalAlign=middle;align=center;labelBackgroundColor=none;fontColor=#000000;" parent="1" vertex="1">
          <mxGeometry x="675" y="249.86" width="9.35" height="15" as="geometry" />
        </mxCell>
        <mxCell id="qzl_0FQHeIpXsemMOcgw-94" style="edgeStyle=orthogonalEdgeStyle;rounded=0;orthogonalLoop=1;jettySize=auto;html=1;exitX=1;exitY=0.5;exitDx=0;exitDy=0;strokeWidth=2;endArrow=block;endFill=1;" parent="1" source="rJuk06R3LivjcmxmuOkn-109" edge="1">
          <mxGeometry relative="1" as="geometry">
            <mxPoint x="58" y="256.19" as="sourcePoint" />
            <mxPoint x="107" y="256.04" as="targetPoint" />
          </mxGeometry>
        </mxCell>
        <mxCell id="qzl_0FQHeIpXsemMOcgw-95" value="" style="line;strokeWidth=2;direction=south;html=1;rotation=40;" parent="1" vertex="1">
          <mxGeometry x="76.35000000000004" y="244.16000000000003" width="10.85" height="21.8" as="geometry" />
        </mxCell>
        <mxCell id="qzl_0FQHeIpXsemMOcgw-96" value="1" style="text;strokeColor=none;fillColor=none;html=1;fontSize=15;fontStyle=1;verticalAlign=middle;align=center;labelBackgroundColor=none;fontColor=#000000;" parent="1" vertex="1">
          <mxGeometry x="73.8" y="237.61" width="9.35" height="15" as="geometry" />
        </mxCell>
        <mxCell id="qzl_0FQHeIpXsemMOcgw-98" value="" style="line;strokeWidth=2;direction=south;html=1;rotation=40;" parent="1" vertex="1">
          <mxGeometry x="686.9000000000001" y="182.64000000000004" width="10.85" height="21.8" as="geometry" />
        </mxCell>
        <mxCell id="qzl_0FQHeIpXsemMOcgw-99" value="4" style="text;strokeColor=none;fillColor=none;html=1;fontSize=15;fontStyle=1;verticalAlign=middle;align=center;labelBackgroundColor=none;fontColor=#000000;" parent="1" vertex="1">
          <mxGeometry x="684.35" y="175.44000000000003" width="9.35" height="15" as="geometry" />
        </mxCell>
        <mxCell id="qzl_0FQHeIpXsemMOcgw-100" value="" style="line;strokeWidth=2;direction=south;html=1;rotation=40;" parent="1" vertex="1">
          <mxGeometry x="705.5500000000001" y="219.79000000000005" width="10.85" height="21.8" as="geometry" />
        </mxCell>
        <mxCell id="qzl_0FQHeIpXsemMOcgw-101" value="4" style="text;strokeColor=none;fillColor=none;html=1;fontSize=15;fontStyle=1;verticalAlign=middle;align=center;labelBackgroundColor=none;fontColor=#000000;" parent="1" vertex="1">
          <mxGeometry x="718.4" y="224.20000000000005" width="9.35" height="15" as="geometry" />
        </mxCell>
        <mxCell id="qzl_0FQHeIpXsemMOcgw-106" style="edgeStyle=orthogonalEdgeStyle;rounded=0;orthogonalLoop=1;jettySize=auto;html=1;exitX=0.5;exitY=0;exitDx=0;exitDy=0;entryX=0.5;entryY=1;entryDx=0;entryDy=0;strokeWidth=2;endArrow=block;endFill=1;" parent="1" source="qzl_0FQHeIpXsemMOcgw-104" target="rJuk06R3LivjcmxmuOkn-11" edge="1">
          <mxGeometry relative="1" as="geometry" />
        </mxCell>
        <mxCell id="qzl_0FQHeIpXsemMOcgw-104" value="" style="ellipse;whiteSpace=wrap;html=1;aspect=fixed;fillColor=#000000;strokeColor=none;" parent="1" vertex="1">
          <mxGeometry x="160.88" y="423.76" width="9.25" height="9.25" as="geometry" />
        </mxCell>
        <mxCell id="qzl_0FQHeIpXsemMOcgw-109" style="edgeStyle=orthogonalEdgeStyle;rounded=0;orthogonalLoop=1;jettySize=auto;html=1;exitX=1;exitY=0.5;exitDx=0;exitDy=0;entryX=0;entryY=0.75;entryDx=0;entryDy=0;entryPerimeter=0;strokeWidth=2;endArrow=none;endFill=0;" parent="1" source="qzl_0FQHeIpXsemMOcgw-104" target="rJuk06R3LivjcmxmuOkn-80" edge="1">
          <mxGeometry relative="1" as="geometry" />
        </mxCell>
        <mxCell id="qzl_0FQHeIpXsemMOcgw-113" value="9" style="text;strokeColor=none;fillColor=none;html=1;fontSize=15;fontStyle=1;verticalAlign=middle;align=center;labelBackgroundColor=none;fontColor=#000000;" parent="1" vertex="1">
          <mxGeometry x="849.3" y="210.94" width="15" height="15.35" as="geometry" />
        </mxCell>
        <mxCell id="rJuk06R3LivjcmxmuOkn-3" value="" style="rounded=0;whiteSpace=wrap;html=1;fillColor=#FFF2CC;strokeWidth=2;" parent="1" vertex="1">
          <mxGeometry x="530" y="158.94" width="140" height="145" as="geometry" />
        </mxCell>
        <mxCell id="rJuk06R3LivjcmxmuOkn-15" value="circuito06" style="text;html=1;strokeColor=none;fillColor=none;align=center;verticalAlign=middle;whiteSpace=wrap;rounded=0;fontStyle=1;fontSize=18;" parent="1" vertex="1">
          <mxGeometry x="550" y="165.945" width="100" height="17" as="geometry" />
        </mxCell>
        <mxCell id="rJuk06R3LivjcmxmuOkn-20" value="Scan chain" style="text;html=1;strokeColor=none;fillColor=none;align=center;verticalAlign=middle;whiteSpace=wrap;rounded=0;fontStyle=0;fontSize=18;" parent="1" vertex="1">
          <mxGeometry x="550" y="230.93888888888887" width="100" height="17" as="geometry" />
        </mxCell>
        <mxCell id="rJuk06R3LivjcmxmuOkn-67" value="" style="rounded=0;whiteSpace=wrap;html=1;fillColor=none;strokeWidth=2;" parent="1" vertex="1">
          <mxGeometry x="555" y="251.18888888888887" width="90" height="34" as="geometry" />
        </mxCell>
        <mxCell id="rJuk06R3LivjcmxmuOkn-68" value="26 FFs" style="text;html=1;strokeColor=none;fillColor=none;align=center;verticalAlign=middle;whiteSpace=wrap;rounded=0;fontStyle=0;fontSize=16;" parent="1" vertex="1">
          <mxGeometry x="570" y="259.68888888888887" width="60" height="17" as="geometry" />
        </mxCell>
        <mxCell id="qzl_0FQHeIpXsemMOcgw-49" style="edgeStyle=orthogonalEdgeStyle;rounded=0;orthogonalLoop=1;jettySize=auto;html=1;entryX=0.605;entryY=1.097;entryDx=0;entryDy=0;entryPerimeter=0;strokeWidth=2;endArrow=none;endFill=0;startArrow=block;startFill=1;jumpStyle=arc;" parent="1" source="rJuk06R3LivjcmxmuOkn-67" target="rJuk06R3LivjcmxmuOkn-66" edge="1">
          <mxGeometry relative="1" as="geometry">
            <Array as="points">
              <mxPoint x="600" y="344.94" />
              <mxPoint x="373" y="344.94" />
            </Array>
          </mxGeometry>
        </mxCell>
        <mxCell id="qzl_0FQHeIpXsemMOcgw-42" style="edgeStyle=orthogonalEdgeStyle;rounded=0;orthogonalLoop=1;jettySize=auto;html=1;exitX=1;exitY=0.5;exitDx=0;exitDy=0;entryX=0.25;entryY=1;entryDx=0;entryDy=0;strokeWidth=2;endArrow=block;endFill=1;jumpStyle=arc;" parent="1" source="qzl_0FQHeIpXsemMOcgw-34" target="rJuk06R3LivjcmxmuOkn-14" edge="1">
          <mxGeometry relative="1" as="geometry">
            <mxPoint x="767.749999999988" y="334.06499999999977" as="targetPoint" />
            <Array as="points">
              <mxPoint x="773" y="325.94" />
            </Array>
          </mxGeometry>
        </mxCell>
        <mxCell id="rJuk06R3LivjcmxmuOkn-105" style="edgeStyle=orthogonalEdgeStyle;rounded=0;orthogonalLoop=1;jettySize=auto;html=1;exitX=1;exitY=0.5;exitDx=0;exitDy=0;entryX=0;entryY=0.5;entryDx=0;entryDy=0;strokeWidth=2;endArrow=block;endFill=1;" parent="1" source="rJuk06R3LivjcmxmuOkn-8" target="rJuk06R3LivjcmxmuOkn-67" edge="1">
          <mxGeometry relative="1" as="geometry">
            <Array as="points">
              <mxPoint x="500" y="287.94" />
              <mxPoint x="500" y="267.94" />
            </Array>
          </mxGeometry>
        </mxCell>
        <mxCell id="rJuk06R3LivjcmxmuOkn-93" style="edgeStyle=orthogonalEdgeStyle;rounded=0;orthogonalLoop=1;jettySize=auto;html=1;exitX=1;exitY=0.5;exitDx=0;exitDy=0;entryX=0;entryY=0.75;entryDx=0;entryDy=0;strokeWidth=2;endArrow=block;endFill=1;" parent="1" source="rJuk06R3LivjcmxmuOkn-67" target="rJuk06R3LivjcmxmuOkn-14" edge="1">
          <mxGeometry relative="1" as="geometry" />
        </mxCell>
      </root>
    </mxGraphModel>
  </diagram>
</mxfile>
